# Alias OBJ Model File
# Exported from SketchUp, (c) 2000-2012 Trimble Navigation Limited
# File units = millimeters

mtllib 4.mtl

g Mesh1 Component_4_1 Model

usemtl FrontColor
v 1685.25 0 -677.466
vt -2.49561 5.92753
vn 0 -1 -0
v 1752.24 0 -642.953
vt -5.13339 4.56877
v 1755.86 0 -567.674
vt -5.27556 1.60501
v 1692.47 0 -526.907
vt -2.77995 0
v 1625.47 0 -561.419
vt -0.142169 1.35876
v 1621.86 0 -636.699
vt 0 4.32253
f 1/1/1 2/2/1 3/3/1 4/4/1 5/5/1 6/6/1 

vt -2.47134 0
vn 0.457931 0 -0.888988
vt 0.495832 0
v 1685.25 185 -677.466
vt 0.495832 7.28346
v 1752.24 185 -642.953
vt -2.47134 7.28346
f 2/7/2 1/8/2 7/9/2 8/10/2 

vt -5.30532 0
vn -0.540921 0 -0.841074
vt -2.33814 0
v 1621.86 185 -636.699
vt -2.33814 7.28346
vt -5.30532 7.28346
f 1/11/3 6/12/3 9/13/3 7/14/3 

vt -4.31756 0
vn -0.998851 0 0.0479141
vt -1.35039 0
v 1625.47 185 -561.419
vt -1.35039 7.28346
vt -4.31756 7.28346
f 6/15/4 5/16/4 10/17/4 9/18/4 

vt -0.495832 0
vn -0.457931 0 0.888988
vt 2.47134 0
v 1692.47 185 -526.907
vt 2.47134 7.28346
vt -0.495832 7.28346
f 5/19/5 4/20/5 11/21/5 10/22/5 

vt 2.33814 0
vn 0.540921 0 0.841074
vt 5.30532 0
v 1755.86 185 -567.674
vt 5.30532 7.28346
vt 2.33814 7.28346
f 4/23/6 3/24/6 12/25/6 11/26/6 

vt 1.35039 0
vn 0.998851 0 -0.0479141
vt 4.31756 0
vt 4.31756 7.28346
vt 1.35039 7.28346
f 3/27/7 2/28/7 8/29/7 12/30/7 

vt 5.13339 4.56877
vn 0 1 -0
vt 2.49561 5.92753
vt 0.142169 1.35876
vt 2.77995 0
vt 5.27556 1.60501
f 8/31/8 7/32/8 9/6/8 10/33/8 11/34/8 12/35/8 

g Mesh2 Model

v 1653.48 78.2714 -475.941
vt 49.2905 3.08155
vn -0.457931 9.49501e-16 0.888988
v 1663.94 83.9602 -470.554
vt 49.7537 3.30552
v 1672.74 92.5 -466.024
vt 50.1431 3.64173
v 1679.27 103.309 -462.661
vt 50.4323 4.06728
v 1683.08 115.65 -460.694
vt 50.6014 4.55317
v 1683.93 128.683 -460.256
vt 50.639 5.06627
v 1681.76 141.52 -461.378
vt 50.5426 5.57164
v 1676.7 153.284 -463.983
vt 50.3186 6.03481
v 1669.11 163.176 -467.894
vt 49.9824 6.42424
v 1659.5 170.52 -472.843
vt 49.5569 6.71338
v 1648.53 174.816 -478.495
vt 49.071 6.88253
v 1636.94 175.772 -484.463
vt 48.5579 6.92016
v 1625.53 173.322 -490.341
vt 48.0525 6.8237
v 1615.07 167.633 -495.729
vt 47.5893 6.59974
v 1606.28 159.093 -500.258
vt 47.1999 6.26352
v 1599.75 148.285 -503.621
vt 46.9108 5.83797
v 1595.93 135.943 -505.589
vt 46.7416 5.35209
v 1595.08 122.91 -506.026
vt 46.704 4.83898
v 1597.26 110.074 -504.904
vt 46.8004 4.33362
v 1602.31 98.3092 -502.299
vt 47.0244 3.87044
v 1609.91 88.4177 -498.389
vt 47.3606 3.48101
v 1619.52 81.0735 -493.439
vt 47.7862 3.19187
v 1630.49 76.7772 -487.787
vt 48.2721 3.02272
v 1642.07 75.8214 -481.819
vt 48.7852 2.9851
f 13/36/9 14/37/9 15/38/9 16/39/9 17/40/9 18/41/9 19/42/9 20/43/9 21/44/9 22/45/9 23/46/9 24/47/9 25/48/9 26/49/9 27/50/9 28/51/9 29/52/9 30/53/9 31/54/9 32/55/9 33/56/9 34/57/9 35/58/9 36/59/9 

vt 46.468 46.231
vn 0.48815 -0.835752 0.251453
vt 46.468 45.7165
vn 0.279221 -0.949394 0.143831
v 1820.17 78.2714 -799.533
vt 60.7987 45.7165
v 1830.63 83.9602 -794.145
vt 60.7987 46.231
f 14/60/10 13/61/11 37/62/11 38/63/10 

vt 46.468 48.9942
vt 46.468 48.4798
vn 0.0512633 -0.998336 0.0264065
v 1808.76 75.8214 -805.411
vt 60.7987 48.4798
vt 60.7987 48.9942
f 13/64/11 36/65/12 39/66/12 37/67/11 

vt -46.468 -48.4362
vt -46.468 -47.9217
vn -0.180188 -0.979243 -0.0928173
v 1797.17 76.7772 -811.379
vt -60.7987 -47.9217
vt -60.7987 -48.4362
f 36/68/12 35/69/13 40/70/13 39/71/12 

vt -46.468 -44.5948
vt -46.468 -44.0803
vn -0.399359 -0.893417 -0.205716
v 1786.2 81.0735 -817.031
vt -60.7987 -44.0803
vt -60.7987 -44.5948
f 35/72/13 34/73/14 41/74/14 40/75/13 

vt -46.468 -37.7319
vt -46.468 -37.2174
vn -0.591315 -0.746705 -0.304595
v 1776.59 88.4177 -821.98
vt -60.7987 -37.2174
vt -60.7987 -37.7319
f 34/76/14 33/77/15 42/78/15 41/79/14 

vt -46.468 -28.3151
vt -46.468 -27.8007
vn -0.742973 -0.549107 -0.382717
v 1769 98.3092 -825.891
vt -60.7987 -27.8007
vt -60.7987 -28.3151
f 33/80/15 32/81/16 43/82/16 42/83/15 

vt -46.468 -16.9863
vt -46.468 -16.4718
vn -0.843999 -0.314088 -0.434757
v 1763.94 110.074 -828.496
vt -60.7987 -16.4718
vt -60.7987 -16.9863
f 32/84/16 31/85/17 44/86/17 43/87/16 

vt -46.468 -4.51739
vt -46.468 -4.00291
vn -0.887509 -0.0576648 -0.457169
v 1761.77 122.91 -829.618
vt -60.7987 -4.00291
vt -60.7987 -4.51739
f 31/88/17 30/89/18 45/90/18 44/91/17 

vt -46.468 8.24184
vt -46.468 8.75632
vn -0.870535 0.202688 -0.448426
v 1762.62 135.943 -829.18
vt -60.7987 8.75632
vt -60.7987 8.24184
f 30/92/18 29/93/19 46/94/19 45/95/18 

vt -46.468 20.4219
vt -46.468 20.9363
vn -0.794237 0.449229 -0.409123
v 1766.44 148.285 -827.213
vt -60.7987 20.9363
vt -60.7987 20.4219
f 29/96/19 28/97/20 47/98/20 46/99/19 

vt -46.468 31.1926
vt -46.468 31.7071
vn -0.663812 0.665155 -0.341939
v 1772.96 159.093 -823.85
vt -60.7987 31.7071
vt -60.7987 31.1926
f 28/100/20 27/101/21 48/102/21 47/103/20 

vt -46.468 39.8202
vt -46.468 40.3347
vn -0.48815 0.835752 -0.251453
v 1781.76 167.633 -819.32
vt -60.7987 40.3347
vt -60.7987 39.8202
f 27/104/21 26/105/22 49/106/22 48/107/21 

vt -46.468 45.7165
vt -46.468 46.231
vn -0.279221 0.949394 -0.143831
v 1792.22 173.322 -813.933
vt -60.7987 46.231
vt -60.7987 45.7165
f 26/108/22 25/109/23 50/110/23 49/111/22 

vt -46.468 48.4798
vt -46.468 48.9942
vn -0.0512633 0.998336 -0.0264065
v 1803.63 175.772 -808.055
vt -60.7987 48.9942
vt -60.7987 48.4798
f 25/112/23 24/113/24 51/114/24 50/115/23 

vt 46.468 -47.9217
vt 46.468 -48.4362
vn 0.180188 0.979243 0.0928173
v 1815.21 174.816 -802.086
vt 60.7987 -48.4362
vt 60.7987 -47.9217
f 24/116/24 23/117/25 52/118/25 51/119/24 

vt 46.468 -44.0803
vt 46.468 -44.5948
vn 0.399359 0.893417 0.205716
v 1826.19 170.52 -796.435
vt 60.7987 -44.5948
vt 60.7987 -44.0803
f 23/120/25 22/121/26 53/122/26 52/123/25 

vt 46.468 -37.2174
vt 46.468 -37.7319
vn 0.591315 0.746705 0.304595
v 1835.79 163.176 -791.485
vt 60.7987 -37.7319
vt 60.7987 -37.2174
f 22/124/26 21/125/27 54/126/27 53/127/26 

vt 46.468 -27.8007
vt 46.468 -28.3151
vn 0.742973 0.549107 0.382717
v 1843.39 153.284 -787.574
vt 60.7987 -28.3151
vt 60.7987 -27.8007
f 21/128/27 20/129/28 55/130/28 54/131/27 

vt 46.468 -16.4718
vt 46.468 -16.9863
vn 0.843999 0.314088 0.434757
v 1848.44 141.52 -784.969
vt 60.7987 -16.9863
vt 60.7987 -16.4718
f 20/132/28 19/133/29 56/134/29 55/135/28 

vt 46.468 -4.00291
vt 46.468 -4.51739
vn 0.887509 0.0576648 0.457169
v 1850.62 128.683 -783.847
vt 60.7987 -4.51739
vt 60.7987 -4.00291
f 19/136/29 18/137/30 57/138/30 56/139/29 

vt 46.468 8.75632
vt 46.468 8.24184
vn 0.870535 -0.202688 0.448426
v 1849.77 115.65 -784.285
vt 60.7987 8.24184
vt 60.7987 8.75632
f 18/140/30 17/141/31 58/142/31 57/143/30 

vt 46.468 20.9363
vt 46.468 20.4219
vn 0.794237 -0.449229 0.409123
v 1845.95 103.309 -786.253
vt 60.7987 20.4219
vt 60.7987 20.9363
f 17/144/31 16/145/32 59/146/32 58/147/31 

vt 46.468 31.7071
vt 46.468 31.1926
vn 0.663812 -0.665155 0.341939
v 1839.42 92.5 -789.616
vt 60.7987 31.1926
vt 60.7987 31.7071
f 16/148/32 15/149/33 60/150/33 59/151/32 

vt 46.468 40.3347
vt 46.468 39.8202
vt 60.7987 39.8202
vt 60.7987 40.3347
f 15/152/33 14/153/10 38/154/10 60/155/33 

vt -49.7537 3.30552
vn 0.457931 -7.21981e-16 -0.888988
vt -49.2905 3.08155
vt -48.7852 2.9851
vt -48.2721 3.02272
vt -47.7862 3.19187
vt -47.3606 3.48101
vt -47.0244 3.87044
vt -46.8004 4.33362
vt -46.704 4.83898
vt -46.7416 5.35209
vt -46.9108 5.83797
vt -47.1999 6.26352
vt -47.5893 6.59974
vt -48.0525 6.8237
vt -48.5579 6.92016
vt -49.071 6.88253
vt -49.5569 6.71338
vt -49.9824 6.42424
vt -50.3186 6.03481
vt -50.5426 5.57164
vt -50.639 5.06627
vt -50.6014 4.55317
vt -50.4323 4.06728
vt -50.1431 3.64173
f 38/156/34 37/157/34 39/158/34 40/159/34 41/160/34 42/161/34 43/162/34 44/163/34 45/164/34 46/165/34 47/166/34 48/167/34 49/168/34 50/169/34 51/170/34 52/171/34 53/172/34 54/173/34 55/174/34 56/175/34 57/176/34 58/177/34 59/178/34 60/179/34 

