# Alias OBJ Model File
# Exported from SketchUp, (c) 2000-2012 Trimble Navigation Limited
# File units = millimeters

mtllib n.mtl

g Mesh1 Model

usemtl FrontColor
v 2891.51 2.00371e-29 -352.35
vt -113.839 13.872
vn 0 -1 -0
v 3034.77 2.00371e-29 -474.084
vt -119.479 18.6647
v 3044.63 2.00371e-29 -467.734
vt -119.867 18.4147
v 3053.65 2.00371e-29 -460.236
vt -120.223 18.1195
v 3061.7 2.00371e-29 -451.699
vt -120.539 17.7834
v 3068.65 2.00371e-29 -442.25
vt -120.813 17.4114
v 3074.4 2.00371e-29 -432.027
vt -121.039 17.0089
v 3078.87 2.00371e-29 -421.183
vt -121.215 16.582
v 3082 2.00371e-29 -409.876
vt -121.338 16.1369
v 3083.73 2.00371e-29 -398.274
vt -121.407 15.6801
v 3084.04 2.00371e-29 -386.548
vt -121.419 15.2184
v 3082.92 2.00371e-29 -374.871
vt -121.375 14.7587
v 3080.4 2.00371e-29 -363.415
vt -121.276 14.3077
v 3076.51 2.00371e-29 -352.35
vt -121.122 13.872
f 1/1/1 2/2/1 3/3/1 4/4/1 5/5/1 6/6/1 7/7/1 8/8/1 9/9/1 10/10/1 11/11/1 12/12/1 13/13/1 14/14/1 

vt -103.135 7.88861e-31
vn -0.647521 0 -0.762048
vt -95.7331 7.88861e-31
v 2891.51 79 -352.35
vt -95.7331 3.11024
v 3034.77 79 -474.084
vt -103.135 3.11024
f 2/15/2 1/16/2 15/17/2 16/18/2 

vt 113.839 7.88861e-31
vn 0 0 1
vt 121.122 7.88861e-31
v 3076.51 79 -352.35
vt 121.122 3.11024
vt 113.839 3.11024
f 1/19/3 14/20/3 17/21/3 15/22/3 

vt 53.2818 7.88861e-31
vn 0.943328 0 0.331862
vt 53.7436 7.88861e-31
vn 0.961744 0 0.273951
v 3080.4 79 -363.415
vt 53.7436 3.11024
vt 53.2818 3.11024
f 14/23/4 13/24/5 18/25/5 17/26/4 

vt 40.0507 7.88861e-31
vt 40.5125 7.88861e-31
vn 0.987865 0 0.155312
v 3082.92 79 -374.871
vt 40.5125 3.11024
vt 40.0507 3.11024
f 13/27/5 12/28/6 19/29/6 18/30/5 

vt 26.2252 7.88861e-31
vt 26.687 7.88861e-31
vn 0.999409 0 0.0343808
v 3084.04 79 -386.548
vt 26.687 3.11024
vt 26.2252 3.11024
f 12/31/6 11/32/7 20/33/7 19/34/6 

vt 12.0092 7.88861e-31
vt 12.471 7.88861e-31
vn 0.996203 0 -0.087058
v 3083.73 79 -398.274
vt 12.471 3.11024
vt 12.0092 3.11024
f 11/35/7 10/36/8 21/37/8 20/38/7 

vt -2.3874 7.88861e-31
vt -1.92559 7.88861e-31
vn 0.978296 0 -0.207212
v 3082 79 -409.876
vt -1.92559 3.11024
vt -2.3874 3.11024
f 10/39/8 9/40/9 22/41/9 21/42/8 

vt -16.7522 7.88861e-31
vt -16.2904 7.88861e-31
vn 0.945952 0 -0.324308
v 3078.87 79 -421.183
vt -16.2904 3.11024
vt -16.7522 3.11024
f 9/43/9 8/44/10 23/45/10 22/46/9 

vt -30.8732 7.88861e-31
vt -30.4113 7.88861e-31
vn 0.899647 0 -0.436618
v 3074.4 79 -432.027
vt -30.4113 3.11024
vt -30.8732 3.11024
f 8/47/10 7/48/11 24/49/11 23/50/10 

vt -44.5419 7.88861e-31
vt -44.0801 7.88861e-31
vn 0.840066 0 -0.542485
v 3068.65 79 -442.25
vt -44.0801 3.11024
vt -44.5419 3.11024
f 7/51/11 6/52/12 25/53/12 24/54/11 

vt -57.5568 7.88861e-31
vt -57.0949 7.88861e-31
vn 0.768087 0 -0.640345
v 3061.7 79 -451.699
vt -57.0949 3.11024
vt -57.5568 3.11024
f 6/55/12 5/56/13 26/57/13 25/58/12 

vt -69.7256 7.88861e-31
vt -69.2638 7.88861e-31
vn 0.684773 0 -0.728756
v 3053.65 79 -460.236
vt -69.2638 3.11024
vt -69.7256 3.11024
f 5/59/13 4/60/14 27/61/14 26/62/13 

vt -80.8689 7.88861e-31
vt -80.407 7.88861e-31
vn 0.591354 0 -0.806412
v 3044.63 79 -467.734
vt -80.407 3.11024
vt -80.8689 3.11024
f 4/63/14 3/64/15 28/65/15 27/66/14 

vt -90.8221 7.88861e-31
vt -90.3603 7.88861e-31
vn 0.54128 0 -0.840842
vt -90.3603 3.11024
vt -90.8221 3.11024
f 3/67/15 2/68/16 16/69/16 28/70/15 

vt 119.479 18.6647
vn 0 1 -0
vt 113.839 13.872
vt 121.122 13.872
vt 121.276 14.3077
vt 121.375 14.7587
vt 121.419 15.2184
vt 121.407 15.6801
vt 121.338 16.1369
vt 121.215 16.582
vt 121.039 17.0089
vt 120.813 17.4114
vt 120.539 17.7834
vt 120.223 18.1195
vt 119.867 18.4147
f 16/71/17 15/72/17 17/73/17 18/74/17 19/75/17 20/76/17 21/77/17 22/78/17 23/79/17 24/80/17 25/81/17 26/82/17 27/83/17 28/84/17 

g Mesh2 Model

v 2888.48 4.51195e-14 -429.244
vt -113.72 16.8994
v 2939.5 4.51195e-14 -610.189
vt -115.728 24.0232
v 2951.23 4.51195e-14 -610.421
vt -116.19 24.0323
v 2962.9 4.51195e-14 -609.228
vt -116.65 23.9854
v 2974.34 4.51195e-14 -606.629
vt -117.1 23.883
v 2985.38 4.51195e-14 -602.663
vt -117.534 23.7269
v 2995.85 4.51195e-14 -597.387
vt -117.947 23.5192
v 3005.61 4.51195e-14 -590.879
vt -118.331 23.263
v 3014.51 4.51195e-14 -583.236
vt -118.681 22.9621
v 3022.42 4.51195e-14 -574.571
vt -118.993 22.6209
v 3029.21 4.51195e-14 -565.011
vt -119.26 22.2445
v 3034.8 4.51195e-14 -554.697
vt -119.48 21.8385
v 3039.1 4.51195e-14 -543.782
vt -119.649 21.4087
v 3042.04 4.51195e-14 -532.426
vt -119.765 20.9617
f 29/85/1 30/86/1 31/87/1 32/88/1 33/89/1 34/90/1 35/91/1 36/92/1 37/93/1 38/94/1 39/95/1 40/96/1 41/97/1 42/98/1 

vt -54.5256 1.77636e-15
vn -0.962479 0 -0.271358
vt -47.124 1.77636e-15
v 2888.48 79 -429.244
vt -47.124 3.11024
v 2939.5 79 -610.189
vt -54.5256 3.11024
f 30/99/18 29/100/18 43/101/18 44/102/18 

vt 103.814 1.77636e-15
vn 0.557745 0 0.830012
vt 111.098 1.77636e-15
v 3042.04 79 -532.426
vt 111.098 3.11024
vt 103.814 3.11024
f 29/103/19 42/104/19 45/105/19 43/106/19 

vt -9.73121 1.77636e-15
vn 0.968068 0 -0.250687
vt -9.26939 1.77636e-15
vn 0.951054 0 -0.309025
v 3039.1 79 -543.782
vt -9.26939 3.11024
vt -9.73121 3.11024
f 42/107/20 41/108/21 46/109/21 45/110/20 

vt -23.8968 1.77636e-15
vt -23.435 1.77636e-15
vn 0.906565 0 -0.422066
v 3034.8 79 -554.697
vt -23.435 3.11024
vt -23.8968 3.11024
f 41/111/21 40/112/22 47/113/22 46/114/21 

vt -37.7131 1.77636e-15
vt -37.2513 1.77636e-15
vn 0.848697 0 -0.528879
v 3029.21 79 -565.011
vt -37.2513 3.11024
vt -37.7131 3.11024
f 40/115/22 39/116/23 48/117/23 47/118/22 

vt -50.9763 1.77636e-15
vt -50.5145 1.77636e-15
vn 0.778305 0 -0.627887
v 3022.42 79 -574.571
vt -50.5145 3.11024
vt -50.9763 3.11024
f 39/119/23 38/120/24 49/121/24 48/122/23 

vt -63.4906 1.77636e-15
vt -63.0288 1.77636e-15
vn 0.696426 0 -0.717628
v 3014.51 79 -583.236
vt -63.0288 3.11024
vt -63.4906 3.11024
f 38/123/24 37/124/25 50/125/25 49/126/24 

vt -75.0714 1.77636e-15
vt -74.6096 1.77636e-15
vn 0.60427 0 -0.796779
v 3005.61 79 -590.879
vt -74.6096 3.11024
vt -75.0714 3.11024
f 37/127/25 36/128/26 51/129/26 50/130/25 

vt -85.5476 1.77636e-15
vt -85.0858 1.77636e-15
vn 0.503197 0 -0.864172
v 2995.85 79 -597.387
vt -85.0858 3.11024
vt -85.5476 3.11024
f 36/131/26 35/132/27 52/133/27 51/134/26 

vt -94.7648 1.77636e-15
vt -94.303 1.77636e-15
vn 0.394697 0 -0.918811
v 2985.38 79 -602.663
vt -94.303 3.11024
vt -94.7648 3.11024
f 35/135/27 34/136/28 53/137/28 52/138/27 

vt -102.587 1.77636e-15
vt -102.125 1.77636e-15
vn 0.280372 0 -0.959891
v 2974.34 79 -606.629
vt -102.125 3.11024
vt -102.587 3.11024
f 34/139/28 33/140/29 54/141/29 53/142/28 

vt -108.898 1.77636e-15
vt -108.437 1.77636e-15
vn 0.16191 0 -0.986805
v 2962.9 79 -609.228
vt -108.437 3.11024
vt -108.898 3.11024
f 33/143/29 32/144/30 55/145/30 54/146/29 

vt -113.606 1.77636e-15
vt -113.145 1.77636e-15
vn 0.0410587 0 -0.999157
v 2951.23 79 -610.421
vt -113.145 3.11024
vt -113.606 3.11024
f 32/147/30 31/148/31 56/149/31 55/150/30 

vt -116.641 1.77636e-15
vt -116.179 1.77636e-15
vn -0.0197064 0 -0.999806
vt -116.179 3.11024
vt -116.641 3.11024
f 31/151/31 30/152/32 44/153/32 56/154/31 

vt 115.728 24.0232
vt 113.72 16.8994
vt 119.765 20.9617
vt 119.649 21.4087
vt 119.48 21.8385
vt 119.26 22.2445
vt 118.993 22.6209
vt 118.681 22.9621
vt 118.331 23.263
vt 117.947 23.5192
vt 117.534 23.7269
vt 117.1 23.883
vt 116.65 23.9854
vt 116.19 24.0323
f 44/155/17 43/156/17 45/157/17 46/158/17 47/159/17 48/160/17 49/161/17 50/162/17 51/163/17 52/164/17 53/165/17 54/166/17 55/167/17 56/168/17 

