# Alias OBJ Model File
# Exported from SketchUp, (c) 2000-2012 Trimble Navigation Limited
# File units = millimeters

mtllib pp.mtl

g Mesh1 Model

usemtl FrontColor
v 3006.47 0 -568.799
vt -118.365 22.3937
vn 0 -1 -0
v 3024.1 0 -559.087
vt -119.059 22.0113
v 3007.82 0 -501.813
vt -118.418 19.7564
f 1/1/1 2/2/1 3/3/1

v 3063.81 0 -603.464
vt -120.622 23.7584
f 2/2/1 1/1/1 4/4/1

vt -115.515 0
vn -0.51739 0 -0.85575
vt -112.877 0
v 3006.47 21 -568.799
vt -112.877 0.826772
v 3063.81 21 -603.464
vt -115.515 0.826772
f 4/5/2 1/6/2 5/7/2 6/8/2 

vt -19.9984 0
vn -0.999796 0 0.020198
vt -17.3606 0
v 3007.82 21 -501.813
vt -17.3606 0.826772
vt -19.9984 0.826772
f 1/9/3 3/10/3 7/11/3 5/12/3 

vt 94.1976 0
vn -0.482406 0 0.875948
v 3066.51 0 -469.491
vt 96.8354 0
v 3066.51 21 -469.491
vt 96.8354 0.826772
vt 94.1976 0.826772
f 3/13/4 8/14/4 9/15/4 7/16/4 

v 3025.05 0 -512.228
vt -119.096 20.1665
vt -120.729 18.4839
f 3/3/1 10/17/1 8/18/1

f 10/17/1 3/3/1 2/2/1

vt 17.7568 0
vn 0.999796 0 -0.020198
vt 19.6021 0
v 3024.1 21 -559.087
vt 19.6021 0.826772
v 3025.05 21 -512.228
vt 17.7568 0.826772
f 10/19/5 2/20/5 11/21/5 12/22/5 

vt 113.273 0
vn 0.51739 0 0.85575
v 3064.21 0 -583.336
vt 115.119 0
v 3064.21 21 -583.336
vt 115.119 0.826772
vt 113.273 0.826772
f 2/23/6 13/24/6 14/25/6 11/26/6 

vt -120.638 22.966
f 2/2/1 4/4/1 13/27/1

v 3122.49 0 -571.143
vt -122.933 22.4859
f 13/27/1 4/4/1 15/28/1

vt -96.8354 0
vn 0.482406 0 -0.875948
vt -94.1976 0
vt -94.1976 0.826772
v 3122.49 21 -571.143
vt -96.8354 0.826772
f 15/29/7 4/30/7 6/31/7 16/32/7 

vt 120.622 23.7584
vn 0 1 -0
vt 120.638 22.966
vt 122.933 22.4859
f 6/33/8 14/34/8 16/35/8

vt 119.059 22.0113
f 6/33/8 11/36/8 14/34/8

vt 118.365 22.3937
f 5/37/8 11/36/8 6/33/8

vt 118.418 19.7564
f 11/36/8 5/37/8 7/38/8

vt 119.096 20.1665
f 7/38/8 12/39/8 11/36/8

vt 120.729 18.4839
f 12/39/8 7/38/8 9/40/8

v 3066.11 21 -489.619
vt 120.713 19.2763
f 12/39/8 9/40/8 17/41/8

v 3106.21 21 -513.868
vt 122.292 20.231
f 17/41/8 9/40/8 18/42/8

v 3123.85 21 -504.156
vt 122.986 19.8487
f 18/42/8 9/40/8 19/43/8

vt 112.877 0
v 3123.85 0 -504.156
vt 115.515 0
vt 115.515 0.826772
vt 112.877 0.826772
f 8/44/6 20/45/6 19/46/6 9/47/6 

v 3106.21 0 -513.868
vt -122.292 20.231
vt -122.986 19.8487
f 8/18/1 21/48/1 20/49/1

v 3066.11 0 -489.619
vt -120.713 19.2763
f 8/18/1 22/50/1 21/48/1

f 8/18/1 10/17/1 22/50/1

vt -96.4391 0
vt -94.5939 0
vt -94.5939 0.826772
vt -96.4391 0.826772
f 22/51/7 10/52/7 12/53/7 17/54/7 

vt -115.119 0
vt -113.273 0
vt -113.273 0.826772
vt -115.119 0.826772
f 21/55/2 22/56/2 17/57/2 18/58/2 

v 3105.27 0 -560.727
vt -19.6021 0
vt -17.7568 0
vt -17.7568 0.826772
v 3105.27 21 -560.727
vt -19.6021 0.826772
f 23/59/3 21/60/3 18/61/3 24/62/3 

vt -122.255 22.0759
f 23/63/1 15/28/1 21/48/1

f 13/27/1 15/28/1 23/63/1

vt 94.5939 0
vt 96.4391 0
vt 96.4391 0.826772
vt 94.5939 0.826772
f 13/64/4 23/65/4 24/66/4 14/67/4 

vt 122.255 22.0759
f 16/35/8 14/34/8 24/68/8

f 16/35/8 24/68/8 18/42/8

f 18/42/8 19/43/8 16/35/8

vt 17.3606 0
vt 19.9984 0
vt 19.9984 0.826772
vt 17.3606 0.826772
f 20/69/5 15/70/5 16/71/5 19/72/5 

f 20/49/1 21/48/1 15/28/1

g Mesh2 Model

v 2882.89 0 -485.564
vt -16.8203 0
v 2884.24 0 -418.578
vt -14.1825 0
v 2884.24 21 -418.578
vt -14.1825 0.826772
v 2882.89 21 -485.564
vt -16.8203 0.826772
f 25/73/3 26/74/3 27/75/3 28/76/3 

vt -113.499 19.1167
v 2900.52 0 -475.852
vt -114.194 18.7343
vt -113.553 16.4794
f 25/77/1 29/78/1 26/79/1

v 2940.22 0 -520.229
vt -115.757 20.4815
f 29/78/1 25/77/1 30/80/1

vt -109.656 0
vt -107.018 0
vt -107.018 0.826772
v 2940.22 21 -520.229
vt -109.656 0.826772
f 30/81/2 25/82/2 28/83/2 31/84/2 

vt 113.499 19.1167
v 2900.52 21 -475.852
vt 114.194 18.7343
vt 115.757 20.4815
f 28/85/8 32/86/8 31/87/8

vt 113.553 16.4794
f 32/86/8 28/85/8 27/88/8

v 2901.47 21 -428.994
vt 114.231 16.8895
f 27/88/8 33/89/8 32/86/8

v 2942.93 21 -386.257
vt 115.863 15.207
f 33/89/8 27/88/8 34/90/8

vt 91.5165 0
v 2942.93 0 -386.257
vt 94.1543 0
vt 94.1543 0.826772
vt 91.5165 0.826772
f 26/91/4 35/92/4 34/93/4 27/94/4 

v 2901.47 0 -428.994
vt -114.231 16.8895
vt -115.863 15.207
f 26/79/1 36/95/1 35/96/1

f 36/95/1 26/79/1 29/78/1

vt 14.5788 0
vt 16.424 0
vt 16.424 0.826772
vt 14.5788 0.826772
f 36/97/5 29/98/5 32/99/5 33/100/5 

vt 107.414 0
v 2940.63 0 -500.102
vt 109.259 0
v 2940.63 21 -500.102
vt 109.259 0.826772
vt 107.414 0.826772
f 29/101/6 37/102/6 38/103/6 32/104/6 

vt -115.773 19.689
f 29/78/1 30/80/1 37/105/1

v 2998.91 0 -487.908
vt -118.067 19.209
f 37/105/1 30/80/1 39/106/1

vt -94.1543 0
vt -91.5165 0
vt -91.5165 0.826772
v 2998.91 21 -487.908
vt -94.1543 0.826772
f 39/107/7 30/108/7 31/109/7 40/110/7 

vt 115.773 19.689
vt 118.067 19.209
f 31/87/8 38/111/8 40/112/8

f 31/87/8 32/86/8 38/111/8

v 2981.68 21 -477.492
vt 117.389 18.7989
f 40/112/8 38/111/8 41/113/8

vt 91.9128 0
v 2981.68 0 -477.492
vt 93.758 0
vt 93.758 0.826772
vt 91.9128 0.826772
f 37/114/4 42/115/4 41/116/4 38/117/4 

vt -117.389 18.7989
f 37/105/1 39/106/1 42/118/1

v 2982.63 0 -430.633
vt -117.426 16.9541
f 42/118/1 39/106/1 43/119/1

v 3000.26 0 -420.922
vt -118.121 16.5717
f 44/120/1 43/119/1 39/106/1

f 35/96/1 43/119/1 44/120/1

v 2942.52 0 -406.384
vt -115.847 15.9994
f 35/96/1 45/121/1 43/119/1

f 35/96/1 36/95/1 45/121/1

vt -93.758 0
vt -91.9128 0
vt -91.9128 0.826772
v 2942.52 21 -406.384
vt -93.758 0.826772
f 45/122/7 36/123/7 33/124/7 46/125/7 

vt 115.847 15.9994
f 33/89/8 34/90/8 46/126/8

v 2982.63 21 -430.633
vt 117.426 16.9541
f 46/126/8 34/90/8 47/127/8

v 3000.26 21 -420.922
vt 118.121 16.5717
f 47/127/8 34/90/8 48/128/8

vt 107.018 0
vt 109.656 0
vt 109.656 0.826772
vt 107.018 0.826772
f 35/129/6 44/130/6 48/131/6 34/132/6 

vt 14.1825 0
vt 16.8203 0
vt 16.8203 0.826772
vt 14.1825 0.826772
f 44/133/5 39/134/5 40/135/5 48/136/5 

f 47/127/8 48/128/8 40/112/8

f 40/112/8 41/113/8 47/127/8

vt -16.424 0
vt -14.5788 0
vt -14.5788 0.826772
vt -16.424 0.826772
f 42/137/3 43/138/3 47/139/3 41/140/3 

vt -109.259 0
vt -107.414 0
vt -107.414 0.826772
vt -109.259 0.826772
f 43/141/2 45/142/2 46/143/2 47/144/2 

