# Alias OBJ Model File
# Exported from SketchUp, (c) 2000-2012 Trimble Navigation Limited
# File units = millimeters

mtllib tt.mtl

g Mesh1 Component_3_1 Model

usemtl FrontColor
v 3337.13 0 -694.159
vt -1.47624 -3.0687
vn -0.885912 -0.414933 0.207341
v 3256.31 182 -675.244
vt -1.90276 4.79504
vn -4.60361e-16 -1 8.25282e-16
v 3329.48 0 -714.431
vt -2.32928 -3.0687
vn -0.802062 -0.414933 0.429567
f 1/1/1 2/2/2 3/3/3

v 3339.27 0 -672.598
vt -2.50071 -2.80673
vn -0.909389 -0.414933 -0.0290148
vt -2.92723 5.05701
vn -5.27731e-16 -1 6.90542e-16
vt -3.35376 -2.80673
f 4/4/4 2/5/5 1/6/1

v 3335.76 0 -651.217
vt -3.3257 -2.44444
vn -0.870893 -0.414933 -0.263393
vt -3.75222 5.4193
vn -3.70535e-16 -1 8.42124e-16
vt -4.17874 -2.44444
f 5/7/6 2/8/7 4/9/4

v 3326.83 0 -631.473
vt -3.89498 -2.00653
vn -0.773047 -0.414933 -0.479822
vt -4.3215 5.85721
vn -3.59306e-16 -1 7.35455e-16
vt -4.74803 -2.00653
f 6/10/8 2/11/9 5/12/6

v 3313.1 0 -614.713
vt -4.16976 -1.52283
vn -0.622519 -0.414933 -0.663552
vt -4.59628 6.3409
vn -4.26676e-16 -1 7.07385e-16
vt -5.0228 -1.52283
f 7/13/10 2/14/11 6/15/8

v 3295.5 0 -602.078
vt -4.13131 -1.02632
vn -0.429567 -0.414933 -0.802062
vt -4.55783 6.83742
vn -4.0422e-16 -1 7.74754e-16
vt -4.98435 -1.02632
f 8/16/12 2/17/13 7/18/10

v 3275.22 0 -594.428
vt -3.78225 -0.550828
vn -0.207341 -0.414933 -0.885912
vt -4.20877 7.31291
vn -4.43519e-16 -1 8.08439e-16
vt -4.63529 -0.550828
f 9/19/14 2/20/15 8/21/12

v 3253.66 0 -592.287
vt -3.14637 -0.128757
vn 0.0290148 -0.414933 -0.909389
vt -3.57289 7.73498
vn -4.19659e-16 -1 8.53353e-16
vt -3.99941 -0.128757
f 10/22/16 2/23/17 9/24/14

v 3232.28 0 -595.798
vt -2.267 0.211128
vn 0.263393 -0.414933 -0.870893
vt -2.69352 8.07486
vn -4.26676e-16 -1 7.85983e-16
vt -3.12004 0.211128
f 11/25/18 2/26/19 10/27/16

v 3212.54 0 -604.724
vt -1.20407 0.445664
vn 0.479822 -0.414933 -0.773047
vt -1.63059 8.3094
vn -3.48078e-16 -1 8.30896e-16
vt -2.05712 0.445664
f 12/28/20 2/29/21 11/30/18

v 3195.78 0 -618.456
vt -0.0300235 0.558869
vn 0.663552 -0.414933 -0.622519
vt -0.456546 8.42261
vn -4.94046e-16 -1 7.63526e-16
vt -0.883069 0.558869
f 13/31/22 2/32/23 12/33/20

v 3183.14 0 -636.058
vt 1.17514 0.543027
vn 0.802062 -0.414933 -0.429567
vt 0.748615 8.40676
vn -3.59306e-16 -1 8.30896e-16
vt 0.322093 0.543027
f 14/34/24 2/35/25 13/36/22

v 3175.49 0 -656.33
vt 2.32928 0.399219
vn 0.885912 -0.414933 -0.207341
vt 1.90276 8.26296
vn -5.05275e-16 -1 1.04985e-15
vt 1.47624 0.399219
f 15/37/26 2/38/27 14/39/24

v 3173.35 0 -677.891
vt 3.35376 0.137244
vn 0.909389 -0.414933 0.0290148
vt 2.92723 8.00098
vn -5.16503e-16 -1 8.98266e-16
vt 2.50071 0.137244
f 16/40/28 2/41/29 15/42/26

v 3176.86 0 -699.272
vt 4.17874 -0.225044
vn 0.870893 -0.414933 0.263393
vt 3.75222 7.63869
vn -5.16503e-16 -1 9.74057e-16
vt 3.3257 -0.225044
f 17/43/30 2/44/31 16/45/28

v 3185.79 0 -719.016
vt 4.74803 -0.662956
vn 0.773047 -0.414933 0.479822
vt 4.3215 7.20078
vn -4.15448e-16 -1 8.81424e-16
vt 3.89498 -0.662956
f 18/46/32 2/47/33 17/48/30

v 3199.52 0 -735.776
vt 5.0228 -1.14665
vn 0.622519 -0.414933 0.663552
vt 4.59628 6.71709
vn -5.05275e-16 -1 9.43179e-16
vt 4.16976 -1.14665
f 19/49/34 2/50/35 18/51/32

v 3217.12 0 -748.411
vt 4.98435 -1.64316
vn 0.429567 -0.414933 0.802062
vt 4.55783 6.22058
vn -5.05275e-16 -1 7.85983e-16
vt 4.13131 -1.64316
f 20/52/36 2/53/37 19/54/34

v 3237.4 0 -756.061
vt 4.63529 -2.11865
vn 0.207341 -0.414933 0.885912
vt 4.20877 5.74508
vn -4.82818e-16 -1 7.97211e-16
vt 3.78225 -2.11865
f 21/55/38 2/56/39 20/57/36

v 3258.96 0 -758.202
vt 3.99941 -2.54072
vn -0.0290148 -0.414933 0.909389
vt 3.57289 5.32301
vn -4.57554e-16 -1 7.85983e-16
vt 3.14637 -2.54072
f 22/58/40 2/59/41 21/60/38

v 3280.34 0 -754.69
vt 3.12004 -2.88061
vn -0.263393 -0.414933 0.870893
vt 2.69352 4.98313
vn -5.97908e-16 -1 7.85983e-16
vt 2.267 -2.88061
f 23/61/42 2/62/43 22/63/40

v 3300.08 0 -745.765
vt 2.05712 -3.11515
vn -0.479822 -0.414933 0.773047
vt 1.63059 4.74859
vn -4.9966e-16 -1 7.41069e-16
vt 1.20407 -3.11515
f 24/64/44 2/65/45 23/66/42

v 3316.84 0 -732.033
vt 0.883069 -3.22835
vn -0.663552 -0.414933 0.622519
vt 0.456546 4.63539
vn -5.3896e-16 -1 7.29841e-16
vt 0.0300235 -3.22835
f 25/67/46 2/68/47 24/69/44

vt -0.322093 -3.21251
vt -0.748615 4.65123
vn -5.16503e-16 -1 8.42124e-16
vt -1.17514 -3.21251
f 3/70/3 2/71/48 25/72/46

g Mesh2 Model

v 3005.6 0 -697.948
vt -93.8353 0
vn -0.707107 0 -0.707107
v 2992.1 0 -680.344
vt -92.9617 0
vn -0.866025 0 -0.5
v 2992.1 225 -680.344
vt -92.9617 8.85827
v 3005.6 225 -697.948
vt -93.8353 8.85827
f 26/73/49 27/74/50 28/75/50 29/76/49 

v 3108.21 0 -711.456
vt -122.37 28.0101
vn 0 -1 -0
v 3125.81 0 -697.948
vt -123.063 27.4783
v 3139.32 0 -680.344
vt -123.595 26.7852
v 3147.81 0 -659.844
vt -123.93 25.9781
v 3150.71 0 -637.844
vt -124.044 25.112
v 3147.81 0 -615.845
vt -123.93 24.2459
v 3139.32 0 -595.344
vt -123.595 23.4388
v 3125.81 0 -577.74
vt -123.063 22.7457
v 3108.21 0 -564.232
vt -122.37 22.2139
v 3087.71 0 -555.741
vt -121.563 21.8796
v 3065.71 0 -552.844
vt -120.697 21.7655
v 3043.71 0 -555.741
vt -119.831 21.8796
v 3023.21 0 -564.232
vt -119.024 22.2139
v 3005.6 0 -577.74
vt -118.331 22.7457
v 2992.1 0 -595.344
vt -117.799 23.4388
v 2983.6 0 -615.845
vt -117.465 24.2459
v 2980.71 0 -637.844
vt -117.351 25.112
v 2983.6 0 -659.844
vt -117.465 25.9781
vt -117.799 26.7852
vt -118.331 27.4783
v 3023.21 0 -711.456
vt -119.024 28.0101
v 3043.71 0 -719.948
vt -119.831 28.3444
v 3065.71 0 -722.844
vt -120.697 28.4584
v 3087.71 0 -719.948
vt -121.563 28.3444
f 30/77/51 31/78/51 32/79/51 33/80/51 34/81/51 35/82/51 36/83/51 37/84/51 38/85/51 39/86/51 40/87/51 41/88/51 42/89/51 43/90/51 44/91/51 45/92/51 46/93/51 47/94/51 27/95/51 26/96/51 48/97/51 49/98/51 50/99/51 51/100/51 

vt -80.9051 0
vn 0.707107 0 -0.707107
vt -80.0315 0
vn 0.5 0 -0.866025
v 3108.21 225 -711.456
vt -80.0315 8.85827
v 3125.81 225 -697.948
vt -80.9051 8.85827
f 31/101/52 30/102/53 52/103/53 53/104/52 

vt -102.337 0
vt -101.463 0
vn 0.258819 0 -0.965926
v 3087.71 225 -719.948
vt -101.463 8.85827
vt -102.337 8.85827
f 30/105/53 51/106/54 54/107/54 52/108/53 

vt -116.824 0
vt -115.95 0
vn 0 0 -1
v 3065.71 225 -722.844
vt -115.95 8.85827
vt -116.824 8.85827
f 51/109/54 50/110/55 55/111/55 54/112/54 

vt -123.379 0
vt -122.506 0
vn -0.258819 0 -0.965926
v 3043.71 225 -719.948
vt -122.506 8.85827
vt -123.379 8.85827
f 50/113/55 49/114/56 56/115/56 55/116/55 

vt -121.556 0
vt -120.683 0
vn -0.5 0 -0.866025
v 3023.21 225 -711.456
vt -120.683 8.85827
vt -121.556 8.85827
f 49/117/56 48/118/57 57/119/57 56/120/56 

vt -111.48 0
vt -110.606 0
vt -110.606 8.85827
vt -111.48 8.85827
f 48/121/57 26/122/49 29/123/49 57/124/57 

vt 123.063 27.4783
vn 0 1 -0
vt 122.37 28.0101
vt 121.563 28.3444
vt 120.697 28.4584
vt 119.831 28.3444
vt 119.024 28.0101
vt 118.331 27.4783
vt 117.799 26.7852
v 2983.6 225 -659.844
vt 117.465 25.9781
v 2980.71 225 -637.844
vt 117.351 25.112
v 2983.6 225 -615.845
vt 117.465 24.2459
v 2992.1 225 -595.344
vt 117.799 23.4388
v 3005.6 225 -577.74
vt 118.331 22.7457
v 3023.21 225 -564.232
vt 119.024 22.2139
v 3043.71 225 -555.741
vt 119.831 21.8796
v 3065.71 225 -552.844
vt 120.697 21.7655
v 3087.71 225 -555.741
vt 121.563 21.8796
v 3108.21 225 -564.232
vt 122.37 22.2139
v 3125.81 225 -577.74
vt 123.063 22.7457
v 3139.32 225 -595.344
vt 123.595 23.4388
v 3147.81 225 -615.845
vt 123.93 24.2459
v 3150.71 225 -637.844
vt 124.044 25.112
v 3147.81 225 -659.844
vt 123.93 25.9781
v 3139.32 225 -680.344
vt 123.595 26.7852
f 53/125/58 52/126/58 54/127/58 55/128/58 56/129/58 57/130/58 29/131/58 28/132/58 58/133/58 59/134/58 60/135/58 61/136/58 62/137/58 63/138/58 64/139/58 65/140/58 66/141/58 67/142/58 68/143/58 69/144/58 70/145/58 71/146/58 72/147/58 73/148/58 

vt -69.8261 0
vt -68.9525 0
vn -0.965926 0 -0.258819
vt -68.9525 8.85827
vt -69.8261 8.85827
f 27/149/50 47/150/59 58/151/59 28/152/50 

vt -41.0881 0
vt -40.2145 0
vn -1 0 2.65953e-16
vt -40.2145 8.85827
vt -41.0881 8.85827
f 47/153/59 46/154/60 59/155/60 58/156/59 

vt -9.5798 0
vt -8.7062 0
vn -0.965926 0 0.258819
vt -8.7062 8.85827
vt -9.5798 8.85827
f 46/157/60 45/158/61 60/159/61 59/160/60 

vt 22.5516 0
vt 23.4252 0
vn -0.866025 0 0.5
vt 23.4252 8.85827
vt 22.5516 8.85827
f 45/161/61 44/162/62 61/163/62 60/164/61 

vt 53.1163 0
vt 53.9899 0
vn -0.707107 0 0.707107
vt 53.9899 8.85827
vt 53.1163 8.85827
f 44/165/62 43/166/63 62/167/63 61/168/62 

vt 80.0315 0
vt 80.9051 0
vn -0.5 0 0.866025
vt 80.9051 8.85827
vt 80.0315 8.85827
f 43/169/63 42/170/64 63/171/64 62/172/63 

vt 101.463 0
vt 102.337 0
vn -0.258819 0 0.965926
vt 102.337 8.85827
vt 101.463 8.85827
f 42/173/64 41/174/65 64/175/65 63/176/64 

vt 115.95 0
vt 116.824 0
vn 1.06381e-15 0 1
vt 116.824 8.85827
vt 115.95 8.85827
f 41/177/65 40/178/66 65/179/66 64/180/65 

vt 122.506 0
vt 123.379 0
vn 0.258819 0 0.965926
vt 123.379 8.85827
vt 122.506 8.85827
f 40/181/66 39/182/67 66/183/67 65/184/66 

vt 120.683 0
vt 121.556 0
vn 0.5 0 0.866025
vt 121.556 8.85827
vt 120.683 8.85827
f 39/185/67 38/186/68 67/187/68 66/188/67 

vt 110.606 0
vt 111.48 0
vn 0.707107 0 0.707107
vt 111.48 8.85827
vt 110.606 8.85827
f 38/189/68 37/190/69 68/191/69 67/192/68 

vt 92.9617 0
vt 93.8353 0
vn 0.866025 0 0.5
vt 93.8353 8.85827
vt 92.9617 8.85827
f 37/193/69 36/194/70 69/195/70 68/196/69 

vt 68.9525 0
vt 69.8261 0
vn 0.965926 0 0.258819
vt 69.8261 8.85827
vt 68.9525 8.85827
f 36/197/70 35/198/71 70/199/71 69/200/70 

vt 40.2145 0
vt 41.0881 0
vn 1 0 -2.65953e-16
vt 41.0881 8.85827
vt 40.2145 8.85827
f 35/201/71 34/202/72 71/203/72 70/204/71 

vt 8.7062 0
vt 9.5798 0
vn 0.965926 0 -0.258819
vt 9.5798 8.85827
vt 8.7062 8.85827
f 34/205/72 33/206/73 72/207/73 71/208/72 

vt -23.4252 0
vt -22.5516 0
vn 0.866025 0 -0.5
vt -22.5516 8.85827
vt -23.4252 8.85827
f 33/209/73 32/210/74 73/211/74 72/212/73 

vt -53.9899 0
vt -53.1163 0
vt -53.1163 8.85827
vt -53.9899 8.85827
f 32/213/74 31/214/52 53/215/52 73/216/74 

