# Alias OBJ Model File
# Exported from SketchUp, (c) 2000-2012 Trimble Navigation Limited
# File units = millimeters

mtllib w.mtl

g Mesh1 Component_3_1 Model

usemtl FrontColor
v 1869.64 60.89 -775.461
vt -1.47624 -3.0687
vn -0.885912 -0.414933 0.207341
v 1788.83 242.89 -756.547
vt -1.90276 4.79504
vn -4.37905e-16 -1 7.74754e-16
v 1862 60.89 -795.733
vt -2.32928 -3.0687
vn -0.802062 -0.414933 0.429567
f 1/1/1 2/2/2 3/3/3

v 1871.79 60.89 -753.9
vt -2.50071 -2.80673
vn -0.909389 -0.414933 -0.0290148
vt -2.92723 5.05701
vn -4.37905e-16 -1 8.25282e-16
vt -3.35376 -2.80673
f 4/4/4 2/5/5 1/6/1

v 1868.27 60.89 -732.519
vt -3.3257 -2.44444
vn -0.870893 -0.414933 -0.263393
vt -3.75222 5.4193
vn -3.48078e-16 -1 8.58967e-16
vt -4.17874 -2.44444
f 5/7/6 2/8/7 4/9/4

v 1859.35 60.89 -712.776
vt -3.89498 -2.00653
vn -0.773047 -0.414933 -0.479822
vt -4.3215 5.85721
vn -3.14393e-16 -1 6.90542e-16
vt -4.74803 -2.00653
f 6/10/8 2/11/9 5/12/6

v 1845.62 60.89 -696.015
vt -4.16976 -1.52283
vn -0.622519 -0.414933 -0.663552
vt -4.59628 6.3409
vn -4.26676e-16 -1 8.42124e-16
vt -5.0228 -1.52283
f 7/13/10 2/14/11 6/15/8

v 1828.02 60.89 -683.38
vt -4.13131 -1.02632
vn -0.429567 -0.414933 -0.802062
vt -4.55783 6.83742
vn -3.59306e-16 -1 7.74754e-16
vt -4.98435 -1.02632
f 8/16/12 2/17/13 7/18/10

v 1807.74 60.89 -675.731
vt -3.78225 -0.550828
vn -0.207341 -0.414933 -0.885912
vt -4.20877 7.31291
vn -3.98606e-16 -1 7.85983e-16
vt -4.63529 -0.550828
f 9/19/14 2/20/15 8/21/12

v 1786.18 60.89 -673.589
vt -3.14637 -0.128757
vn 0.0290148 -0.414933 -0.909389
vt -3.57289 7.73498
vn -4.21062e-16 -1 8.30896e-16
vt -3.99941 -0.128757
f 10/22/16 2/23/17 9/24/14

v 1764.8 60.89 -677.101
vt -2.267 0.211128
vn 0.263393 -0.414933 -0.870893
vt -2.69352 8.07486
vn -2.0211e-16 -1 8.75809e-16
vt -3.12004 0.211128
f 11/25/18 2/26/19 10/27/16

v 1745.06 60.89 -686.027
vt -1.20407 0.445664
vn 0.479822 -0.414933 -0.773047
vt -1.63059 8.3094
vn -3.14393e-16 -1 7.85983e-16
vt -2.05712 0.445664
f 12/28/20 2/29/21 11/30/18

v 1728.3 60.89 -699.758
vt -0.0300235 0.558869
vn 0.663552 -0.414933 -0.622519
vt -0.456546 8.42261
vn -2.6948e-16 -1 8.08439e-16
vt -0.883069 0.558869
f 13/31/22 2/32/23 12/33/20

v 1715.66 60.89 -717.36
vt 1.17514 0.543027
vn 0.802062 -0.414933 -0.429567
vt 0.748615 8.40676
vt 0.322093 0.543027
f 14/34/24 2/35/21 13/36/22

v 1708.01 60.89 -737.632
vt 2.32928 0.399219
vn 0.885912 -0.414933 -0.207341
vt 1.90276 8.26296
vn -3.03165e-16 -1 6.90542e-16
vt 1.47624 0.399219
f 15/37/25 2/38/26 14/39/24

v 1705.87 60.89 -759.194
vt 3.35376 0.137244
vn 0.909389 -0.414933 0.0290148
vt 2.92723 8.00098
vn -4.94046e-16 -1 7.2142e-16
vt 2.50071 0.137244
f 16/40/27 2/41/28 15/42/25

v 1709.38 60.89 -780.574
vt 4.17874 -0.225044
vn 0.870893 -0.414933 0.263393
vt 3.75222 7.63869
vn -4.94046e-16 -1 7.97211e-16
vt 3.3257 -0.225044
f 17/43/29 2/44/30 16/45/27

v 1718.31 60.89 -800.318
vt 4.74803 -0.662956
vn 0.773047 -0.414933 0.479822
vt 4.3215 7.20078
vn -4.15448e-16 -1 7.0177e-16
vt 3.89498 -0.662956
f 18/46/31 2/47/32 17/48/29

v 1732.04 60.89 -817.078
vt 5.0228 -1.14665
vn 0.622519 -0.414933 0.663552
vt 4.59628 6.71709
vn -5.05275e-16 -1 7.63526e-16
vt 4.16976 -1.14665
f 19/49/33 2/50/34 18/51/31

v 1749.64 60.89 -829.714
vt 4.98435 -1.64316
vn 0.429567 -0.414933 0.802062
vt 4.55783 6.22058
vn -4.60361e-16 -1 7.41069e-16
vt 4.13131 -1.64316
f 20/52/35 2/53/36 19/54/33

v 1769.91 60.89 -837.363
vt 4.63529 -2.11865
vn 0.207341 -0.414933 0.885912
vt 4.20877 5.74508
vn -4.7159e-16 -1 7.52298e-16
vt 3.78225 -2.11865
f 21/55/37 2/56/38 20/57/35

v 1791.48 60.89 -839.505
vt 3.99941 -2.54072
vn -0.0290148 -0.414933 0.909389
vt 3.57289 5.32301
vn -4.46326e-16 -1 7.18613e-16
vt 3.14637 -2.54072
f 22/58/39 2/59/40 21/60/37

v 1812.86 60.89 -835.993
vt 3.12004 -2.88061
vn -0.263393 -0.414933 0.870893
vt 2.69352 4.98313
vn -5.8668e-16 -1 8.08439e-16
vt 2.267 -2.88061
f 23/61/41 2/62/42 22/63/39

v 1832.6 60.89 -827.067
vt 2.05712 -3.11515
vn -0.479822 -0.414933 0.773047
vt 1.63059 4.74859
vn -4.88432e-16 -1 7.63526e-16
vt 1.20407 -3.11515
f 24/64/43 2/65/44 23/66/41

v 1849.36 60.89 -813.335
vt 0.883069 -3.22835
vn -0.663552 -0.414933 0.622519
vt 0.456546 4.63539
vn -5.16503e-16 -1 7.74754e-16
vt 0.0300235 -3.22835
f 25/67/45 2/68/46 24/69/43

vt -0.322093 -3.21251
vt -0.748615 4.65123
vt -1.17514 -3.21251
f 3/70/3 2/71/30 25/72/45

g Mesh2 Model

v 1920.5 149.297 -857.413
vt -27.2878 5.87785
vn 0.768087 0 -0.640345
v 1912.46 149.297 -865.949
vt -26.826 5.87785
vn 0.684773 0 -0.728756
v 1912.46 228.297 -865.949
vt -26.826 8.98809
v 1920.5 228.297 -857.413
vt -27.2878 8.98809
f 26/73/47 27/74/48 28/75/48 29/76/47 

v 1750.31 149.297 -758.063
vt -68.9098 29.845
vn 0 -1 -0
v 1893.57 149.297 -879.797
vt -74.5501 34.6377
v 1903.44 149.297 -873.448
vt -74.9384 34.3877
vt -75.2936 34.0925
vt -75.6103 33.7564
v 1927.45 149.297 -847.963
vt -75.8839 33.3844
v 1933.2 149.297 -837.741
vt -76.1104 32.9819
v 1937.68 149.297 -826.896
vt -76.2865 32.555
v 1940.8 149.297 -815.59
vt -76.4094 32.1098
v 1942.53 149.297 -803.988
vt -76.4775 31.6531
v 1942.84 149.297 -792.261
vt -76.4897 31.1914
v 1941.72 149.297 -780.584
vt -76.4458 30.7317
v 1939.2 149.297 -769.129
vt -76.3465 30.2807
v 1935.31 149.297 -758.063
vt -76.1932 29.845
f 30/77/49 31/78/49 32/79/49 27/80/49 26/81/49 33/82/49 34/83/49 35/84/49 36/85/49 37/86/49 38/87/49 39/88/49 40/89/49 41/90/49 

vt -79.2394 5.87785
vn -0.647521 0 -0.762048
vt -71.8378 5.87785
v 1750.31 228.297 -758.063
vt -71.8378 8.98809
v 1893.57 228.297 -879.797
vt -79.2394 8.98809
f 31/91/50 30/92/50 42/93/50 43/94/50 

vt 68.9098 5.87785
vn 0 0 1
vt 76.1932 5.87785
v 1935.31 228.297 -758.063
vt 76.1932 8.98809
vt 68.9098 8.98809
f 30/95/51 41/96/51 44/97/51 42/98/51 

vt 53.4393 5.87785
vn 0.943328 0 0.331862
vt 53.9011 5.87785
vn 0.961744 0 0.273951
v 1939.2 228.297 -769.129
vt 53.9011 8.98809
vt 53.4393 8.98809
f 41/99/52 40/100/53 45/101/53 44/102/52 

vt 45.989 5.87785
vt 46.4508 5.87785
vn 0.987865 0 0.155312
v 1941.72 228.297 -780.584
vt 46.4508 8.98809
vt 45.989 8.98809
f 40/103/53 39/104/54 46/105/54 45/106/53 

vt 37.8566 5.87785
vt 38.3185 5.87785
vn 0.999409 0 0.0343808
v 1942.84 228.297 -792.261
vt 38.3185 8.98809
vt 37.8566 8.98809
f 39/107/54 38/108/55 47/109/55 46/110/54 

vt 29.1622 5.87785
vt 29.624 5.87785
vn 0.996203 0 -0.087058
v 1942.53 228.297 -803.988
vt 29.624 8.98809
vt 29.1622 8.98809
f 38/111/55 37/112/56 48/113/56 47/114/55 

vt 20.0339 5.87785
vt 20.4958 5.87785
vn 0.978296 0 -0.207212
v 1940.8 228.297 -815.59
vt 20.4958 8.98809
vt 20.0339 8.98809
f 37/115/56 36/116/57 49/117/57 48/118/56 

vt 10.6066 5.87785
vt 11.0685 5.87785
vn 0.945952 0 -0.324308
v 1937.68 228.297 -826.896
vt 11.0685 8.98809
vt 10.6066 8.98809
f 36/119/57 35/120/58 50/121/58 49/122/57 

vt 1.01941 5.87785
vt 1.48123 5.87785
vn 0.899647 0 -0.436618
v 1933.2 228.297 -837.741
vt 1.48123 8.98809
vt 1.01941 8.98809
f 35/123/58 34/124/59 51/125/59 50/126/58 

vt -8.58628 5.87785
vt -8.12446 5.87785
vn 0.840066 0 -0.542485
v 1927.45 228.297 -847.963
vt -8.12446 8.98809
vt -8.58628 8.98809
f 34/127/59 33/128/60 52/129/60 51/130/59 

vt -18.0687 5.87785
vt -17.6068 5.87785
vt -17.6068 8.98809
vt -18.0687 8.98809
f 33/131/60 26/132/47 29/133/47 52/134/60 

vt 74.5501 34.6377
vn 0 1 -0
vt 68.9098 29.845
vt 76.1932 29.845
vt 76.3465 30.2807
vt 76.4458 30.7317
vt 76.4897 31.1914
vt 76.4775 31.6531
vt 76.4094 32.1098
vt 76.2865 32.555
vt 76.1104 32.9819
vt 75.8839 33.3844
vt 75.6103 33.7564
vt 75.2936 34.0925
v 1903.44 228.297 -873.448
vt 74.9384 34.3877
f 43/135/61 42/136/61 44/137/61 45/138/61 46/139/61 47/140/61 48/141/61 49/142/61 50/143/61 51/144/61 52/145/61 29/146/61 28/147/61 53/148/61 

vt -36.1076 5.87785
vt -35.6458 5.87785
vn 0.591354 0 -0.806412
vt -35.6458 8.98809
vt -36.1076 8.98809
f 27/149/48 32/150/62 53/151/62 28/152/48 

vt -44.398 5.87785
vt -43.9362 5.87785
vn 0.54128 0 -0.840842
vt -43.9362 8.98809
vt -44.398 8.98809
f 32/153/62 31/154/63 43/155/63 53/156/62 

