# Alias OBJ Model File
# Exported from SketchUp, (c) 2000-2012 Trimble Navigation Limited
# File units = inches

mtllib 44.mtl

g Mesh1 Model

usemtl FrontColor
v 1685.25 -677.466 -0
vt 1685.25 -677.466
vn 0 0 1
v 1752.24 -642.953 -0
vt 1752.24 -642.953
v 1755.86 -567.674 -0
vt 1755.86 -567.674
f 1/1/1 2/2/1 3/3/1

vt 6.18698e-14 1263.2
vn 0.457988 -0.888958 1.61711e-17
vt 5.95045e-14 1187.85
v 1685.25 -677.466 -185
vt 185 1187.85
f 2/4/2 1/5/2 4/6/2

v 1621.86 -636.699 -185
vt -185 -1708.51
vn -0.540911 -0.84108 1.70873e-17
vt -185 -1783.88
vt 5.32369e-14 -1783.88
f 5/7/3 4/8/3 1/9/3

v 1752.24 -642.953 -185
vt -1752.24 -642.953
vn 0 0 -1
vt -1685.25 -677.466
vt -1621.86 -636.699
f 6/10/4 4/11/4 5/12/4

vn 0.457988 -0.888958 -1.61711e-17
vt 185 1263.2
vt -6.18698e-14 1263.2
f 4/6/5 6/13/5 2/14/5

vt 3.16177e-15 -482.681
vn 0.998846 -0.0480322 1.79862e-18
vt 3.15525e-15 -558.047
vt 185 -558.047
f 3/15/6 2/16/6 6/17/6

vn 0.998846 -0.0480322 -3.59723e-18
v 1755.86 -567.674 -185
vt 185 -482.681
vt -6.32354e-15 -482.681
f 6/17/7 7/18/7 3/19/7

v 1692.47 -526.907 -185
vt -1692.47 -526.907
vt -1755.86 -567.674
f 8/20/4 7/21/4 6/10/4

vt 185 -1783.88
vn 0.540911 0.84108 1.70873e-17
vt 185 -1708.51
v 1692.47 -526.907 -0
vt 5.34649e-14 -1708.51
f 7/22/8 8/23/8 9/24/8

v 1625.47 -561.419 -0
vt 5.73868e-14 1187.94
vn -0.457924 0.888991 1.61669e-17
vt 5.97522e-14 1263.31
vt -185 1263.31
f 10/25/9 9/26/9 8/27/9

vt 1692.47 -526.907
vt 1625.47 -561.419
f 9/28/1 10/29/1 1/1/1

v 1621.86 -636.699 -0
vt 1621.86 -636.699
f 10/29/1 11/30/1 1/1/1

vt -2.9204e-15 -558.283
vn -0.998852 0.0478991 -1.79858e-18
vt -2.9269e-15 -482.916
v 1625.47 -561.419 -185
vt -185 -482.916
f 11/31/10 10/32/10 12/33/10

vn -0.457924 0.888991 -0
vt -185 1187.94
vt 0 1187.94
f 8/27/11 12/34/11 10/35/11

vt -1625.47 -561.419
f 12/36/4 8/20/4 6/10/4

f 5/12/4 12/36/4 6/10/4

vn -0.998852 0.0478991 1.79858e-18
vt -185 -558.283
vt 2.9204e-15 -558.283
f 12/33/12 5/37/12 11/38/12

vt 0 -1783.88
vn -0.540911 -0.84108 -0
vt 0 -1708.51
f 1/39/13 11/40/13 5/7/13

f 3/3/1 9/28/1 1/1/1

vn 0.540911 0.84108 -0
f 9/40/14 3/39/14 7/22/14

g Mesh2 Model

v 1824.29 -475.941 -78.2714
vt -80.2966 1403.54
vn -0.458078 0.888912 -0.000508551
v 1834.75 -470.554 -83.9602
vt -85.9971 1415.3
v 1843.55 -466.024 -92.5
vt -94.5466 1425.19
f 13/41/15 14/42/15 15/43/15

vt 1718.79 -590.162
vn 0.386972 0.199339 0.900287
vt 1706.93 -595.66
v 1990.98 -799.533 -78.2714
vt 1860.08 -925.879
f 14/44/16 13/45/16 16/46/16

v 1979.57 -805.411 -75.8214
vt 1964.36 -824.454
vn 0.166682 0.0858621 0.982265
vt 1976.02 -818.554
vt 1811.68 -493.763
f 17/47/17 16/48/17 13/49/17

v 2001.44 -794.145 -83.9602
vt 84.5816 1415.47
vn 0.457987 -0.888959 0.000142198
vt 78.8896 1403.71
vt 76.436 1390.87
f 18/50/18 16/51/18 17/52/18

vt 1860.09 -925.871
vn 0.38696 0.199333 0.900294
vt 1871.94 -920.372
vt 1718.8 -590.155
f 16/53/19 18/54/19 14/55/19

vt 1519.09 -758.381
vn 0.580742 0.299155 0.757129
vt 1506.91 -763.129
vt 1639.18 -1102.25
f 15/56/20 14/57/20 18/58/20

vt 1638.64 -1102.61
vn 0.581065 0.299303 0.756823
v 2010.23 -789.616 -92.5
vt 1650.82 -1097.86
vt 1518.61 -758.725
f 18/59/21 19/60/21 15/61/21

v 2016.76 -786.253 -103.309
vt 104.572 1432.21
vn 0.45824 -0.888828 0.000286891
vt 93.7585 1424.87
vt 85.2132 1414.98
f 20/62/22 19/63/22 18/64/22

vt 1294.28 -1314.41
vn 0.735295 0.378745 0.562045
vt 1306.83 -1310.77
v 1850.08 -462.661 -103.309
vt 1205.61 -961.133
f 19/65/23 20/66/23 21/67/23

v 1853.89 -460.694 -115.65
vt 782.55 -1144.05
vn 0.839755 0.432552 0.328194
vt 769.669 -1146.23
vt 830.342 -1505.13
f 22/68/24 21/69/24 20/70/24

vt -101.157 1433.7
vn -0.457391 0.889266 0.000531944
vt -113.494 1438
vt -76.1497 1404.67
f 21/71/25 22/72/25 13/73/25

vt -115.62 1437.15
vn -0.457914 0.888996 7.52275e-06
v 1854.74 -460.256 -128.683
vt -128.653 1438.1
vt -78.2414 1403.85
f 22/74/26 23/75/26 13/76/26

vt 280.815 -1248.83
vn 0.8866 0.456711 0.0731782
vt 267.756 -1249.32
v 2020.58 -784.285 -115.65
vt 281.468 -1613.06
f 23/77/27 22/78/27 24/79/27

vt 831.728 -1504.74
vn 0.839543 0.43247 0.328841
vt 844.612 -1502.56
vt 783.818 -1143.67
f 20/80/28 24/81/28 22/82/28

vt 115.588 1437.11
vn 0.457939 -0.888983 -1.41593e-05
vt 103.247 1432.81
vt 83.8983 1415.58
f 24/83/29 20/84/29 18/85/29

v 2021.43 -783.847 -128.683
vt 128.642 1438.06
vn 0.457946 -0.88898 -9.20243e-06
vt 115.609 1437.1
vt 83.92 1415.57
f 25/86/30 24/87/30 18/88/30

vt 281.449 -1613.06
vn 0.886601 0.456711 0.0731699
vt 294.508 -1612.57
vt 280.798 -1248.83
f 24/89/31 25/90/31 23/91/31

v 1852.57 -461.378 -141.52
vt -249.408 -1240.33
vn 0.873311 0.449865 -0.186949
vt -262.414 -1239.07
vt -297.307 -1601.39
f 26/92/32 23/93/32 25/94/32

vt -129.598 1437.61
vn -0.45822 0.888839 -0.000225995
vt -142.434 1435.16
vt -79.1711 1403.38
f 23/95/33 26/96/33 13/97/33

vt -141.41 1435.87
vn -0.457772 0.889069 2.71619e-05
v 1847.51 -463.983 -153.284
vt -153.174 1430.18
vt -78.1632 1404.05
f 26/98/34 27/99/34 13/100/34

vt -748.469 -1121.86
vn 0.800264 0.412212 -0.435498
vt -761.22 -1119
v 2019.25 -784.969 -141.52
vt -840.893 -1474.17
f 27/101/35 26/102/35 28/103/35

vt -298.798 -1601.17
vn 0.87321 0.449786 -0.187607
vt -285.789 -1602.42
vt -250.777 -1240.11
f 25/104/36 28/105/36 26/106/36

vt 141.284 1435.76
vn 0.457868 -0.88902 -5.3511e-05
vt 128.447 1438.21
vt 83.7263 1415.72
f 28/107/37 25/108/37 18/109/37

v 2014.2 -787.574 -153.284
vt 153.724 1429.32
vn 0.45826 -0.888818 0.000100009
vt 141.961 1435
vt 84.397 1414.98
f 29/110/38 28/111/38 18/112/38

vt -839.677 -1474.61
vn 0.800494 0.412355 -0.434939
vt -826.929 -1477.47
vt -747.349 -1122.28
f 28/113/39 29/114/39 27/115/39

v 1839.92 -467.894 -163.176
vt -1164.64 -935.896
vn 0.672963 0.34666 -0.653413
vt -1177.02 -931.726
vt -1293.14 -1276.71
f 30/116/40 27/117/40 29/118/40

vt -153.52 1429.84
vn -0.457991 0.888957 -5.86133e-05
vt -163.411 1421.3
vt -78.5049 1403.73
f 27/119/41 30/120/41 13/121/41

vt -163.257 1421.55
vn -0.457826 0.889042 -2.00342e-05
v 1830.31 -472.843 -170.52
vt -170.6 1410.74
vt -78.3512 1403.97
f 30/122/42 31/123/42 13/124/42

vt -1478.56 -737.993
vn 0.499592 0.257337 -0.827155
vt -1490.58 -732.872
v 2006.6 -791.485 -163.176
vt -1633.25 -1067.74
f 31/125/43 30/126/43 32/127/43

vt -1293.94 -1276.26
vn 0.672672 0.34649 -0.653803
vt -1281.54 -1280.43
vt -1165.37 -935.473
f 29/128/44 32/129/44 30/130/44

vt 162.966 1421.97
vn 0.457624 -0.889146 -4.79857e-05
vt 153.073 1430.52
vt 83.7503 1416.16
f 32/131/45 29/132/45 18/133/45

v 1997 -796.435 -170.52
vt 170.547 1409.95
vn 0.458283 -0.888807 6.28361e-06
vt 163.204 1420.76
vt 83.9876 1414.95
f 33/134/46 32/135/46 18/136/46

vt -1632.86 -1068.02
vn 0.49985 0.257484 -0.826954
vt -1620.84 -1073.15
vt -1478.19 -738.263
f 32/137/47 33/138/47 31/139/47

v 1819.34 -478.495 -174.816
vt -1686.33 -579.165
vn 0.292273 0.150557 -0.944409
vt -1698.08 -573.448
vt -1857.32 -900.771
f 34/140/48 31/141/48 33/142/48

vt -170.657 1410.49
vn -0.457998 0.888953 -3.42478e-05
vt -174.952 1398.15
vt -78.4078 1403.73
f 31/143/49 34/144/49 13/145/49

vt -175.005 1398.43
vn -0.457794 0.889058 -4.74934e-05
v 1807.75 -484.463 -175.772
vt -175.96 1385.4
vt -78.4607 1404.01
f 34/146/50 35/147/50 13/148/50

vt -1792.49 -494.004
vn 0.0650189 0.0334909 -0.997322
vt -1804.12 -488.033
v 1986.02 -802.086 -174.816
vt -1970.44 -811.805
f 35/149/51 34/150/51 36/151/51

vt -1857.46 -900.655
vn 0.292098 0.150458 -0.944479
vt -1845.7 -906.371
vt -1686.47 -579.054
f 33/152/52 36/153/52 34/154/52

vt 175.036 1398.84
vn 0.457598 -0.889159 5.0705e-05
vt 170.741 1411.19
vt 84.182 1416.19
f 36/155/53 33/156/53 18/157/53

v 1974.44 -808.055 -175.772
vt 175.455 1384.8
vn 0.458177 -0.888861 -7.36579e-05
vt 174.497 1397.82
vt 83.6384 1415.16
f 37/158/54 36/159/54 18/160/54

vt -1970.43 -811.815
vn 0.0650606 0.0335143 -0.997318
vt -1958.81 -817.787
vt -1792.48 -494.013
f 36/161/55 37/162/55 35/163/55

v 1796.34 -490.341 -173.322
vt -1800.02 -499.662
vn -0.166684 -0.0858628 -0.982265
vt -1811.68 -493.763
vt -1976.02 -818.554
f 38/164/56 35/165/56 37/166/56

vt -175.812 1385.16
vn -0.457968 0.888969 -1.01087e-05
vt -173.362 1372.33
vt -78.3117 1403.77
f 35/167/57 38/168/57 13/169/57

vt -173.415 1372.38
vn -0.457931 0.888988 -2.37277e-05
v 1785.88 -495.729 -167.633
vt -167.726 1360.61
vt -78.3659 1403.82
f 38/170/58 39/171/58 13/172/58

vt -1706.94 -595.66
vn -0.386969 -0.199337 -0.900289
vt -1718.79 -590.161
v 1963.03 -813.933 -173.322
vt -1871.93 -920.381
f 39/173/59 38/174/59 40/175/59

vn -0.166682 -0.085862 -0.982265
vt -1964.36 -824.454
f 37/166/60 40/176/60 38/164/60

vt 173.348 1372.33
vn 0.457963 -0.888971 6.00204e-06
vt 175.798 1385.16
vt 83.9864 1415.53
f 40/177/61 37/178/61 18/179/61

v 1952.57 -819.32 -167.633
vt 167.848 1360.69
vn 0.457882 -0.889013 5.05362e-05
vt 173.539 1372.46
vt 84.1811 1415.68
f 41/180/62 40/181/62 18/182/62

vt -1871.92 -920.391
vn -0.386983 -0.199345 -0.900281
vt -1860.07 -925.888
vt -1706.93 -595.669
f 40/183/63 41/184/63 39/185/63

v 1777.09 -500.258 -159.093
vt -1506.44 -763.487
vn -0.581068 -0.299323 -0.756813
vt -1518.61 -758.741
vt -1650.83 -1097.88
f 42/186/64 39/187/64 41/188/64

vt -167.559 1360.51
vn -0.45801 0.888947 1.90785e-05
vt -159.019 1350.62
vt -78.1954 1403.72
f 39/189/65 42/190/65 13/191/65

vt -159.282 1350.73
vn -0.457918 0.888994 -4.87233e-05
v 1770.56 -503.621 -148.285
vt -148.473 1343.39
vt -78.4655 1403.84
f 42/192/66 43/193/66 13/194/66

vt -1193.12 -964.732
vn -0.73527 -0.378732 -0.562085
vt -1205.67 -961.098
v 1943.77 -823.85 -159.093
vt -1306.9 -1310.74
f 43/195/67 42/196/67 44/197/67

vt -1651.31 -1097.51
vn -0.580758 -0.299144 -0.757121
vt -1639.13 -1102.26
vt -1506.87 -763.139
f 41/198/68 44/199/68 42/200/68

vt 159.622 1350.96
vn 0.457781 -0.889065 0.000124531
vt 168.164 1360.85
vt 84.5047 1415.85
f 44/201/69 41/202/69 18/203/69

v 1937.25 -827.213 -148.285
vt 147.375 1343.08
vn 0.458131 -0.888885 -0.000215284
vt 158.18 1350.42
vt 83.0197 1415.26
f 45/204/70 44/205/70 18/206/70

vt -1306.06 -1311.2
vn -0.735542 -0.378895 -0.56162
vt -1293.51 -1314.84
vt -1192.36 -965.174
f 44/207/71 45/208/71 43/209/71

v 1766.74 -505.589 -135.943
vt -770.869 -1145.88
vn -0.839554 -0.432474 -0.328808
vt -783.754 -1143.69
vt -844.542 -1502.58
f 46/210/72 43/211/72 45/212/72

vt -148.271 1343.33
vn -0.457972 0.888966 3.65014e-06
vt -135.929 1339.03
vt -78.2569 1403.77
f 43/213/73 46/214/73 13/215/73

vt -136.173 1339.08
vn -0.457922 0.888992 -5.97268e-05
v 1765.89 -506.026 -122.91
vt -123.14 1338.13
vt -78.5093 1403.83
f 46/216/74 47/217/74 13/218/74

vt -267.686 -1249.33
vn -0.886603 -0.456712 -0.0731442
vt -280.744 -1248.83
v 1933.43 -829.18 -135.943
vt -294.45 -1612.58
f 47/219/75 46/220/75 48/221/75

vt -844.478 -1502.6
vn -0.839563 -0.43248 -0.328777
vt -831.593 -1504.79
vt -770.811 -1145.9
f 45/222/76 48/223/76 46/224/76

vt 136.151 1339.09
vn 0.457922 -0.888992 4.91521e-05
vt 148.493 1343.39
vt 84.175 1415.6
f 48/225/77 45/226/77 18/227/77

v 1932.58 -829.618 -122.91
vt 122.875 1338.09
vn 0.457957 -0.888975 -8.326e-06
vt 135.908 1339.05
vt 83.9238 1415.55
f 49/228/78 48/229/78 18/230/78

vt -294.505 -1612.57
vn -0.886602 -0.45671 -0.07317
vt -281.446 -1613.06
vt -267.736 -1249.32
f 48/231/79 49/232/79 47/233/79

v 1768.07 -504.904 -110.074
vt 263.805 -1238.89
vn -0.873197 -0.449805 0.187621
vt 250.797 -1240.14
vt 285.814 -1602.46
f 50/234/80 47/235/80 49/236/80

vt -122.587 1338.04
vn -0.458009 0.888948 8.38487e-05
vt -109.75 1340.49
vt -77.9374 1403.73
f 47/237/81 50/238/81 13/239/81

vt -111.359 1340.67
vn -0.457823 0.889044 -0.000332764
v 1773.12 -502.299 -98.3092
vt -99.5979 1346.36
vt -79.5974 1403.93
f 50/240/82 51/241/82 13/242/82

vt 760.096 -1119.39
vn -0.800513 -0.412338 0.434921
vt 747.348 -1122.25
v 1934.75 -828.496 -110.074
vt 826.92 -1477.45
f 51/243/83 50/244/83 52/245/83

vt 284.364 -1602.61
vn -0.873321 -0.449842 0.186956
vt 297.369 -1601.35
vt 262.478 -1239.03
f 49/246/84 52/247/84 50/248/84

vt 111.428 1340.73
vn 0.45781 -0.88905 0.000320297
vt 124.262 1338.28
vt 85.3604 1415.76
f 52/249/85 49/250/85 18/251/85

v 1939.81 -825.891 -98.3092
vt 97.781 1346.26
vn 0.457947 -0.888979 -0.000124694
vt 109.547 1340.57
vt 83.4152 1415.58
f 53/252/86 52/253/86 18/254/86

vt 828.08 -1477.08
vn -0.800265 -0.412236 0.435473
vt 840.832 -1474.22
vt 761.158 -1119.05
f 52/255/87 53/256/87 51/257/87

v 1780.72 -498.389 -88.4177
vt 1177.73 -931.332
vn -0.672665 -0.346506 0.653801
vt 1165.34 -935.501
vt 1281.52 -1280.46
f 54/258/88 51/259/88 53/260/88

vt -95.9214 1346.12
vn -0.458116 0.888892 0.000616913
vt -86.0197 1354.65
vt -75.8147 1403.65
f 51/261/89 54/262/89 13/263/89

vt -87.5918 1354.69
vn -0.458042 0.888931 0.000212429
v 1790.33 -493.439 -81.0735
vt -80.2432 1365.5
vt -77.4253 1403.7
f 54/264/90 55/265/90 13/266/90

vt 1490.59 -732.867
vn -0.499586 -0.257334 0.827159
vt 1478.56 -737.99
v 1947.4 -821.98 -88.4177
vt 1621.24 -1072.86
f 55/267/91 54/268/91 56/269/91

vt 1280.79 -1280.84
vn -0.672957 -0.346636 0.653432
vt 1293.17 -1276.67
vt 1177.06 -931.687
f 53/270/92 56/271/92 54/272/92

vt 89.0578 1354.84
vn 0.457897 -0.889005 0.000150512
vt 98.9468 1346.3
vt 84.6181 1415.63
f 56/273/93 53/274/93 18/275/93

v 1957.01 -817.031 -81.0735
vt 80.5285 1365.67
vn 0.457915 -0.888996 -0.000127521
vt 87.8754 1354.86
vt 83.4028 1415.64
f 57/276/94 56/277/94 18/278/94

vt 1621.22 -1072.87
vn -0.499602 -0.257341 0.827148
vt 1633.24 -1067.75
vt 1490.57 -732.881
f 56/279/95 57/280/95 55/281/95

v 1801.3 -487.787 -76.7772
vt 1698.07 -573.455
vn -0.292296 -0.150559 0.944402
vt 1686.32 -579.172
vt 1845.55 -906.495
f 58/282/96 55/283/96 57/284/96

vt -80.7591 1365.49
vn -0.458033 0.888935 8.04249e-05
vt -76.4609 1377.83
vt -77.9511 1403.69
f 55/285/97 58/286/97 13/287/97

vt -79.2746 1377.67
vn -0.45807 0.888916 -0.000635108
v 1812.88 -481.819 -75.8214
vt -78.3349 1390.7
vt -80.8007 1403.53
f 58/288/98 59/289/98 13/290/98

vt 1804.1 -488.037
vn -0.0650492 -0.0335064 0.997319
vt 1792.49 -494.008
v 1967.98 -811.379 -76.7772
vt 1958.81 -817.782
f 59/291/99 58/292/99 60/293/99

vt 1845.55 -906.494
vn -0.292294 -0.150558 0.944403
vt 1857.3 -900.777
vt 1698.07 -573.454
f 57/294/100 60/295/100 58/296/100

vt 77.7432 1377.92
vn 0.457933 -0.888987 0.000224781
vt 82.0341 1365.58
vt 84.9426 1415.55
f 60/297/101 57/298/101 18/299/101

vt 74.0888 1391.24
vn 0.457827 -0.889041 -0.000400713
vt 75.0547 1378.21
vt 82.2084 1415.85
f 17/300/102 60/301/102 18/302/102

vt 1958.82 -817.776
vn -0.0650042 -0.0334852 0.997323
vt 1970.45 -811.804
vt 1804.11 -488.031
f 60/303/103 17/304/103 59/305/103

vt 1800.02 -499.663
f 13/49/17 59/306/17 17/47/17

vt -92.1116 1425.8
vn -0.457725 0.889094 9.64406e-05
vt -102.919 1433.14
vt -77.887 1404.13
f 15/307/104 21/308/104 13/309/104

vt 1205.62 -961.129
vn 0.735292 0.378744 0.562049
vt 1193.06 -964.763
vt 1294.29 -1314.4
f 21/310/105 15/311/105 19/312/105

