# Alias OBJ Model File
# Exported from SketchUp, (c) 2000-2012 Trimble Navigation Limited
# File units = millimeters

mtllib f.mtl

g Mesh1 Component_1_1 Model

usemtl FrontColor
v 1606.14 0 -429.989
vt 0 0
vn 0 0 1
v 1798.29 0 -429.989
vt 24.8031 0
v 1798.29 151.89 -429.989
vt 24.8031 19.6063
v 1606.14 151.89 -429.989
vt 0 19.6063
f 1/1/1 2/2/1 3/3/1 4/4/1 

vt -24.8031 0
vn 0 -1 -0
v 1606.14 0 -622.139
vt 0 24.8031
v 1798.29 0 -622.139
vt -24.8031 24.8031
f 2/5/2 1/1/2 5/6/2 6/7/2 

vn -1 0 -0
v 1606.14 151.89 -622.139
vt -24.8031 19.6063
f 5/5/3 1/1/3 4/4/3 7/8/3 

vn 0 1 -0
v 1798.29 151.89 -622.139
vt 24.8031 24.8031
f 4/1/4 3/2/4 8/9/4 7/6/4 

vn 1 0 -0
f 2/1/5 6/2/5 8/3/5 3/4/5 

vn 0 0 -1
f 6/5/6 5/1/6 7/4/6 8/8/6 

g Mesh2 Component_1_2 Model

v 1990.44 151.89 -429.989
v 1990.44 303.78 -429.989
v 1798.29 303.78 -429.989
f 3/1/1 9/2/1 10/3/1 11/4/1 

v 1990.44 151.89 -622.139
f 9/5/2 3/1/2 8/6/2 12/7/2 

v 1798.29 303.78 -622.139
f 8/5/3 3/1/3 11/4/3 13/8/3 

v 1990.44 303.78 -622.139
f 11/1/4 10/2/4 14/9/4 13/6/4 

f 9/1/5 12/2/5 14/3/5 10/4/5 

f 12/5/6 8/1/6 13/4/6 14/8/6 

