# Alias OBJ Model File
# Exported from SketchUp, (c) 2000-2012 Trimble Navigation Limited
# File units = millimeters

mtllib j.mtl

g Mesh1 Component_1_1 Model

usemtl FrontColor
v 1606.14 0 -429.989
vt 0 0
vn 0 0 1
v 1798.29 0 -429.989
vt 24.8031 0
v 1798.29 151.89 -429.989
vt 24.8031 19.6063
v 1606.14 151.89 -429.989
vt 0 19.6063
f 1/1/1 2/2/1 3/3/1 4/4/1 

vt -24.8031 0
vn 0 -1 -0
v 1606.14 0 -622.139
vt 0 24.8031
v 1798.29 0 -622.139
vt -24.8031 24.8031
f 2/5/2 1/1/2 5/6/2 6/7/2 

vn -1 0 -0
v 1606.14 151.89 -622.139
vt -24.8031 19.6063
f 5/5/3 1/1/3 4/4/3 7/8/3 

vn 0 1 -0
v 1798.29 151.89 -622.139
vt 24.8031 24.8031
f 4/1/4 3/2/4 8/9/4 7/6/4 

vn 1 0 -0
f 2/1/5 6/2/5 8/3/5 3/4/5 

vn 0 0 -1
f 6/5/6 5/1/6 7/4/6 8/8/6 

g Mesh2 Model

v 1741.88 146.578 -570.458
vt -31.8684 -35.085
vn -0.782733 -0.612372 -0.111039
v 1751.63 122.89 -508.548
vt -29.5091 -36.2647
v 1738.92 137.739 -500.865
vt -29.1394 -35.5252
v 1729.17 161.427 -562.775
vt -31.4987 -34.3455
f 9/10/7 10/11/7 11/12/7 12/13/7 

vt -16.2623 53.7941
vn 0.605106 -0.707107 -0.36585
v 1756.99 153.696 -559.221
vt -16.9487 54.1904
vt -18.5467 52.4752
f 9/14/8 13/15/8 10/16/8

v 1782.42 193.954 -594.97
vt -16.2623 56.4319
f 13/15/8 9/14/8 14/17/8

vt -72.1708 7.63599
vn -0.51739 3.70979e-15 -0.85575
vt -70.3056 5.77079
vt -69.721 6.35541
v 1769.71 208.803 -587.287
vt -71.5862 8.22061
f 14/18/9 9/19/9 12/20/9 15/21/9 

vt 16.2623 53.7941
vn -0.605106 0.707107 0.36585
v 1744.28 168.545 -551.538
vt 16.9487 54.1904
vt 16.2623 56.4319
f 12/22/10 16/23/10 15/24/10

vt 18.5467 52.4752
f 16/23/10 12/22/10 11/25/10

v 1751.1 151.974 -508.23
vt 18.5467 53.2678
f 11/25/10 17/26/10 16/23/10

v 1789.21 161.427 -463.467
vt 20.8311 53.7941
f 17/26/10 11/25/10 18/27/10

vt 58.2416 -21.8985
vn -0.265343 -0.612372 0.74471
v 1801.92 146.578 -471.15
vt 60.6009 -20.7188
vt 60.2311 -19.9793
vt 57.8718 -21.159
f 10/28/11 19/29/11 18/30/11 11/31/11 

v 1763.81 137.125 -515.913
vt -18.5467 53.2678
vt -20.8311 53.7941
f 10/16/8 20/32/8 19/33/8

f 20/32/8 10/16/8 13/15/8

vt 29.8636 -36.0875
vn 0.782733 0.612372 0.111039
vt 31.514 -35.2623
vt 31.1442 -34.5228
vt 29.4938 -35.348
f 20/34/12 13/35/12 16/36/12 17/37/12 

vt 70.5858 6.05101
vn 0.51739 -1.34901e-14 0.85575
v 1785.35 186.837 -576.367
vt 71.8906 7.35577
v 1772.64 201.686 -568.685
vt 71.306 7.94039
vt 70.0012 6.63563
f 13/38/13 21/39/13 22/40/13 16/41/13 

vt -16.9487 56.0356
f 13/15/8 14/17/8 21/42/8

v 1832.71 217.642 -557.572
vt -18.5467 57.7508
f 21/42/8 14/17/8 23/43/8

vt -60.6009 -20.7188
vn 0.265343 0.612372 -0.74471
vt -58.2416 -21.8985
vt -57.8718 -21.159
v 1820.01 232.492 -549.889
vt -60.2311 -19.9793
f 23/44/14 14/45/14 15/46/14 24/47/14 

vt 16.9487 56.0356
vt 18.5467 57.7508
f 15/24/10 22/48/10 24/49/10

f 15/24/10 16/23/10 22/48/10

v 1807.83 218.256 -542.524
vt 18.5467 56.9582
f 24/49/10 22/48/10 25/50/10

vt 58.596 -21.7212
v 1820.53 203.407 -550.207
vt 60.2464 -20.896
vt 59.8767 -20.1566
vt 58.2263 -20.9818
f 21/51/11 26/52/11 25/53/11 22/54/11 

vt -18.5467 56.9582
f 21/42/8 23/43/8 26/55/8

v 1827.35 186.837 -506.899
vt -20.1447 56.0356
f 26/55/8 23/43/8 27/56/8

v 1842.46 193.954 -495.662
vt -20.8311 56.4319
f 28/57/8 27/56/8 23/43/8

f 19/33/8 27/56/8 28/57/8

v 1798.99 153.696 -489.752
vt -20.1447 54.1904
f 19/33/8 29/58/8 27/56/8

f 19/33/8 20/32/8 29/58/8

vt -60.2464 -20.896
vt -58.596 -21.7212
vt -58.2263 -20.9818
v 1786.29 168.545 -482.069
vt -59.8767 -20.1566
f 29/59/14 20/60/14 17/61/14 30/62/14 

vt 20.1447 54.1904
f 17/26/10 18/27/10 30/63/10

v 1814.65 201.686 -499.216
vt 20.1447 56.0356
f 30/63/10 18/27/10 31/64/10

v 1829.76 208.803 -487.979
vt 20.8311 56.4319
f 31/64/10 18/27/10 32/65/10

vt 70.3056 5.77079
vn 0.51739 4.36446e-15 0.85575
vt 72.1708 7.63599
vt 71.5862 8.22061
vt 69.721 6.35541
f 19/66/15 28/67/15 32/68/15 18/69/15 

vt 29.5091 -36.2647
vt 31.8684 -35.085
vt 31.4987 -34.3455
vt 29.1394 -35.5252
f 28/70/12 23/71/12 24/72/12 32/73/12 

f 31/64/10 32/65/10 24/49/10

f 24/49/10 25/50/10 31/64/10

vt -31.514 -35.2623
vt -29.8636 -36.0875
vt -29.4938 -35.348
vt -31.1442 -34.5228
f 26/74/7 27/75/7 31/76/7 25/77/7 

vt -71.8906 7.35577
vn -0.51739 8.91908e-15 -0.85575
vt -70.5858 6.05101
vt -70.0012 6.63563
vt -71.306 7.94039
f 27/78/16 29/79/16 30/80/16 31/81/16 

