# Alias OBJ Model File
# Exported from SketchUp, (c) 2000-2012 Trimble Navigation Limited
# File units = millimeters

mtllib o.mtl

g Mesh1 Model

usemtl FrontColor
v 3103.42 0 -524.43
vt -122.182 20.6469
vn 0 -1 -0
v 3067.08 0 -487.24
vt -120.751 19.1827
v 3016.7 0 -500.121
vt -118.768 19.6898
v 3002.66 0 -550.191
vt -118.215 21.6611
v 3039.01 0 -587.381
vt -119.646 23.1252
v 3089.39 0 -574.5
vt -121.629 22.6181
f 1/1/1 2/2/1 3/3/1 4/4/1 5/5/1 6/6/1 

vt 98.1162 0
vn 0.715187 0 0.698933
vt 100.163 0
v 3103.42 134.463 -524.43
vt 100.163 5.29382
v 3103.42 144 -524.43
vt 100.163 5.66929
v 3067.08 144 -487.24
vt 98.1162 5.66929
f 2/7/2 1/8/2 7/9/2 8/10/2 9/11/2 

vt -13.0968 9.37126e-16
vn 0.962887 -7.6053e-18 -0.269904
vt -11.0496 9.37126e-16
v 3089.39 144 -574.5
vt -11.0496 5.66929
vt -13.0968 5.66929
vt -13.0968 5.29382
f 1/12/3 6/13/3 10/14/3 8/15/3 7/16/3 

vt -112.237 7.86712e-15
vn 0.2477 -1.51172e-16 -0.968837
vt -110.189 7.86712e-15
v 3039.01 134.463 -587.381
vt -110.189 5.29382
v 3039.01 144 -587.381
vt -110.189 5.66929
vt -112.237 5.66929
f 6/17/4 5/18/4 11/19/4 12/20/4 10/21/4 

vt -100.163 -8.29121e-15
vn -0.715187 -1.19459e-16 -0.698933
vt -98.1162 -8.29121e-15
v 3002.66 144 -550.191
vt -98.1162 5.66929
vt -100.163 5.66929
vt -100.163 5.29382
f 5/22/5 4/23/5 13/24/5 12/25/5 11/26/5 

vt 11.0496 0
vn -0.962887 0 0.269904
vt 13.0968 0
v 3016.7 144 -500.121
vt 13.0968 5.66929
vt 11.0496 5.66929
f 4/27/6 3/28/6 14/29/6 13/30/6 

vt 110.189 0
vn -0.2477 0 0.968837
vt 112.237 0
vt 112.237 5.66929
vt 110.189 5.66929
f 3/31/7 2/32/7 9/33/7 14/34/7 

vt 120.751 19.1827
vn 0 1 -0
vt 122.182 20.6469
vt 121.629 22.6181
vt 119.646 23.1252
vt 118.215 21.6611
vt 118.768 19.6898
f 9/35/8 8/36/8 10/37/8 12/38/8 13/39/8 14/40/8 

vt 10.0259 5.29382
vn -0.962887 4.30967e-17 0.269904
v 3053.04 134.463 -537.31
vt 12.0732 5.29382
v 3053.04 278.463 -537.31
vt 12.0732 10.9631
v 3039.01 278.463 -587.381
vt 10.0259 10.9631
vt 10.0259 5.66929
f 11/41/9 15/42/9 16/43/9 17/44/9 12/45/9 

v 3139.77 134.463 -561.62
vt -123.613 22.111
vt -120.199 21.154
v 3075.35 134.463 -624.57
vt -121.077 24.5894
v 3125.73 134.463 -611.69
vt -123.06 24.0823
f 18/46/1 7/1/1 15/47/1 11/5/1 19/48/1 20/49/1 

vn 0.715187 -6.82623e-18 0.698933
vt 102.211 5.29382
v 3139.77 278.463 -561.62
vt 102.211 10.9631
v 3103.42 278.463 -524.43
vt 100.163 10.9631
f 7/9/10 18/50/10 21/51/10 22/52/10 8/10/10 

vt -12.0732 5.29382
vn 0.962887 0 -0.269904
vt -10.0259 5.29382
v 3125.73 278.463 -611.69
vt -10.0259 10.9631
vt -12.0732 10.9631
f 18/53/11 20/54/11 23/55/11 21/56/11 

vt -113.26 5.29382
vn 0.2477 0 -0.968837
vt -111.213 5.29382
v 3075.35 278.463 -624.57
vt -111.213 10.9631
vt -113.26 10.9631
f 20/57/12 19/58/12 24/59/12 23/60/12 

vt -102.211 5.29382
vn -0.715187 -1.0922e-16 -0.698933
vt -100.163 10.9631
vt -102.211 10.9631
f 19/61/13 11/26/13 12/25/13 17/62/13 24/63/13 

vt 123.613 22.111
vt 123.06 24.0823
vt 121.077 24.5894
vt 120.199 21.154
f 22/36/8 21/64/8 23/65/8 24/66/8 17/38/8 16/67/8 

vt 111.213 5.29382
vn -0.2477 -1.00781e-17 0.968837
vt 113.26 5.29382
vt 113.26 5.66929
vt 113.26 10.9631
vt 111.213 10.9631
f 15/68/14 7/69/14 8/70/14 22/71/14 16/72/14 

