# Alias OBJ Model File
# Exported from SketchUp, (c) 2000-2012 Trimble Navigation Limited
# File units = millimeters

mtllib oo.mtl

g Mesh1 Model

usemtl FrontColor
v 3103.42 0 -524.43
vt -122.182 20.6469
vn 0 -1 -0
v 3067.08 0 -487.24
vt -120.751 19.1827
v 3016.7 0 -500.121
vt -118.768 19.6898
v 3002.66 0 -550.191
vt -118.215 21.6611
v 3039.01 0 -587.381
vt -119.646 23.1252
v 3089.39 0 -574.5
vt -121.629 22.6181
f 1/1/1 2/2/1 3/3/1 4/4/1 5/5/1 6/6/1 

vt 98.1162 0
vn 0.715187 0 0.698933
vt 100.163 0
v 3103.42 144 -524.43
vt 100.163 5.66929
v 3067.08 144 -487.24
vt 98.1162 5.66929
f 2/7/2 1/8/2 7/9/2 8/10/2 

vt -13.0968 0
vn 0.962887 0 -0.269904
vt -11.0496 0
v 3089.39 144 -574.5
vt -11.0496 5.66929
vt -13.0968 5.66929
f 1/11/3 6/12/3 9/13/3 7/14/3 

vt -112.237 0
vn 0.2477 0 -0.968837
vt -110.189 0
v 3039.01 144 -587.381
vt -110.189 5.66929
vt -112.237 5.66929
f 6/15/4 5/16/4 10/17/4 9/18/4 

vt -100.163 0
vn -0.715187 0 -0.698933
vt -98.1162 0
v 3002.66 144 -550.191
vt -98.1162 5.66929
vt -100.163 5.66929
f 5/19/5 4/20/5 11/21/5 10/22/5 

vt 11.0496 0
vn -0.962887 0 0.269904
vt 13.0968 0
v 3016.7 144 -500.121
vt 13.0968 5.66929
vt 11.0496 5.66929
f 4/23/6 3/24/6 12/25/6 11/26/6 

vt 110.189 0
vn -0.2477 0 0.968837
vt 112.237 0
vt 112.237 5.66929
vt 110.189 5.66929
f 3/27/7 2/28/7 8/29/7 12/30/7 

vt 120.751 19.1827
vn 0 1 -0
vt 122.182 20.6469
vt 121.629 22.6181
vt 119.646 23.1252
vt 118.215 21.6611
vt 118.768 19.6898
f 8/31/8 7/32/8 9/33/8 10/34/8 11/35/8 12/36/8 

g Mesh2 Model

v 3297.32 0 -696.14
vt -129.816 27.4071
v 3260.98 0 -658.95
vt -128.385 25.9429
v 3210.6 0 -671.83
vt -126.402 26.45
v 3196.56 0 -721.9
vt -125.849 28.4213
v 3232.91 0 -759.09
vt -127.28 29.8854
v 3283.29 0 -746.21
vt -129.263 29.3783
f 13/37/1 14/38/1 15/39/1 16/40/1 17/41/1 18/42/1 

vt 108.287 0
vt 110.334 0
v 3297.32 144 -696.14
vt 110.334 5.66929
v 3260.98 144 -658.95
vt 108.287 5.66929
f 14/43/2 13/44/2 19/45/2 20/46/2 

vt -8.64787 0
vt -6.60062 0
v 3283.29 144 -746.21
vt -6.60062 5.66929
vt -8.64787 5.66929
f 13/47/3 18/48/3 21/49/3 19/50/3 

vt -117.958 0
vt -115.911 0
v 3232.91 144 -759.09
vt -115.911 5.66929
vt -117.958 5.66929
f 18/51/4 17/52/4 22/53/4 21/54/4 

vt -110.334 0
vt -108.287 0
v 3196.56 144 -721.9
vt -108.287 5.66929
vt -110.334 5.66929
f 17/55/5 16/56/5 23/57/5 22/58/5 

vt 6.60062 0
vt 8.64787 0
v 3210.6 144 -671.83
vt 8.64787 5.66929
vt 6.60062 5.66929
f 16/59/6 15/60/6 24/61/6 23/62/6 

vt 115.911 0
vt 117.958 0
vt 117.958 5.66929
vt 115.911 5.66929
f 15/63/7 14/64/7 20/65/7 24/66/7 

vt 128.385 25.9429
vt 129.816 27.4071
vt 129.263 29.3783
vt 127.28 29.8854
vt 125.849 28.4213
vt 126.402 26.45
f 20/67/8 19/68/8 21/69/8 22/70/8 23/71/8 24/72/8 

