# Alias OBJ Model File
# Exported from SketchUp, (c) 2000-2012 Trimble Navigation Limited
# File units = millimeters

mtllib xx.mtl

g Mesh1 Component_3_1 Model

usemtl FrontColor
v 1869.64 60.89 -775.461
vt -1.47624 -3.0687
vn -0.885912 -0.414933 0.207341
v 1788.83 242.89 -756.547
vt -1.90276 4.79504
vn -4.37905e-16 -1 7.74754e-16
v 1862 60.89 -795.733
vt -2.32928 -3.0687
vn -0.802062 -0.414933 0.429567
f 1/1/1 2/2/2 3/3/3

v 1871.79 60.89 -753.9
vt -2.50071 -2.80673
vn -0.909389 -0.414933 -0.0290148
vt -2.92723 5.05701
vn -4.37905e-16 -1 8.25282e-16
vt -3.35376 -2.80673
f 4/4/4 2/5/5 1/6/1

v 1868.27 60.89 -732.519
vt -3.3257 -2.44444
vn -0.870893 -0.414933 -0.263393
vt -3.75222 5.4193
vn -3.48078e-16 -1 8.58967e-16
vt -4.17874 -2.44444
f 5/7/6 2/8/7 4/9/4

v 1859.35 60.89 -712.776
vt -3.89498 -2.00653
vn -0.773047 -0.414933 -0.479822
vt -4.3215 5.85721
vn -3.14393e-16 -1 6.90542e-16
vt -4.74803 -2.00653
f 6/10/8 2/11/9 5/12/6

v 1845.62 60.89 -696.015
vt -4.16976 -1.52283
vn -0.622519 -0.414933 -0.663552
vt -4.59628 6.3409
vn -4.26676e-16 -1 8.42124e-16
vt -5.0228 -1.52283
f 7/13/10 2/14/11 6/15/8

v 1828.02 60.89 -683.38
vt -4.13131 -1.02632
vn -0.429567 -0.414933 -0.802062
vt -4.55783 6.83742
vn -3.59306e-16 -1 7.74754e-16
vt -4.98435 -1.02632
f 8/16/12 2/17/13 7/18/10

v 1807.74 60.89 -675.731
vt -3.78225 -0.550828
vn -0.207341 -0.414933 -0.885912
vt -4.20877 7.31291
vn -3.98606e-16 -1 7.85983e-16
vt -4.63529 -0.550828
f 9/19/14 2/20/15 8/21/12

v 1786.18 60.89 -673.589
vt -3.14637 -0.128757
vn 0.0290148 -0.414933 -0.909389
vt -3.57289 7.73498
vn -4.21062e-16 -1 8.30896e-16
vt -3.99941 -0.128757
f 10/22/16 2/23/17 9/24/14

v 1764.8 60.89 -677.101
vt -2.267 0.211128
vn 0.263393 -0.414933 -0.870893
vt -2.69352 8.07486
vn -2.0211e-16 -1 8.75809e-16
vt -3.12004 0.211128
f 11/25/18 2/26/19 10/27/16

v 1745.06 60.89 -686.027
vt -1.20407 0.445664
vn 0.479822 -0.414933 -0.773047
vt -1.63059 8.3094
vn -3.14393e-16 -1 7.85983e-16
vt -2.05712 0.445664
f 12/28/20 2/29/21 11/30/18

v 1728.3 60.89 -699.758
vt -0.0300235 0.558869
vn 0.663552 -0.414933 -0.622519
vt -0.456546 8.42261
vn -2.6948e-16 -1 8.08439e-16
vt -0.883069 0.558869
f 13/31/22 2/32/23 12/33/20

v 1715.66 60.89 -717.36
vt 1.17514 0.543027
vn 0.802062 -0.414933 -0.429567
vt 0.748615 8.40676
vt 0.322093 0.543027
f 14/34/24 2/35/21 13/36/22

v 1708.01 60.89 -737.632
vt 2.32928 0.399219
vn 0.885912 -0.414933 -0.207341
vt 1.90276 8.26296
vn -3.03165e-16 -1 6.90542e-16
vt 1.47624 0.399219
f 15/37/25 2/38/26 14/39/24

v 1705.87 60.89 -759.194
vt 3.35376 0.137244
vn 0.909389 -0.414933 0.0290148
vt 2.92723 8.00098
vn -4.94046e-16 -1 7.2142e-16
vt 2.50071 0.137244
f 16/40/27 2/41/28 15/42/25

v 1709.38 60.89 -780.574
vt 4.17874 -0.225044
vn 0.870893 -0.414933 0.263393
vt 3.75222 7.63869
vn -4.94046e-16 -1 7.97211e-16
vt 3.3257 -0.225044
f 17/43/29 2/44/30 16/45/27

v 1718.31 60.89 -800.318
vt 4.74803 -0.662956
vn 0.773047 -0.414933 0.479822
vt 4.3215 7.20078
vn -4.15448e-16 -1 7.0177e-16
vt 3.89498 -0.662956
f 18/46/31 2/47/32 17/48/29

v 1732.04 60.89 -817.078
vt 5.0228 -1.14665
vn 0.622519 -0.414933 0.663552
vt 4.59628 6.71709
vn -5.05275e-16 -1 7.63526e-16
vt 4.16976 -1.14665
f 19/49/33 2/50/34 18/51/31

v 1749.64 60.89 -829.714
vt 4.98435 -1.64316
vn 0.429567 -0.414933 0.802062
vt 4.55783 6.22058
vn -4.60361e-16 -1 7.41069e-16
vt 4.13131 -1.64316
f 20/52/35 2/53/36 19/54/33

v 1769.91 60.89 -837.363
vt 4.63529 -2.11865
vn 0.207341 -0.414933 0.885912
vt 4.20877 5.74508
vn -4.7159e-16 -1 7.52298e-16
vt 3.78225 -2.11865
f 21/55/37 2/56/38 20/57/35

v 1791.48 60.89 -839.505
vt 3.99941 -2.54072
vn -0.0290148 -0.414933 0.909389
vt 3.57289 5.32301
vn -4.46326e-16 -1 7.18613e-16
vt 3.14637 -2.54072
f 22/58/39 2/59/40 21/60/37

v 1812.86 60.89 -835.993
vt 3.12004 -2.88061
vn -0.263393 -0.414933 0.870893
vt 2.69352 4.98313
vn -5.8668e-16 -1 8.08439e-16
vt 2.267 -2.88061
f 23/61/41 2/62/42 22/63/39

v 1832.6 60.89 -827.067
vt 2.05712 -3.11515
vn -0.479822 -0.414933 0.773047
vt 1.63059 4.74859
vn -4.88432e-16 -1 7.63526e-16
vt 1.20407 -3.11515
f 24/64/43 2/65/44 23/66/41

v 1849.36 60.89 -813.335
vt 0.883069 -3.22835
vn -0.663552 -0.414933 0.622519
vt 0.456546 4.63539
vn -5.16503e-16 -1 7.74754e-16
vt 0.0300235 -3.22835
f 25/67/45 2/68/46 24/69/43

vt -0.322093 -3.21251
vt -0.748615 4.65123
vt -1.17514 -3.21251
f 3/70/3 2/71/30 25/72/45

g Mesh2 Model

v 1827.55 0 -1160.97
vt -85.2205 0
vn -0.51739 0 -0.85575
v 1770.22 0 -1126.3
vt -82.5827 0
v 1770.22 21 -1126.3
vt -82.5827 0.826772
v 1827.55 21 -1160.97
vt -85.2205 0.826772
f 26/73/47 27/74/47 28/75/47 29/76/47 

v 1787.85 0 -1116.59
vt -70.3878 43.9603
vn 0 -1 -0
vt -69.6936 44.3427
vt -71.9509 45.7074
f 30/77/48 27/78/48 26/79/48

v 1771.57 0 -1059.32
vt -69.7468 41.7054
f 27/78/48 30/77/48 31/80/48

v 1788.8 0 -1069.73
vt -70.4251 42.1155
f 32/81/48 31/80/48 30/77/48

v 1830.26 0 -1027
vt -72.0574 40.4329
f 31/80/48 32/81/48 33/82/48

v 1829.85 0 -1047.12
vt -72.0414 41.2253
f 33/82/48 32/81/48 34/83/48

vt -43.2171 0
vn 0.482406 0 -0.875948
vt -41.3719 0
v 1788.8 21 -1069.73
vt -41.3719 0.826772
v 1829.85 21 -1047.12
vt -43.2171 0.826772
f 34/84/49 32/85/49 35/86/49 36/87/49 

vt 40.6845 0
vn 0.999796 0 -0.020198
vt 42.5297 0
v 1787.85 21 -1116.59
vt 42.5297 0.826772
vt 40.6845 0.826772
f 32/88/50 30/89/50 37/90/50 35/91/50 

vt 82.979 0
vn 0.51739 0 0.85575
v 1827.96 0 -1140.84
vt 84.8242 0
v 1827.96 21 -1140.84
vt 84.8242 0.826772
vt 82.979 0.826772
f 30/92/51 38/93/51 39/94/51 37/95/51 

vt -71.9669 44.915
f 30/77/48 26/79/48 38/96/48

v 1886.24 0 -1128.65
vt -74.2614 44.435
f 38/96/48 26/79/48 40/97/48

vt -43.6134 0
vt -40.9756 0
vt -40.9756 0.826772
v 1886.24 21 -1128.65
vt -43.6134 0.826772
f 40/98/49 26/99/49 29/100/49 41/101/49 

vt 71.9509 45.7074
vn 0 1 -0
vt 71.9669 44.915
vt 74.2614 44.435
f 29/102/52 39/103/52 41/104/52

vt 70.3878 43.9603
f 29/102/52 37/105/52 39/103/52

vt 69.6936 44.3427
f 28/106/52 37/105/52 29/102/52

v 1771.57 21 -1059.32
vt 69.7468 41.7054
f 37/105/52 28/106/52 42/107/52

vt -42.926 0
vn -0.999796 0 0.020198
vt -40.2882 0
vt -40.2882 0.826772
vt -42.926 0.826772
f 27/108/53 31/109/53 42/110/53 28/111/53 

vt 40.9756 0
vn -0.482406 0 0.875948
vt 43.6134 0
v 1830.26 21 -1027
vt 43.6134 0.826772
vt 40.9756 0.826772
f 31/112/54 33/113/54 43/114/54 42/115/54 

vt 82.5827 0
v 1887.59 0 -1061.66
vt 85.2205 0
v 1887.59 21 -1061.66
vt 85.2205 0.826772
vt 82.5827 0.826772
f 33/116/51 44/117/51 45/118/51 43/119/51 

v 1869.96 0 -1071.37
vt -73.6204 42.18
vt -74.3147 41.7977
f 33/82/48 46/120/48 44/121/48

f 33/82/48 34/83/48 46/120/48

vt -84.8242 0
vt -82.979 0
vt -82.979 0.826772
v 1869.96 21 -1071.37
vt -84.8242 0.826772
f 46/122/47 34/123/47 36/124/47 47/125/47 

vt 72.0414 41.2253
vt 72.0574 40.4329
vt 73.6204 42.18
f 36/126/52 43/127/52 47/128/52

vt 70.4251 42.1155
f 35/129/52 43/127/52 36/126/52

f 35/129/52 42/107/52 43/127/52

f 42/107/52 35/129/52 37/105/52

vt 74.3147 41.7977
f 47/128/52 43/127/52 45/130/52

f 47/128/52 45/130/52 41/104/52

vt 40.2882 0
vt 42.926 0
vt 42.926 0.826772
vt 40.2882 0.826772
f 44/131/50 40/132/50 41/133/50 45/134/50 

f 44/121/48 46/120/48 40/97/48

v 1869.01 0 -1118.23
vt -73.5832 44.0249
f 48/135/48 40/97/48 46/120/48

f 38/96/48 40/97/48 48/135/48

vt 41.3719 0
vt 43.2171 0
v 1869.01 21 -1118.23
vt 43.2171 0.826772
vt 41.3719 0.826772
f 38/136/54 48/137/54 49/138/54 39/139/54 

vt -42.5297 0
vt -40.6845 0
vt -40.6845 0.826772
vt -42.5297 0.826772
f 48/140/53 46/141/53 47/142/53 49/143/53 

vt 73.5832 44.0249
f 41/104/52 49/144/52 47/128/52

f 41/104/52 39/103/52 49/144/52

