# Alias OBJ Model File
# Exported from SketchUp, (c) 2000-2012 Trimble Navigation Limited
# File units = millimeters

mtllib yy.mtl

g Mesh1 Component_7_1 Model

usemtl FrontColor
v 3091.02 67.5792 -625.656
vt 0.672751 0
vn 0.996203 0 -0.087058
v 3089.29 67.5792 -637.258
vt 1.13457 0
vn 0.978296 0 -0.207212
v 3089.29 146.579 -637.258
vt 1.13457 3.11024
v 3091.02 146.579 -625.656
vt 0.672751 3.11024
f 1/1/1 2/2/2 3/3/2 4/4/1 

v 2898.8 67.5792 -579.732
vt 0 0
vn 0 -1 -0
v 3042.06 67.5792 -701.466
vt -5.64036 4.79267
v 3051.92 67.5792 -695.117
vt -6.02867 4.5427
v 3060.95 67.5792 -687.618
vt -6.38381 4.24749
v 3068.99 67.5792 -679.081
vt -6.70053 3.91139
v 3075.94 67.5792 -669.632
vt -6.97416 3.53937
v 3081.69 67.5792 -659.409
vt -7.20066 3.13691
v 3086.16 67.5792 -648.565
vt -7.37669 2.70996
vt -7.49965 2.26481
vt -7.56772 1.80804
v 3091.33 67.5792 -613.93
vt -7.57991 1.34638
v 3090.21 67.5792 -602.253
vt -7.53603 0.886657
v 3087.69 67.5792 -590.797
vt -7.43672 0.435644
v 3083.8 67.5792 -579.732
vt -7.28346 0
f 5/5/3 6/6/3 7/7/3 8/8/3 9/9/3 10/10/3 11/11/3 12/12/3 2/13/3 1/14/3 13/15/3 14/16/3 15/17/3 16/18/3 

vt -7.40157 0
vn -0.647521 0 -0.762048
v 2898.8 146.579 -579.732
vt 0 3.11024
v 3042.06 146.579 -701.466
vt -7.40157 3.11024
f 6/19/4 5/5/4 17/20/4 18/21/4 

vn 0 0 1
vt 7.28346 0
v 3083.8 146.579 -579.732
vt 7.28346 3.11024
f 5/5/5 16/22/5 19/23/5 17/20/5 

vt 2.41711 0
vn 0.943328 0 0.331862
vt 2.87892 0
vn 0.961744 0 0.273951
v 3087.69 146.579 -590.797
vt 2.87892 3.11024
vt 2.41711 3.11024
f 16/24/6 15/25/7 20/26/7 19/27/6 

vt 2.02456 0
vt 2.48638 0
vn 0.987865 0 0.155312
v 3090.21 146.579 -602.253
vt 2.48638 3.11024
vt 2.02456 3.11024
f 15/28/7 14/29/8 21/30/8 20/31/7 

vt 1.59873 0
vt 2.06055 0
vn 0.999409 0 0.0343808
v 3091.33 146.579 -613.93
vt 2.06055 3.11024
vt 1.59873 3.11024
f 14/32/8 13/33/9 22/34/9 21/35/8 

vt 1.1459 0
vt 1.60772 0
vt 1.60772 3.11024
vt 1.1459 3.11024
f 13/36/9 1/37/1 4/38/1 22/39/9 

vt 5.64036 4.79267
vn 0 1 -0
vt 7.43672 0.435644
vt 7.53603 0.886657
vt 7.57991 1.34638
vt 7.56772 1.80804
vt 7.49965 2.26481
v 3086.16 146.579 -648.565
vt 7.37669 2.70996
v 3081.69 146.579 -659.409
vt 7.20066 3.13691
v 3075.94 146.579 -669.632
vt 6.97416 3.53937
v 3068.99 146.579 -679.081
vt 6.70053 3.91139
v 3060.95 146.579 -687.618
vt 6.38381 4.24749
v 3051.92 146.579 -695.117
vt 6.02867 4.5427
f 18/40/10 17/5/10 19/22/10 20/41/10 21/42/10 22/43/10 4/44/10 3/45/10 23/46/10 24/47/10 25/48/10 26/49/10 27/50/10 28/51/10 

vt 0.186266 0
vt 0.648082 0
vn 0.945952 0 -0.324308
vt 0.648082 3.11024
vt 0.186266 3.11024
f 2/52/2 12/53/11 23/54/11 3/55/2 

vt -0.306377 0
vt 0.155439 0
vn 0.899647 0 -0.436618
vt 0.155439 3.11024
vt -0.306377 3.11024
f 12/56/11 11/57/12 24/58/12 23/59/11 

vt -0.797906 0
vt -0.336089 0
vn 0.840066 0 -0.542485
vt -0.336089 3.11024
vt -0.797906 3.11024
f 11/60/12 10/61/13 25/62/13 24/63/12 

vt -1.28107 0
vt -0.81925 0
vn 0.768087 0 -0.640345
vt -0.81925 3.11024
vt -1.28107 3.11024
f 10/64/13 9/65/14 26/66/14 25/67/13 

vt -1.74873 0
vt -1.28691 0
vn 0.684773 0 -0.728756
vt -1.28691 3.11024
vt -1.74873 3.11024
f 9/68/14 8/69/15 27/70/15 26/71/14 

vt -2.19399 0
vt -1.73218 0
vn 0.591354 0 -0.806412
vt -1.73218 3.11024
vt -2.19399 3.11024
f 8/72/15 7/73/16 28/74/16 27/75/15 

vt -2.61029 0
vt -2.14847 0
vn 0.54128 0 -0.840842
vt -2.14847 3.11024
vt -2.61029 3.11024
f 7/76/16 6/77/17 18/78/17 28/79/16 

g Mesh2 Model

v 2952.83 0 -477.622
vt -116.253 18.804
v 2916.49 0 -440.432
vt -114.822 17.3399
v 2866.11 0 -453.313
vt -112.839 17.847
v 2852.08 0 -503.383
vt -112.286 19.8182
v 2888.42 0 -540.573
vt -113.717 21.2824
v 2938.8 0 -527.692
vt -115.701 20.7753
f 29/80/3 30/81/3 31/82/3 32/83/3 33/84/3 34/85/3 

vt 92.6544 0
vn 0.715187 0 0.698933
vt 94.7017 0
v 2952.83 144 -477.622
vt 94.7017 5.66929
v 2916.49 144 -440.432
vt 92.6544 5.66929
f 30/86/18 29/87/18 35/88/18 36/89/18 

vt -13.2711 0
vn 0.962887 0 -0.269904
vt -11.2238 0
v 2938.8 144 -527.692
vt -11.2238 5.66929
vt -13.2711 5.66929
f 29/90/19 34/91/19 37/92/19 35/93/19 

vt -106.949 0
vn 0.2477 0 -0.968837
vt -104.902 0
v 2888.42 144 -540.573
vt -104.902 5.66929
vt -106.949 5.66929
f 34/94/20 33/95/20 38/96/20 37/97/20 

vt -94.7017 0
vn -0.715187 0 -0.698933
vt -92.6544 0
v 2852.08 144 -503.383
vt -92.6544 5.66929
vt -94.7017 5.66929
f 33/98/21 32/99/21 39/100/21 38/101/21 

vt 11.2238 0
vn -0.962887 0 0.269904
vt 13.2711 0
v 2866.11 144 -453.313
vt 13.2711 5.66929
vt 11.2238 5.66929
f 32/102/22 31/103/22 40/104/22 39/105/22 

vt 104.902 0
vn -0.2477 0 0.968837
vt 106.949 0
vt 106.949 5.66929
vt 104.902 5.66929
f 31/106/23 30/107/23 36/108/23 40/109/23 

vt 114.822 17.3399
vt 116.253 18.804
vt 115.701 20.7753
vt 113.717 21.2824
vt 112.286 19.8182
vt 112.839 17.847
f 36/110/10 35/111/10 37/112/10 38/113/10 39/114/10 40/115/10 

