# Alias OBJ Model File
# Exported from SketchUp, (c) 2000-2012 Trimble Navigation Limited
# File units = millimeters

mtllib 0.mtl

g Mesh1 Component_7_1 Model

usemtl FrontColor
v 3067.08 144 -487.24
vt 2.536 0
vn 0 1 -0
v 3103.42 144 -524.43
vt 3.96689 1.46416
v 3089.39 144 -574.5
vt 3.41433 3.43543
v 3039.01 144 -587.381
vt 1.43089 3.94253
v 3002.66 144 -550.191
vt 0 2.47837
v 3016.7 144 -500.121
vt 0.552559 0.507103
f 1/1/1 2/2/1 3/3/1 4/4/1 5/5/1 6/6/1 

v 3067.08 0 -487.24
vt 1.7725 0
vn 0.715187 0 0.698933
v 3103.42 0 -524.43
vt 3.81974 0
vt 3.81974 5.66929
vt 1.7725 5.66929
f 7/7/2 8/8/2 2/9/2 1/10/2 

vt -3.96689 1.46416
vn 0 -1 -0
vt -2.536 0
v 3016.7 0 -500.121
vt -0.552559 0.507103
v 3002.66 0 -550.191
v 3039.01 0 -587.381
vt -1.43089 3.94253
v 3089.39 0 -574.5
vt -3.41433 3.43543
f 8/11/3 7/12/3 9/13/3 10/5/3 11/14/3 12/15/3 

vt 0.40973 0
vn -0.2477 0 0.968837
vt 2.45697 0
vt 2.45697 5.66929
vt 0.40973 5.66929
f 9/16/4 7/17/4 1/18/4 6/19/4 

vt -2.38639 0
vn -0.962887 0 0.269904
vt -0.339145 0
vt -0.339145 5.66929
vt -2.38639 5.66929
f 10/20/5 9/21/5 6/22/5 5/23/5 

vt -3.81974 0
vn -0.715187 0 -0.698933
vt -1.7725 0
vt -1.7725 5.66929
vt -3.81974 5.66929
f 11/24/6 10/25/6 5/26/6 4/27/6 

vt -2.45697 0
vn 0.2477 0 -0.968837
vt -0.40973 0
vt -0.40973 5.66929
vt -2.45697 5.66929
f 12/28/7 11/29/7 4/30/7 3/31/7 

vt 0.339145 0
vn 0.962887 0 -0.269904
vt 2.38639 0
vt 2.38639 5.66929
vt 0.339145 5.66929
f 8/32/8 12/33/8 3/34/8 2/35/8 

g Mesh2 Model

v 3044.73 81.9112 -556.751
vt 119.871 21.9193
v 3061.96 81.9112 -567.167
vt 120.55 22.3294
v 3061.02 81.9112 -614.026
vt 120.512 24.1743
f 13/36/1 14/37/1 15/38/1

v 3103.42 81.9112 -524.43
vt 122.182 20.6469
f 14/37/1 13/36/1 16/39/1

v 3044.73 60.9112 -556.751
vt 94.4271 2.39808
vn -0.482406 -4.45381e-30 0.875948
v 3103.42 60.9112 -524.43
vt 97.0649 2.39808
vt 97.0649 3.22485
vt 94.4271 3.22485
f 17/40/9 18/41/9 16/42/9 13/43/9 

vt -119.871 21.9193
v 3061.96 60.9112 -567.167
vt -120.55 22.3294
vt -122.182 20.6469
f 17/44/3 19/45/3 18/46/3

v 3061.02 60.9112 -614.026
vt -120.512 24.1743
f 19/45/3 17/44/3 20/47/3

v 3043.38 60.9112 -623.738
vt -119.818 24.5566
f 21/48/3 20/47/3 17/44/3

v 3100.72 60.9112 -658.403
vt -122.075 25.9214
f 20/47/3 21/48/3 22/49/3

vt -117.878 2.39808
vn -0.51739 0 -0.85575
vt -115.24 2.39808
v 3043.38 81.9112 -623.738
vt -115.24 3.22485
v 3100.72 81.9112 -658.403
vt -117.878 3.22485
f 22/50/10 21/51/10 23/52/10 24/53/10 

vt -22.1315 2.39808
vn -0.999796 9.23062e-30 0.020198
vt -19.4937 2.39808
vt -19.4937 3.22485
vt -22.1315 3.22485
f 21/54/11 17/55/11 13/56/11 23/57/11 

vt 119.818 24.5566
f 15/38/1 23/58/1 13/36/1

vt 122.075 25.9214
f 23/58/1 15/38/1 24/59/1

v 3101.12 81.9112 -638.275
vt 122.091 25.1289
f 24/59/1 15/38/1 25/60/1

vt 115.636 2.39808
vn 0.51739 -2.80163e-30 0.85575
v 3101.12 60.9112 -638.275
vt 117.481 2.39808
vt 117.481 3.22485
vt 115.636 3.22485
f 20/61/12 26/62/12 25/63/12 15/64/12 

vt -122.091 25.1289
f 20/47/3 22/49/3 26/65/3

v 3159.41 60.9112 -626.082
vt -124.386 24.6489
f 26/65/3 22/49/3 27/66/3

vt -97.0649 2.39808
vn 0.482406 -4.45381e-30 -0.875948
vt -94.4271 2.39808
vt -94.4271 3.22485
v 3159.41 81.9112 -626.082
vt -97.0649 3.22485
f 27/67/13 22/68/13 24/69/13 28/70/13 

vt 124.386 24.6489
f 24/59/1 25/60/1 28/71/1

v 3142.18 81.9112 -615.666
vt 123.708 24.2388
f 28/71/1 25/60/1 29/72/1

vt 94.8234 2.39808
v 3142.18 60.9112 -615.666
vt 96.6686 2.39808
vt 96.6686 3.22485
vt 94.8234 3.22485
f 26/73/9 30/74/9 29/75/9 25/76/9 

vt -123.708 24.2388
f 26/65/3 27/66/3 30/77/3

v 3143.12 60.9112 -568.807
vt -123.745 22.394
f 30/77/3 27/66/3 31/78/3

v 3160.76 60.9112 -559.095
vt -124.439 22.0116
f 32/79/3 31/78/3 27/66/3

f 18/46/3 31/78/3 32/79/3

v 3103.02 60.9112 -544.558
vt -122.166 21.4393
f 18/46/3 33/80/3 31/78/3

f 18/46/3 19/45/3 33/80/3

vt -96.6686 2.39808
vn 0.482406 -6.47561e-30 -0.875948
vt -94.8234 2.39808
vt -94.8234 3.22485
v 3103.02 81.9112 -544.558
vt -96.6686 3.22485
f 33/81/14 19/82/14 14/83/14 34/84/14 

vt 19.89 2.39808
vn 0.999796 1.64028e-18 -0.020198
vt 21.7352 2.39808
vt 21.7352 3.22485
vt 19.89 3.22485
f 19/85/15 20/86/15 15/87/15 14/88/15 

vt 122.166 21.4393
f 14/37/1 16/39/1 34/89/1

v 3143.12 81.9112 -568.807
vt 123.745 22.394
f 34/89/1 16/39/1 35/90/1

v 3160.76 81.9112 -559.095
vt 124.439 22.0116
f 35/90/1 16/39/1 36/91/1

vt 115.24 2.39808
vn 0.51739 0 0.85575
vt 117.878 2.39808
vt 117.878 3.22485
vt 115.24 3.22485
f 18/92/16 32/93/16 36/94/16 16/95/16 

vt 19.4937 2.39808
vn 0.999796 9.23062e-30 -0.020198
vt 22.1315 2.39808
vt 22.1315 3.22485
vt 19.4937 3.22485
f 32/96/17 27/97/17 28/98/17 36/99/17 

f 35/90/1 36/91/1 28/71/1

f 28/71/1 29/72/1 35/90/1

vt -21.7352 2.39808
vn -0.999796 1.64028e-18 0.020198
vt -19.89 2.39808
vt -19.89 3.22485
vt -21.7352 3.22485
f 30/100/18 31/101/18 35/102/18 29/103/18 

vt -117.481 2.39808
vn -0.51739 -4.7768e-30 -0.85575
vt -115.636 2.39808
vt -115.636 3.22485
vt -117.481 3.22485
f 31/104/19 33/105/19 34/106/19 35/107/19 

