# Alias OBJ Model File
# Exported from SketchUp, (c) 2000-2012 Trimble Navigation Limited
# File units = millimeters

mtllib 2.mtl

g Mesh1 Component_1_1 Model

usemtl FrontColor
v 1606.14 0 -429.989
vt 0 0
vn 0 0 1
v 1798.29 0 -429.989
vt 24.8031 0
v 1798.29 151.89 -429.989
vt 24.8031 19.6063
v 1606.14 151.89 -429.989
vt 0 19.6063
f 1/1/1 2/2/1 3/3/1 4/4/1 

vt -24.8031 0
vn 0 -1 -0
v 1606.14 0 -622.139
vt 0 24.8031
v 1798.29 0 -622.139
vt -24.8031 24.8031
f 2/5/2 1/1/2 5/6/2 6/7/2 

vn -1 0 -0
v 1606.14 151.89 -622.139
vt -24.8031 19.6063
f 5/5/3 1/1/3 4/4/3 7/8/3 

vn 0 1 -0
v 1798.29 151.89 -622.139
vt 24.8031 24.8031
f 4/1/4 3/2/4 8/9/4 7/6/4 

vn 1 0 -0
f 2/1/5 6/2/5 8/3/5 3/4/5 

vn 0 0 -1
f 6/5/6 5/1/6 7/4/6 8/8/6 

g Mesh2 Component_3_1 Model

v 1869.64 60.89 -681.461
vt -1.47624 -3.0687
vn -0.885912 -0.414933 0.207341
v 1788.83 242.89 -662.547
vt -1.90276 4.79504
vn -4.60361e-16 -1 8.25282e-16
v 1862 60.89 -701.733
vt -2.32928 -3.0687
vn -0.802062 -0.414933 0.429567
f 9/10/7 10/11/8 11/12/9

v 1871.79 60.89 -659.9
vt -2.50071 -2.80673
vn -0.909389 -0.414933 -0.0290148
vt -2.92723 5.05701
vn -5.27731e-16 -1 6.90542e-16
vt -3.35376 -2.80673
f 12/13/10 10/14/11 9/15/7

v 1868.27 60.89 -638.519
vt -3.3257 -2.44444
vn -0.870893 -0.414933 -0.263393
vt -3.75222 5.4193
vn -3.70535e-16 -1 8.42124e-16
vt -4.17874 -2.44444
f 13/16/12 10/17/13 12/18/10

v 1859.35 60.89 -618.776
vt -3.89498 -2.00653
vn -0.773047 -0.414933 -0.479822
vt -4.3215 5.85721
vn -3.59306e-16 -1 7.35455e-16
vt -4.74803 -2.00653
f 14/19/14 10/20/15 13/21/12

v 1845.62 60.89 -602.015
vt -4.16976 -1.52283
vn -0.622519 -0.414933 -0.663552
vt -4.59628 6.3409
vn -4.26676e-16 -1 7.07385e-16
vt -5.0228 -1.52283
f 15/22/16 10/23/17 14/24/14

v 1828.02 60.89 -589.38
vt -4.13131 -1.02632
vn -0.429567 -0.414933 -0.802062
vt -4.55783 6.83742
vn -4.0422e-16 -1 7.74754e-16
vt -4.98435 -1.02632
f 16/25/18 10/26/19 15/27/16

v 1807.74 60.89 -581.731
vt -3.78225 -0.550828
vn -0.207341 -0.414933 -0.885912
vt -4.20877 7.31291
vn -4.43519e-16 -1 8.08439e-16
vt -4.63529 -0.550828
f 17/28/20 10/29/21 16/30/18

v 1786.18 60.89 -579.589
vt -3.14637 -0.128757
vn 0.0290148 -0.414933 -0.909389
vt -3.57289 7.73498
vn -4.19659e-16 -1 8.53353e-16
vt -3.99941 -0.128757
f 18/31/22 10/32/23 17/33/20

v 1764.8 60.89 -583.101
vt -2.267 0.211128
vn 0.263393 -0.414933 -0.870893
vt -2.69352 8.07486
vn -4.26676e-16 -1 7.85983e-16
vt -3.12004 0.211128
f 19/34/24 10/35/25 18/36/22

v 1745.06 60.89 -592.027
vt -1.20407 0.445664
vn 0.479822 -0.414933 -0.773047
vt -1.63059 8.3094
vn -3.48078e-16 -1 8.30896e-16
vt -2.05712 0.445664
f 20/37/26 10/38/27 19/39/24

v 1728.3 60.89 -605.758
vt -0.0300235 0.558869
vn 0.663552 -0.414933 -0.622519
vt -0.456546 8.42261
vn -4.94046e-16 -1 7.63526e-16
vt -0.883069 0.558869
f 21/40/28 10/41/29 20/42/26

v 1715.66 60.89 -623.36
vt 1.17514 0.543027
vn 0.802062 -0.414933 -0.429567
vt 0.748615 8.40676
vn -3.59306e-16 -1 8.30896e-16
vt 0.322093 0.543027
f 22/43/30 10/44/31 21/45/28

v 1708.01 60.89 -643.632
vt 2.32928 0.399219
vn 0.885912 -0.414933 -0.207341
vt 1.90276 8.26296
vn -5.05275e-16 -1 1.04985e-15
vt 1.47624 0.399219
f 23/46/32 10/47/33 22/48/30

v 1705.87 60.89 -665.194
vt 3.35376 0.137244
vn 0.909389 -0.414933 0.0290148
vt 2.92723 8.00098
vn -5.16503e-16 -1 8.98266e-16
vt 2.50071 0.137244
f 24/49/34 10/50/35 23/51/32

v 1709.38 60.89 -686.574
vt 4.17874 -0.225044
vn 0.870893 -0.414933 0.263393
vt 3.75222 7.63869
vn -5.16503e-16 -1 9.74057e-16
vt 3.3257 -0.225044
f 25/52/36 10/53/37 24/54/34

v 1718.31 60.89 -706.318
vt 4.74803 -0.662956
vn 0.773047 -0.414933 0.479822
vt 4.3215 7.20078
vn -4.15448e-16 -1 8.81424e-16
vt 3.89498 -0.662956
f 26/55/38 10/56/39 25/57/36

v 1732.04 60.89 -723.078
vt 5.0228 -1.14665
vn 0.622519 -0.414933 0.663552
vt 4.59628 6.71709
vn -5.05275e-16 -1 9.43179e-16
vt 4.16976 -1.14665
f 27/58/40 10/59/41 26/60/38

v 1749.64 60.89 -735.714
vt 4.98435 -1.64316
vn 0.429567 -0.414933 0.802062
vt 4.55783 6.22058
vn -5.05275e-16 -1 7.85983e-16
vt 4.13131 -1.64316
f 28/61/42 10/62/43 27/63/40

v 1769.91 60.89 -743.363
vt 4.63529 -2.11865
vn 0.207341 -0.414933 0.885912
vt 4.20877 5.74508
vn -4.82818e-16 -1 7.97211e-16
vt 3.78225 -2.11865
f 29/64/44 10/65/45 28/66/42

v 1791.48 60.89 -745.505
vt 3.99941 -2.54072
vn -0.0290148 -0.414933 0.909389
vt 3.57289 5.32301
vn -4.57554e-16 -1 7.85983e-16
vt 3.14637 -2.54072
f 30/67/46 10/68/47 29/69/44

v 1812.86 60.89 -741.993
vt 3.12004 -2.88061
vn -0.263393 -0.414933 0.870893
vt 2.69352 4.98313
vn -5.97908e-16 -1 7.85983e-16
vt 2.267 -2.88061
f 31/70/48 10/71/49 30/72/46

v 1832.6 60.89 -733.067
vt 2.05712 -3.11515
vn -0.479822 -0.414933 0.773047
vt 1.63059 4.74859
vn -4.9966e-16 -1 7.41069e-16
vt 1.20407 -3.11515
f 32/73/50 10/74/51 31/75/48

v 1849.36 60.89 -719.335
vt 0.883069 -3.22835
vn -0.663552 -0.414933 0.622519
vt 0.456546 4.63539
vn -5.3896e-16 -1 7.29841e-16
vt 0.0300235 -3.22835
f 33/76/52 10/77/53 32/78/50

vt -0.322093 -3.21251
vt -0.748615 4.65123
vn -5.16503e-16 -1 8.42124e-16
vt -1.17514 -3.21251
f 11/79/9 10/80/54 33/81/52

