# Alias OBJ Model File
# Exported from SketchUp, (c) 2000-2012 Trimble Navigation Limited
# File units = millimeters

mtllib 2121.mtl

g Mesh1 Component_6_1 Model

usemtl FrontColor
v 415.752 20.5 -155.802
vt 3.34646 0.472441
vn 0 0 1
v 415.752 2.5 -155.802
vt 3.34646 0
v 433.752 2.5 -155.802
vt 3.8189 0
v 433.752 20.5 -155.802
vt 3.8189 0.472441
f 1/1/1 2/2/1 3/3/1 4/4/1 

vt 0 0
vn -1 0 -0
vt 0 0.472441
v 415.752 20.5 -203.802
vt -1.25984 0.472441
v 415.752 2.5 -203.802
vt -1.25984 0
f 2/5/2 1/6/2 5/7/2 6/8/2 

v 306.252 20.5 -221.802
vt 0.472441 1.73228
vn 0 1 -0
v 306.252 20.5 -256.302
vt 0.472441 2.6378
v 288.252 20.5 -256.302
vt 4.44089e-16 2.6378
v 288.252 20.5 -203.802
vt 4.44089e-16 1.25984
vt 3.34646 1.25984
v 433.752 20.5 -221.802
vt 3.8189 1.73228
f 7/9/3 8/10/3 9/11/3 10/12/3 5/13/3 1/2/3 4/3/3 11/14/3 

vt 1.73228 0.472441
vn 1 0 -0
v 306.252 2.5 -221.802
vt 1.73228 0
v 306.252 2.5 -256.302
vt 2.6378 0
vt 2.6378 0.472441
f 7/15/4 12/16/4 13/17/4 8/18/4 

vt -3.8189 0.472441
vn 0 0 -1
v 433.752 2.5 -221.802
vt -3.8189 0
vt -0.472441 0
vt -0.472441 0.472441
f 11/19/5 14/20/5 12/21/5 7/22/5 

f 4/6/4 3/5/4 14/16/4 11/15/4 

v 288.252 2.5 -203.802
vt 0 1.25984
vn 0 -1 -0
v 288.252 2.5 -256.302
vt 0 2.6378
vt -0.472441 2.6378
vt -0.472441 1.73228
vt -3.8189 1.73228
vt -3.34646 0
vt -3.34646 1.25984
f 15/23/6 16/24/6 13/25/6 12/26/6 14/27/6 3/20/6 2/28/6 6/29/6 

vn -1 9.39989e-16 -0
vt -2.6378 0.472441
vt -2.6378 0
f 15/8/7 10/7/7 9/30/7 16/31/7 

vt 4.44089e-16 0.472441
f 6/2/1 5/1/1 10/32/1 15/5/1 

vt -4.44089e-16 0.472441
f 9/33/5 8/22/5 13/21/5 16/5/5 

g Mesh2 Component_8_1 Model

v 348.586 21 -301.091
vt 0.0532782 1.27249
v 365.814 21 -311.507
vt 0.731531 1.68256
v 364.867 21 -358.365
vt 0.694262 3.5274
f 17/34/3 18/35/3 19/36/3

v 407.274 21 -268.77
vt 2.36385 0
f 18/35/3 17/34/3 20/37/3

v 348.586 4.51195e-14 -301.091
vt -0.567187 0
vn -0.482406 0 0.875948
v 407.274 4.51195e-14 -268.77
vt 2.07061 0
vt 2.07061 0.826772
vt -0.567187 0.826772
f 21/38/8 22/39/8 20/40/8 17/41/8 

vt -0.0532782 1.27249
v 365.814 4.51195e-14 -311.507
vt -0.731531 1.68256
vt -2.36385 0
f 21/42/6 23/43/6 22/44/6

v 364.867 4.51195e-14 -358.365
vt -0.694262 3.5274
f 23/43/6 21/42/6 24/45/6

v 347.233 4.51195e-14 -368.077
vt 0 3.90975
f 25/46/6 24/45/6 21/42/6

v 404.568 4.51195e-14 -402.742
vt -2.25729 5.27451
f 24/45/6 25/46/6 26/47/6

vt -4.66066 0
vn -0.51739 0 -0.85575
vt -2.02286 0
v 347.233 21 -368.077
vt -2.02286 0.826772
v 404.568 21 -402.742
vt -4.66066 0.826772
f 26/48/9 25/49/9 27/50/9 28/51/9 

vt -3.90895 0
vn -0.999796 0 0.020198
vt -1.27115 0
vt -1.27115 0.826772
vt -3.90895 0.826772
f 25/52/10 21/53/10 17/54/10 27/55/10 

f 19/36/3 27/46/3 17/34/3

vt 2.25729 5.27451
f 27/46/3 19/36/3 28/56/3

v 404.975 21 -382.615
vt 2.2733 4.48209
f 28/56/3 19/36/3 29/57/3

vt 2.41915 0
vn 0.51739 0 0.85575
v 404.975 4.51195e-14 -382.615
vt 4.26437 0
vt 4.26437 0.826772
vt 2.41915 0.826772
f 24/58/11 30/59/11 29/60/11 19/61/11 

vt -2.2733 4.48209
f 24/45/6 26/47/6 30/62/6

v 463.256 4.51195e-14 -370.421
vt -4.56786 4.00203
f 30/62/6 26/47/6 31/63/6

vt -2.07061 0
vn 0.482406 0 -0.875948
vt 0.567187 0
vt 0.567187 0.826772
v 463.256 21 -370.421
vt -2.07061 0.826772
f 31/64/12 26/65/12 28/66/12 32/67/12 

vt 4.56786 4.00203
f 28/56/3 29/57/3 32/68/3

v 446.029 21 -360.005
vt 3.88961 3.59195
f 32/68/3 29/57/3 33/69/3

vt -0.170895 0
v 446.029 4.51195e-14 -360.005
vt 1.67432 0
vt 1.67432 0.826772
vt -0.170895 0.826772
f 30/70/8 34/71/8 33/72/8 29/73/8 

vt -3.88961 3.59195
f 30/62/6 31/63/6 34/74/6

v 446.975 4.51195e-14 -313.146
vt -3.92688 1.74712
f 34/74/6 31/63/6 35/75/6

v 464.61 4.51195e-14 -303.435
vt -4.62114 1.36477
f 36/76/6 35/75/6 31/63/6

f 22/44/6 35/75/6 36/76/6

v 406.868 4.51195e-14 -288.897
vt -2.34784 0.792422
f 22/44/6 37/77/6 35/75/6

f 22/44/6 23/43/6 37/77/6

vt -1.67432 0
vt 0.170895 0
vt 0.170895 0.826772
v 406.868 21 -288.897
vt -1.67432 0.826772
f 37/78/12 23/79/12 18/80/12 38/81/12 

vt 1.66744 0
vn 0.999796 0 -0.020198
vt 3.51266 0
vt 3.51266 0.826772
vt 1.66744 0.826772
f 23/82/13 24/83/13 19/84/13 18/85/13 

vt 2.34784 0.792422
f 18/35/3 20/37/3 38/86/3

v 446.975 21 -313.146
vt 3.92688 1.74712
f 38/86/3 20/37/3 39/87/3

v 464.61 21 -303.435
vt 4.62114 1.36477
f 39/87/3 20/37/3 40/88/3

vt 2.02286 0
vt 4.66066 0
vt 4.66066 0.826772
vt 2.02286 0.826772
f 22/89/11 36/90/11 40/91/11 20/92/11 

vt 1.27115 0
vt 3.90895 0
vt 3.90895 0.826772
vt 1.27115 0.826772
f 36/93/13 31/94/13 32/95/13 40/96/13 

f 39/87/3 40/88/3 32/68/3

f 32/68/3 33/69/3 39/87/3

vt -3.51266 0
vt -1.66744 0
vt -1.66744 0.826772
vt -3.51266 0.826772
f 34/97/10 35/98/10 39/99/10 33/100/10 

vt -4.26437 0
vt -2.41915 0
vt -2.41915 0.826772
vt -4.26437 0.826772
f 35/101/9 37/102/9 38/103/9 39/104/9 

