# Alias OBJ Model File
# Exported from SketchUp, (c) 2000-2012 Trimble Navigation Limited
# File units = millimeters

mtllib cube.mtl

g Mesh1 Component_1_1 Model

usemtl FrontColor
v 1606.14 0 -429.989
vt 0 0
vn 0 0 1
v 1798.29 0 -429.989
vt 24.8031 0
v 1798.29 151.89 -429.989
vt 24.8031 19.6063
v 1606.14 151.89 -429.989
vt 0 19.6063
f 1/1/1 2/2/1 3/3/1 4/4/1 

vt -24.8031 0
vn 0 -1 -0
v 1606.14 0 -622.139
vt 0 24.8031
v 1798.29 0 -622.139
vt -24.8031 24.8031
f 2/5/2 1/1/2 5/6/2 6/7/2 

vn -1 0 -0
v 1606.14 151.89 -622.139
vt -24.8031 19.6063
f 5/5/3 1/1/3 4/4/3 7/8/3 

vn 0 1 -0
v 1798.29 151.89 -622.139
vt 24.8031 24.8031
f 4/1/4 3/2/4 8/9/4 7/6/4 

vn 1 0 -0
f 2/1/5 6/2/5 8/3/5 3/4/5 

vn 0 0 -1
f 6/5/6 5/1/6 7/4/6 8/8/6 

g Mesh2 Component_2_1 Model

v 1779.49 0 -612.802
vt -3.40171 19.8266
v 1798.12 0 -627.101
vt -5.80709 21.6723
v 1819.82 0 -636.089
vt -8.6082 22.8326
v 1843.11 0 -639.155
vt -11.6142 23.2283
v 1866.4 0 -636.089
vt -14.6201 22.8326
v 1888.1 0 -627.101
vt -17.4213 21.6723
v 1906.73 0 -612.802
vt -19.8266 19.8266
v 1921.03 0 -594.168
vt -21.6723 17.4213
v 1930.02 0 -572.468
vt -22.8326 14.6201
v 1933.08 0 -549.18
vt -23.2283 11.6142
v 1930.02 0 -525.893
vt -22.8326 8.6082
v 1921.03 0 -504.193
vt -21.6723 5.80709
v 1906.73 0 -485.558
vt -19.8266 3.40171
v 1888.1 0 -471.26
vt -17.4213 1.556
v 1866.4 0 -462.271
vt -14.6201 0.395743
v 1843.11 0 -459.205
vt -11.6142 0
v 1819.82 0 -462.271
vt -8.6082 0.395743
v 1798.12 0 -471.26
vt -5.80709 1.556
v 1779.49 0 -485.558
vt -3.40171 3.40171
v 1765.19 0 -504.193
vt -1.556 5.80709
v 1756.2 0 -525.893
vt -0.395743 8.6082
v 1753.13 0 -549.18
vt 0 11.6142
v 1756.2 0 -572.468
vt -0.395743 14.6201
v 1765.19 0 -594.168
vt -1.556 17.4213
f 9/10/2 10/11/2 11/12/2 12/13/2 13/14/2 14/15/2 15/16/2 16/17/2 17/18/2 18/19/2 19/20/2 20/21/2 21/22/2 22/23/2 23/24/2 24/25/2 25/26/2 26/27/2 27/28/2 28/29/2 29/30/2 30/31/2 31/32/2 32/33/2 

vt -17.8004 0
vn -0.5 0 -0.866025
vt -14.7685 0
vn -0.707107 0 -0.707107
v 1779.49 301.035 -612.802
vt -14.7685 38.8583
v 1798.12 301.035 -627.101
vt -17.8004 38.8583
f 10/34/7 9/35/8 33/36/8 34/37/7 

vn -0.866025 0 -0.5
v 1765.19 301.035 -594.168
f 9/34/8 32/35/9 35/36/9 33/37/8 

vt -16.6906 0
vt -13.6587 0
vn -0.965926 0 -0.258819
v 1756.2 301.035 -572.468
vt -13.6587 38.8583
vt -16.6906 38.8583
f 32/38/9 31/39/10 36/40/10 35/41/9 

vt -14.5467 0
vt -11.5148 0
vn -1 0 2.23961e-16
v 1753.13 301.035 -549.18
vt -11.5148 38.8583
vt -14.5467 38.8583
f 31/42/10 30/43/11 37/44/11 36/45/10 

vt -8.4829 0
vn -0.965926 0 0.258819
v 1756.2 301.035 -525.893
vt -8.4829 38.8583
f 30/43/11 29/46/12 38/47/12 37/44/11 

vt -7.8015 0
vt -4.76959 0
vn -0.866025 0 0.5
v 1765.19 301.035 -504.193
vt -4.76959 38.8583
vt -7.8015 38.8583
f 29/48/12 28/49/13 39/50/13 38/51/12 

vt -3.65984 0
vt -0.627929 0
vn -0.707107 0 0.707107
v 1779.49 301.035 -485.558
vt -0.627929 38.8583
vt -3.65984 38.8583
f 28/52/13 27/53/14 40/54/14 39/55/13 

vt 0.627929 0
vt 3.65984 0
vn -0.5 0 0.866025
v 1798.12 301.035 -471.26
vt 3.65984 38.8583
vt 0.627929 38.8583
f 27/56/14 26/57/15 41/58/15 40/59/14 

vt 4.76959 0
vt 7.8015 0
vn -0.258819 0 0.965926
v 1819.82 301.035 -462.271
vt 7.8015 38.8583
vt 4.76959 38.8583
f 26/60/15 25/61/16 42/62/16 41/63/15 

vt 8.4829 0
vt 11.5148 0
vn -2.79951e-16 0 1
v 1843.11 301.035 -459.205
vt 11.5148 38.8583
vt 8.4829 38.8583
f 25/64/16 24/65/17 43/66/17 42/67/16 

vt 14.5467 0
vn 0.258819 0 0.965926
v 1866.4 301.035 -462.271
vt 14.5467 38.8583
f 24/65/17 23/68/18 44/69/18 43/66/17 

vt 13.6587 0
vt 16.6906 0
vn 0.5 0 0.866025
v 1888.1 301.035 -471.26
vt 16.6906 38.8583
vt 13.6587 38.8583
f 23/70/18 22/71/19 45/72/19 44/73/18 

vt 14.7685 0
vt 17.8004 0
vn 0.707107 0 0.707107
v 1906.73 301.035 -485.558
vt 17.8004 38.8583
vt 14.7685 38.8583
f 22/74/19 21/75/20 46/76/20 45/77/19 

vn 0.866025 0 0.5
v 1921.03 301.035 -504.193
f 21/74/20 20/75/21 47/76/21 46/77/20 

vn 0.965926 0 0.258819
v 1930.02 301.035 -525.893
f 20/70/21 19/71/22 48/72/22 47/73/21 

vn 1 0 -2.37958e-16
v 1933.08 301.035 -549.18
f 19/65/22 18/68/23 49/69/23 48/66/22 

vn 0.965926 0 -0.258819
v 1930.02 301.035 -572.468
f 18/64/23 17/65/24 50/66/24 49/67/23 

vn 0.866025 0 -0.5
v 1921.03 301.035 -594.168
f 17/60/24 16/61/25 51/62/25 50/63/24 

vn 0.707107 0 -0.707107
v 1906.73 301.035 -612.802
f 16/56/25 15/57/26 52/58/26 51/59/25 

vn 0.5 0 -0.866025
v 1888.1 301.035 -627.101
f 15/52/26 14/53/27 53/54/27 52/55/26 

vn 0.258819 0 -0.965926
v 1866.4 301.035 -636.089
f 14/48/27 13/49/28 54/50/28 53/51/27 

v 1843.11 301.035 -639.155
f 13/43/28 12/46/6 55/47/6 54/44/28 

vn -0.258819 0 -0.965926
v 1819.82 301.035 -636.089
f 12/42/6 11/43/29 56/44/29 55/45/6 

f 11/38/29 10/39/7 34/40/7 56/41/29 

vt 5.80709 21.6723
vt 3.40171 19.8266
vt 1.556 17.4213
vt 0.395743 14.6201
vt 0.395743 8.6082
vt 1.556 5.80709
vt 3.40171 3.40171
vt 5.80709 1.556
vt 8.6082 0.395743
vt 11.6142 0
vt 14.6201 0.395743
vt 17.4213 1.556
vt 19.8266 3.40171
vt 21.6723 5.80709
vt 22.8326 8.6082
vt 23.2283 11.6142
vt 22.8326 14.6201
vt 21.6723 17.4213
vt 19.8266 19.8266
vt 17.4213 21.6723
vt 14.6201 22.8326
vt 11.6142 23.2283
vt 8.6082 22.8326
f 34/78/4 33/79/4 35/80/4 36/81/4 37/31/4 38/82/4 39/83/4 40/84/4 41/85/4 42/86/4 43/87/4 44/88/4 45/89/4 46/90/4 47/91/4 48/92/4 49/93/4 50/94/4 51/95/4 52/96/4 53/97/4 54/98/4 55/99/4 56/100/4 

