# Alias OBJ Model File
# Exported from SketchUp, (c) 2000-2012 Trimble Navigation Limited
# File units = inches

mtllib 88.mtl

g Mesh1 Model

usemtl FrontColor
v 1606.14 -429.989 -0
vt 1606.14 0
vn 0 1 -0
v 1798.29 -429.989 -0
vt 1798.29 0
v 1798.29 -429.989 -151.89
vt 1798.29 151.89
f 1/1/1 2/2/1 3/3/1

vt 1798.29 -429.989
vn 0 0 1
vt 1606.14 -429.989
v 1606.14 -622.139 -0
vt 1606.14 -622.139
f 2/4/2 1/5/2 4/6/2

vt 0 -622.139
vn -1 0 -0
vt 0 -429.989
v 1606.14 -429.989 -151.89
vt -151.89 -429.989
f 4/7/3 1/8/3 5/9/3

vt 1606.14 151.89
f 3/3/1 5/10/1 1/1/1

vt -1606.14 -429.989
vn 0 0 -1
vt -1798.29 -429.989
v 1798.29 -622.139 -151.89
vt -1798.29 -622.139
f 5/11/4 3/12/4 6/13/4

vt 151.89 -622.139
vn 1 0 -0
vt 151.89 -429.989
f 6/14/5 3/15/5 2/8/5

v 1798.29 -622.139 -0
f 2/8/5 7/7/5 6/14/5

vt 1798.29 -622.139
f 4/6/2 7/16/2 2/4/2

vt -1798.29 0
vn 0 -1 -0
vt -1606.14 0
v 1606.14 -622.139 -151.89
vt -1606.14 151.89
f 7/17/6 4/18/6 8/19/6

vt -151.89 -622.139
f 5/9/3 8/20/3 4/7/3

vt -1606.14 -622.139
f 6/13/4 8/21/4 5/11/4

vt -1798.29 151.89
f 8/19/6 6/22/6 7/17/6

g Mesh2 Model

v 1861.74 -612.802 -0
vt 1861.74 -612.802
v 1880.37 -627.101 -0
vt 1880.37 -627.101
v 1902.07 -636.089 -0
vt 1902.07 -636.089
f 9/23/2 10/24/2 11/25/2

vt 0 -1873.47
vn -0.608861 -0.793277 -0
vt 0 -1849.99
v 1861.74 -612.802 -301.035
vt -301.035 -1849.99
f 10/26/7 9/27/7 12/28/7

v 1847.44 -594.168 -301.035
vt -301.035 -1596.1
vn -0.793318 -0.608807 -4.40255e-18
vt -301.035 -1619.59
vt -1.03318e-14 -1619.59
f 13/29/8 12/30/8 9/31/8

v 1880.37 -627.101 -301.035
vt -1880.37 -627.101
vt -1861.74 -612.802
vt -1847.44 -594.168
f 14/32/4 12/33/4 13/34/4

vt -301.035 -1873.47
f 12/28/7 14/35/7 10/26/7

vt -1.8792e-14 -2000.71
vn -0.382668 -0.923886 -3.78067e-18
vt -1.85776e-14 -1977.22
vt -301.035 -1977.22
f 11/36/9 10/37/9 14/38/9

vn -0.382668 -0.923886 3.78067e-18
v 1902.07 -636.089 -301.035
vt -301.035 -2000.71
vt 1.8792e-14 -2000.71
f 14/38/10 15/39/10 11/40/10

v 1925.36 -639.155 -301.035
vt -1925.36 -639.155
vt -1902.07 -636.089
f 16/41/4 15/42/4 14/32/4

vt -301.035 -1968.82
vn -0.13052 -0.991446 -8.80513e-19
vt -301.035 -1992.31
v 1925.36 -639.155 -0
vt -1.29889e-14 -1992.31
f 15/43/11 16/44/11 17/45/11

v 1948.65 -636.089 -0
vt 1.3146e-14 1848.96
vn 0.13052 -0.991446 8.80513e-19
vt 1.29889e-14 1825.47
vt 301.035 1825.47
f 18/46/12 17/47/12 16/48/12

vt 1925.36 -639.155
vt 1948.65 -636.089
f 17/49/2 18/50/2 9/23/2

v 1970.35 -627.101 -0
vt 1970.35 -627.101
f 18/50/2 19/51/2 9/23/2

vt -1.94666e-14 1580.41
vn 0.382668 -0.923886 -3.78067e-18
vt -1.92522e-14 1556.92
v 1948.65 -636.089 -301.035
vt 301.035 1556.92
f 19/52/13 18/53/13 20/54/13

vn 0.13052 -0.991446 -0
vt 301.035 1848.96
vt 0 1848.96
f 16/48/14 20/55/14 18/56/14

vt -1948.65 -636.089
f 20/57/4 16/41/4 14/32/4

v 1970.35 -627.101 -301.035
vt -1970.35 -627.101
f 21/58/4 20/57/4 14/32/4

vn 0.382668 -0.923886 3.78067e-18
vt 301.035 1580.41
vt 1.94666e-14 1580.41
f 20/54/15 21/59/15 19/60/15

v 1988.98 -612.802 -0
vt 0 1204.7
vn 0.608861 -0.793277 -0
vt 0 1181.22
vt 301.035 1181.22
f 22/61/16 19/62/16 21/63/16

vt 1988.98 -612.802
f 19/51/2 22/64/2 9/23/2

v 2003.28 -594.168 -0
vt 2003.28 -594.168
f 22/64/2 23/65/2 9/23/2

vt 1.11173e-14 748.246
vn 0.793318 -0.608807 4.40255e-18
vt 1.10379e-14 724.758
v 1988.98 -612.802 -301.035
vt 301.035 724.758
f 23/66/17 22/67/17 24/68/17

vt 301.035 1204.7
f 21/63/16 24/69/16 22/61/16

vt -1988.98 -612.802
f 24/70/4 21/58/4 14/32/4

v 2003.28 -594.168 -301.035
vt -2003.28 -594.168
f 25/71/4 24/70/4 14/32/4

vn 0.793318 -0.608807 8.8051e-18
vt 301.035 748.246
vt 2.22345e-14 748.246
f 24/68/18 25/72/18 23/73/18

v 2012.27 -572.468 -0
vt 0 241.298
vn 0.923856 -0.38274 -0
vt 0 217.809
vt 301.035 217.809
f 26/74/19 23/75/19 25/76/19

vt 2012.27 -572.468
f 23/65/2 26/77/2 9/23/2

v 2015.33 -549.18 -0
vt 2015.33 -549.18
f 26/77/2 27/78/2 9/23/2

vt -3.58029e-15 -281.952
vn 0.991478 -0.130276 -1.76139e-18
vt -3.57485e-15 -305.44
v 2012.27 -572.468 -301.035
vt 301.035 -305.44
f 27/79/20 26/80/20 28/81/20

vt 301.035 241.298
f 25/76/19 28/82/19 26/74/19

vt -2012.27 -572.468
f 28/83/4 25/71/4 14/32/4

v 2015.33 -549.18 -301.035
vt -2015.33 -549.18
f 29/84/4 28/83/4 14/32/4

vn 0.991478 -0.130276 -0
vt 301.035 -281.952
vt 0 -281.952
f 28/81/21 29/85/21 27/86/21

v 2012.27 -525.893 -0
vt 0 -783.572
vn 0.991477 0.130281 -0
vt 0 -807.059
vt 301.035 -807.059
f 30/87/22 27/88/22 29/89/22

vt 2012.27 -525.893
f 27/78/2 30/90/2 9/23/2

v 2003.28 -504.193 -0
vt 2003.28 -504.193
f 30/90/2 31/91/2 9/23/2

vt 0 -1232.54
vn 0.923856 0.38274 -0
vt 0 -1256.03
v 2012.27 -525.893 -301.035
vt 301.035 -1256.03
f 31/92/23 30/93/23 32/94/23

vt 301.035 -783.572
f 29/89/22 32/95/22 30/87/22

vt -2012.27 -525.893
f 32/96/4 29/84/4 14/32/4

v 2003.28 -504.193 -301.035
vt -2003.28 -504.193
f 33/97/4 32/96/4 14/32/4

vt 301.035 -1232.54
f 32/94/23 33/98/23 31/92/23

v 1988.98 -485.558 -0
vt 1.10367e-14 -1596.07
vn 0.793334 0.608786 4.40216e-18
vt 1.11161e-14 -1619.56
vt 301.035 -1619.56
f 34/99/24 31/100/24 33/101/24

vt 1988.98 -485.558
f 31/91/2 34/102/2 9/23/2

v 1970.35 -471.26 -0
vt 1970.35 -471.26
f 34/102/2 35/103/2 9/23/2

vn 0.608834 0.793298 -0
vt 0 -1873.48
v 1988.98 -485.558 -301.035
vt 301.035 -1873.48
f 35/27/25 34/104/25 36/105/25

vn 0.793334 0.608786 -0
vt 301.035 -1596.07
vt 0 -1596.07
f 33/101/26 36/106/26 34/107/26

vt -1988.98 -485.558
f 36/108/4 33/97/4 14/32/4

v 1970.35 -471.26 -301.035
vt -1970.35 -471.26
f 37/109/4 36/108/4 14/32/4

vt 301.035 -1849.99
f 36/105/25 37/110/25 35/27/25

v 1948.65 -462.271 -0
vt 0 -1977.21
vn 0.382705 0.923871 -0
vt 0 -2000.7
vt 301.035 -2000.7
f 38/111/27 35/112/27 37/113/27

vt 1948.65 -462.271
f 35/103/2 38/114/2 9/23/2

v 1925.36 -459.205 -0
vt 1925.36 -459.205
f 38/114/2 39/115/2 9/23/2

vt -1.2989e-14 -1968.82
vn 0.130519 0.991446 -8.80513e-19
vt -1.31461e-14 -1992.32
v 1948.65 -462.271 -301.035
vt 301.035 -1992.32
f 39/116/28 38/117/28 40/118/28

vt 301.035 -1977.21
f 37/113/27 40/119/27 38/111/27

vt -1948.65 -462.271
f 40/120/4 37/109/4 14/32/4

v 1925.36 -459.205 -301.035
vt -1925.36 -459.205
f 41/121/4 40/120/4 14/32/4

vt 301.035 -1968.82
f 40/118/28 41/122/28 39/116/28

v 1902.07 -462.271 -0
vt 1.28319e-14 1825.46
vn -0.130519 0.991446 8.80513e-19
vt 1.2989e-14 1848.96
vt -301.035 1848.96
f 42/123/29 39/124/29 41/125/29

vt 1902.07 -462.271
f 39/115/2 42/126/2 9/23/2

v 1880.37 -471.26 -0
vt 1880.37 -471.26
f 42/126/2 43/127/2 9/23/2

vt 0 1556.86
vn -0.382705 0.923871 -0
vt 0 1580.35
v 1902.07 -462.271 -301.035
vt -301.035 1580.35
f 43/128/30 42/129/30 44/130/30

vt -301.035 1825.46
f 41/125/29 44/131/29 42/123/29

vt -1902.07 -462.271
f 44/132/4 41/121/4 14/32/4

v 1880.37 -471.26 -301.035
vt -1880.37 -471.26
f 45/133/4 44/132/4 14/32/4

vt -301.035 1556.86
f 44/130/30 45/134/30 43/128/30

v 1861.74 -485.558 -0
vt 0 1181.29
vn -0.608834 0.793298 -0
vt 0 1204.77
vt -301.035 1204.77
f 46/135/31 43/136/31 45/137/31

vt 1861.74 -485.558
f 43/127/2 46/138/2 9/23/2

v 1847.44 -504.193 -0
vt 1847.44 -504.193
f 46/138/2 47/139/2 9/23/2

vt 0 724.702
vn -0.793334 0.608786 -0
vt 0 748.192
v 1861.74 -485.558 -301.035
vt -301.035 748.192
f 47/140/32 46/141/32 48/142/32

vt -301.035 1181.29
f 45/137/31 48/143/31 46/135/31

vt -1861.74 -485.558
f 48/144/4 45/133/4 14/32/4

v 1847.44 -504.193 -301.035
vt -1847.44 -504.193
f 49/145/4 48/144/4 14/32/4

vt -301.035 724.702
f 48/142/32 49/146/32 47/140/32

v 1838.45 -525.893 -0
vt 0 217.798
vn -0.923856 0.38274 -0
vt 0 241.287
vt -301.035 241.287
f 50/147/33 47/148/33 49/149/33

vt 1838.45 -525.893
f 47/139/2 50/150/2 9/23/2

v 1835.38 -549.18 -0
vt 1835.38 -549.18
f 50/150/2 51/151/2 9/23/2

vt 0 -304.585
vn -0.991422 0.1307 -0
vt 0 -281.096
v 1838.45 -525.893 -301.035
vt -301.035 -281.096
f 51/152/34 50/153/34 52/154/34

vt -301.035 217.798
f 49/149/33 52/155/33 50/147/33

vt -1838.45 -525.893
f 52/156/4 49/145/4 14/32/4

v 1835.38 -549.18 -301.035
vt -1835.38 -549.18
f 53/157/4 52/156/4 14/32/4

vt -301.035 -304.585
f 52/154/34 53/158/34 51/152/34

v 1838.45 -572.468 -0
vt 1.63303e-15 -807.833
vn -0.991423 -0.130694 8.80645e-19
vt 1.6303e-15 -784.343
vt -301.035 -784.343
f 54/159/35 51/160/35 53/161/35

vt 1838.45 -572.468
f 51/151/2 54/162/2 9/23/2

v 1847.44 -594.168 -0
vt 1847.44 -594.168
f 54/162/2 55/163/2 9/23/2

vt 0 -1256.01
vn -0.923856 -0.38274 -0
vt 0 -1232.53
v 1838.45 -572.468 -301.035
vt -301.035 -1232.53
f 55/164/36 54/165/36 56/166/36

vn -0.991423 -0.130694 -8.80645e-19
vt -301.035 -807.833
vt -1.63303e-15 -807.833
f 53/161/37 56/167/37 54/168/37

vt -1838.45 -572.468
f 56/169/4 53/157/4 14/32/4

f 13/34/4 56/169/4 14/32/4

vt -301.035 -1256.01
f 56/166/36 13/170/36 55/164/36

vt -1.02524e-14 -1596.1
f 9/31/8 55/171/8 13/29/8

f 11/25/2 17/49/2 9/23/2

vt -1.28317e-14 -1968.82
f 17/45/11 11/172/11 15/43/11

