# Alias OBJ Model File
# Exported from SketchUp, (c) 2000-2012 Trimble Navigation Limited
# File units = millimeters

mtllib ff.mtl

g Mesh1 Component_1_1 Model

usemtl FrontColor
v 1606.14 0 -429.989
vt 0 0
vn 0 0 1
v 1798.29 0 -429.989
vt 24.8031 0
v 1798.29 151.89 -429.989
vt 24.8031 19.6063
v 1606.14 151.89 -429.989
vt 0 19.6063
f 1/1/1 2/2/1 3/3/1 4/4/1 

vt -24.8031 0
vn 0 -1 -0
v 1606.14 0 -622.139
vt 0 24.8031
v 1798.29 0 -622.139
vt -24.8031 24.8031
f 2/5/2 1/1/2 5/6/2 6/7/2 

vn -1 0 -0
v 1606.14 151.89 -622.139
vt -24.8031 19.6063
f 5/5/3 1/1/3 4/4/3 7/8/3 

vn 0 1 -0
v 1798.29 151.89 -622.139
vt 24.8031 24.8031
f 4/1/4 3/2/4 8/9/4 7/6/4 

vn 1 0 -0
f 2/1/5 6/2/5 8/3/5 3/4/5 

vn 0 0 -1
f 6/5/6 5/1/6 7/4/6 8/8/6 

g Mesh2 Component_1_2 Model

v 1868.14 0 -429.989
v 2060.29 0 -429.989
v 2060.29 151.89 -429.989
v 1868.14 151.89 -429.989
f 9/1/1 10/2/1 11/3/1 12/4/1 

v 1868.14 0 -622.139
v 2060.29 0 -622.139
f 10/5/2 9/1/2 13/6/2 14/7/2 

v 1868.14 151.89 -622.139
f 13/5/3 9/1/3 12/4/3 15/8/3 

v 2060.29 151.89 -622.139
f 12/1/4 11/2/4 16/9/4 15/6/4 

f 10/1/5 14/2/5 16/3/5 11/4/5 

f 14/5/6 13/1/6 15/4/6 16/8/6 

