# Alias OBJ Model File
# Exported from SketchUp, (c) 2000-2012 Trimble Navigation Limited
# File units = millimeters

mtllib h.mtl

g Mesh1 Component_1_1 Model

usemtl FrontColor
v 1606.14 0 -429.989
vt 0 0
vn 0 0 1
v 1798.29 0 -429.989
vt 24.8031 0
v 1798.29 151.89 -429.989
vt 24.8031 19.6063
v 1606.14 151.89 -429.989
vt 0 19.6063
f 1/1/1 2/2/1 3/3/1 4/4/1 

vt -24.8031 0
vn 0 -1 -0
v 1606.14 0 -622.139
vt 0 24.8031
v 1798.29 0 -622.139
vt -24.8031 24.8031
f 2/5/2 1/1/2 5/6/2 6/7/2 

vn -1 0 -0
v 1606.14 151.89 -622.139
vt -24.8031 19.6063
f 5/5/3 1/1/3 4/4/3 7/8/3 

vn 0 1 -0
v 1798.29 151.89 -622.139
vt 24.8031 24.8031
f 4/1/4 3/2/4 8/9/4 7/6/4 

vn 1 0 -0
f 2/1/5 6/2/5 8/3/5 3/4/5 

vn 0 0 -1
f 6/5/6 5/1/6 7/4/6 8/8/6 

g Mesh2 Model

v 1936.66 0 -600.424
vt -7.20843 0
vn 0.945952 0 -0.324308
v 1932.19 0 -611.268
vt -6.74661 0
vn 0.899647 0 -0.436618
v 1932.19 79 -611.268
vt -6.74661 3.11024
v 1936.66 79 -600.424
vt -7.20843 3.11024
f 9/10/7 10/11/8 11/12/8 12/13/7 

v 1749.29 0 -531.591
vt -68.8697 20.9288
v 1892.55 0 -653.325
vt -74.51 25.7214
v 1902.42 0 -646.975
vt -74.8983 25.4715
v 1911.44 0 -639.477
vt -75.2535 25.1763
v 1919.48 0 -630.94
vt -75.5702 24.8402
v 1926.43 0 -621.491
vt -75.8438 24.4681
vt -76.0703 24.0657
vt -76.2464 23.6387
v 1939.78 0 -589.117
vt -76.3693 23.1936
v 1941.51 0 -577.515
vt -76.4374 22.7368
v 1941.82 0 -565.789
vt -76.4496 22.2752
v 1940.7 0 -554.112
vt -76.4057 21.8154
v 1938.18 0 -542.656
vt -76.3064 21.3644
v 1934.29 0 -531.591
vt -76.1531 20.9288
f 13/14/2 14/15/2 15/16/2 16/17/2 17/18/2 18/19/2 10/20/2 9/21/2 19/22/2 20/23/2 21/24/2 22/25/2 23/26/2 24/27/2 

vt -73.4354 0
vn -0.647521 0 -0.762048
vt -66.0338 0
v 1749.29 79 -531.591
vt -66.0338 3.11024
v 1892.55 79 -653.325
vt -73.4354 3.11024
f 14/28/9 13/29/9 25/30/9 26/31/9 

vt 68.8697 0
vt 76.1531 0
v 1934.29 79 -531.591
vt 76.1531 3.11024
vt 68.8697 3.11024
f 13/32/1 24/33/1 27/34/1 25/35/1 

vt 45.0151 0
vn 0.943328 0 0.331862
vt 45.4769 0
vn 0.961744 0 0.273951
v 1938.18 79 -542.656
vt 45.4769 3.11024
vt 45.0151 3.11024
f 24/36/10 23/37/11 28/38/11 27/39/10 

vt 37.2727 0
vt 37.7345 0
vn 0.987865 0 0.155312
v 1940.7 79 -554.112
vt 37.7345 3.11024
vt 37.2727 3.11024
f 23/40/11 22/41/12 29/42/12 28/43/11 

vt 28.9769 0
vt 29.4388 0
vn 0.999409 0 0.0343808
v 1941.82 79 -565.789
vt 29.4388 3.11024
vt 28.9769 3.11024
f 22/44/12 21/45/13 30/46/13 29/47/12 

vt 20.2501 0
vt 20.7119 0
vn 0.996203 0 -0.087058
v 1941.51 79 -577.515
vt 20.7119 3.11024
vt 20.2501 3.11024
f 21/48/13 20/49/14 31/50/14 30/51/13 

vt 11.221 0
vt 11.6828 0
vn 0.978296 0 -0.207212
v 1939.78 79 -589.117
vt 11.6828 3.11024
vt 11.221 3.11024
f 20/52/14 19/53/15 32/54/15 31/55/14 

vt 2.02292 0
vt 2.48474 0
vt 2.48474 3.11024
vt 2.02292 3.11024
f 19/56/15 9/57/7 12/58/7 32/59/15 

vt 74.51 25.7214
vt 68.8697 20.9288
vt 76.1531 20.9288
vt 76.3064 21.3644
vt 76.4057 21.8154
vt 76.4496 22.2752
vt 76.4374 22.7368
vt 76.3693 23.1936
vt 76.2464 23.6387
vt 76.0703 24.0657
v 1926.43 79 -621.491
vt 75.8438 24.4681
v 1919.48 79 -630.94
vt 75.5702 24.8402
v 1911.44 79 -639.477
vt 75.2535 25.1763
v 1902.42 79 -646.975
vt 74.8983 25.4715
f 26/60/4 25/61/4 27/62/4 28/63/4 29/64/4 30/65/4 31/66/4 32/67/4 12/68/4 11/69/4 33/70/4 34/71/4 35/72/4 36/73/4 

vt -16.3368 0
vt -15.875 0
vn 0.840066 0 -0.542485
vt -15.875 3.11024
vt -16.3368 3.11024
f 10/74/8 18/75/16 33/76/16 11/77/8 

vt -25.2275 0
vt -24.7657 0
vn 0.768087 0 -0.640345
vt -24.7657 3.11024
vt -25.2275 3.11024
f 18/78/16 17/79/17 34/80/17 33/81/16 

vt -33.7493 0
vt -33.2875 0
vn 0.684773 0 -0.728756
vt -33.2875 3.11024
vt -33.7493 3.11024
f 17/82/17 16/83/18 35/84/18 34/85/17 

vt -41.7765 0
vt -41.3146 0
vn 0.591354 0 -0.806412
vt -41.3146 3.11024
vt -41.7765 3.11024
f 16/86/18 15/87/19 36/88/19 35/89/18 

vt -49.1905 0
vt -48.7287 0
vn 0.54128 0 -0.840842
vt -48.7287 3.11024
vt -49.1905 3.11024
f 15/90/19 14/91/20 26/92/20 36/93/19 

