# Alias OBJ Model File
# Exported from SketchUp, (c) 2000-2012 Trimble Navigation Limited
# File units = millimeters

mtllib hh.mtl

g Mesh1 Component_1_1 Model

usemtl FrontColor
v 1606.14 0 -429.989
vt 0 0
vn 0 0 1
v 1798.29 0 -429.989
vt 24.8031 0
v 1798.29 151.89 -429.989
vt 24.8031 19.6063
v 1606.14 151.89 -429.989
vt 0 19.6063
f 1/1/1 2/2/1 3/3/1 4/4/1 

vt -24.8031 0
vn 0 -1 -0
v 1606.14 0 -622.139
vt 0 24.8031
v 1798.29 0 -622.139
vt -24.8031 24.8031
f 2/5/2 1/1/2 5/6/2 6/7/2 

vn -1 0 -0
v 1606.14 151.89 -622.139
vt -24.8031 19.6063
f 5/5/3 1/1/3 4/4/3 7/8/3 

vn 0 1 -0
v 1798.29 151.89 -622.139
vt 24.8031 24.8031
f 4/1/4 3/2/4 8/9/4 7/6/4 

vn 1 0 -0
f 2/1/5 6/2/5 8/3/5 3/4/5 

vn 0 0 -1
f 6/5/6 5/1/6 7/4/6 8/8/6 

g Mesh2 Model

v 1997.43 0 -733.174
vt -3.28857 0
vn 0.945952 0 -0.324308
v 1992.96 0 -744.019
vt -2.82675 0
vn 0.899647 0 -0.436618
v 1992.96 79 -744.019
vt -2.82675 3.11024
v 1997.43 79 -733.174
vt -3.28857 3.11024
f 9/10/7 10/11/8 11/12/8 12/13/7 

v 1810.06 0 -664.341
vt -71.2623 26.1552
v 1953.33 0 -786.075
vt -76.9026 30.9478
v 1963.19 0 -779.726
vt -77.291 30.6979
v 1972.21 0 -772.228
vt -77.6461 30.4027
v 1980.26 0 -763.691
vt -77.9628 30.0666
v 1987.21 0 -754.241
vt -78.2365 29.6945
vt -78.463 29.2921
vt -78.639 28.8651
v 2000.55 0 -721.868
vt -78.7619 28.42
v 2002.28 0 -710.266
vt -78.83 27.9632
v 2002.59 0 -698.54
vt -78.8422 27.5016
v 2001.48 0 -686.863
vt -78.7983 27.0418
v 1998.95 0 -675.407
vt -78.699 26.5908
v 1995.06 0 -664.341
vt -78.5458 26.1552
f 13/14/2 14/15/2 15/16/2 16/17/2 17/18/2 18/19/2 10/20/2 9/21/2 19/22/2 20/23/2 21/24/2 22/25/2 23/26/2 24/27/2 

vt -78.6429 0
vn -0.647521 0 -0.762048
vt -71.2413 0
v 1810.06 79 -664.341
vt -71.2413 3.11024
v 1953.33 79 -786.075
vt -78.6429 3.11024
f 14/28/9 13/29/9 25/30/9 26/31/9 

vt 71.2623 0
vt 78.5458 0
v 1995.06 79 -664.341
vt 78.5458 3.11024
vt 71.2623 3.11024
f 13/32/1 24/33/1 27/34/1 25/35/1 

vt 50.7393 0
vn 0.943328 0 0.331862
vt 51.2011 0
vn 0.961744 0 0.273951
v 1998.95 79 -675.407
vt 51.2011 3.11024
vt 50.7393 3.11024
f 24/36/10 23/37/11 28/38/11 27/39/10 

vt 42.8914 0
vt 43.3532 0
vn 0.987865 0 0.155312
v 2001.48 79 -686.863
vt 43.3532 3.11024
vt 42.8914 3.11024
f 23/40/11 22/41/12 29/42/12 28/43/11 

vt 34.407 0
vt 34.8689 0
vn 0.999409 0 0.0343808
v 2002.59 79 -698.54
vt 34.8689 3.11024
vt 34.407 3.11024
f 22/44/12 21/45/13 30/46/13 29/47/12 

vt 25.4115 0
vt 25.8734 0
vn 0.996203 0 -0.087058
v 2002.28 79 -710.266
vt 25.8734 3.11024
vt 25.4115 3.11024
f 21/48/13 20/49/14 31/50/14 30/51/13 

vt 16.0376 0
vt 16.4994 0
vn 0.978296 0 -0.207212
v 2000.55 79 -721.868
vt 16.4994 3.11024
vt 16.0376 3.11024
f 20/52/14 19/53/15 32/54/15 31/55/14 

vt 6.42363 0
vt 6.88545 0
vt 6.88545 3.11024
vt 6.42363 3.11024
f 19/56/15 9/57/7 12/58/7 32/59/15 

vt 76.9026 30.9478
vt 71.2623 26.1552
vt 78.5458 26.1552
vt 78.699 26.5908
vt 78.7983 27.0418
vt 78.8422 27.5016
vt 78.83 27.9632
vt 78.7619 28.42
vt 78.639 28.8651
vt 78.463 29.2921
v 1987.21 79 -754.241
vt 78.2365 29.6945
v 1980.26 79 -763.691
vt 77.9628 30.0666
v 1972.21 79 -772.228
vt 77.6461 30.4027
v 1963.19 79 -779.726
vt 77.291 30.6979
f 26/60/4 25/61/4 27/62/4 28/63/4 29/64/4 30/65/4 31/66/4 32/67/4 12/68/4 11/69/4 33/70/4 34/71/4 35/72/4 36/73/4 

vt -12.9557 0
vt -12.4938 0
vn 0.840066 0 -0.542485
vt -12.4938 3.11024
vt -12.9557 3.11024
f 10/74/8 18/75/16 33/76/16 11/77/8 

vt -22.4349 0
vt -21.9731 0
vn 0.768087 0 -0.640345
vt -21.9731 3.11024
vt -22.4349 3.11024
f 18/78/16 17/79/17 34/80/17 33/81/16 

vt -31.5866 0
vt -31.1247 0
vn 0.684773 0 -0.728756
vt -31.1247 3.11024
vt -31.5866 3.11024
f 17/82/17 16/83/18 35/84/18 34/85/17 

vt -40.2754 0
vt -39.8136 0
vn 0.591354 0 -0.806412
vt -39.8136 3.11024
vt -40.2754 3.11024
f 16/86/18 15/87/19 36/88/19 35/89/18 

vt -48.3734 0
vt -47.9115 0
vn 0.54128 0 -0.840842
vt -47.9115 3.11024
vt -48.3734 3.11024
f 15/90/19 14/91/20 26/92/20 36/93/19 

