# Alias OBJ Model File
# Exported from SketchUp, (c) 2000-2012 Trimble Navigation Limited
# File units = millimeters

mtllib ii.mtl

g Mesh1 Component_1_1 Model

usemtl FrontColor
v 1606.14 0 -429.989
vt 0 0
vn 0 0 1
v 1798.29 0 -429.989
vt 24.8031 0
v 1798.29 151.89 -429.989
vt 24.8031 19.6063
v 1606.14 151.89 -429.989
vt 0 19.6063
f 1/1/1 2/2/1 3/3/1 4/4/1 

vt -24.8031 0
vn 0 -1 -0
v 1606.14 0 -622.139
vt 0 24.8031
v 1798.29 0 -622.139
vt -24.8031 24.8031
f 2/5/2 1/1/2 5/6/2 6/7/2 

vn -1 0 -0
v 1606.14 151.89 -622.139
vt -24.8031 19.6063
f 5/5/3 1/1/3 4/4/3 7/8/3 

vn 0 1 -0
v 1798.29 151.89 -622.139
vt 24.8031 24.8031
f 4/1/4 3/2/4 8/9/4 7/6/4 

vn 1 0 -0
f 2/1/5 6/2/5 8/3/5 3/4/5 

vn 0 0 -1
f 6/5/6 5/1/6 7/4/6 8/8/6 

g Mesh2 Model

v 1822.29 7.89 -429.989
vt 3.06343 0.31063
vn -0.962887 0 0.269904
v 1836.32 7.89 -379.919
vt 5.11067 0.31063
v 1836.32 151.89 -379.919
vt 5.11067 5.97992
v 1822.29 151.89 -429.989
vt 3.06343 5.97992
f 9/10/7 10/11/7 11/12/7 12/13/7 

v 1923.04 7.89 -404.228
vt -75.7104 15.9145
v 1886.7 7.89 -367.038
vt -74.2795 14.4503
vt -72.2961 14.9574
vt -71.7435 16.9287
v 1858.63 7.89 -467.178
vt -73.1744 18.3929
v 1909.01 7.89 -454.298
vt -75.1579 17.8858
f 13/14/2 14/15/2 10/16/2 9/17/2 15/18/2 16/19/2 

vt 62.2511 0.31063
vn 0.715187 0 0.698933
vt 64.2983 0.31063
v 1923.04 151.89 -404.228
vt 64.2983 5.97992
v 1886.7 151.89 -367.038
vt 62.2511 5.97992
f 14/20/8 13/21/8 17/22/8 18/23/8 

vt -5.11067 0.31063
vn 0.962887 0 -0.269904
vt -3.06343 0.31063
v 1909.01 151.89 -454.298
vt -3.06343 5.97992
vt -5.11067 5.97992
f 13/24/9 16/25/9 19/26/9 17/27/9 

vt -68.3854 0.31063
vn 0.2477 0 -0.968837
vt -66.3381 0.31063
v 1858.63 151.89 -467.178
vt -66.3381 5.97992
vt -68.3854 5.97992
f 16/28/10 15/29/10 20/30/10 19/31/10 

vt -64.2983 0.31063
vn -0.715187 0 -0.698933
vt -62.2511 0.31063
vt -62.2511 5.97992
vt -64.2983 5.97992
f 15/32/11 9/33/11 12/34/11 20/35/11 

vt 74.2795 14.4503
vt 75.7104 15.9145
vt 75.1579 17.8858
vt 73.1744 18.3929
vt 71.7435 16.9287
vt 72.2961 14.9574
f 18/36/4 17/37/4 19/38/4 20/39/4 12/40/4 11/41/4 

vt 66.3381 0.31063
vn -0.2477 0 0.968837
vt 68.3854 0.31063
vt 68.3854 5.97992
vt 66.3381 5.97992
f 10/42/12 14/43/12 18/44/12 11/45/12 

