# Alias OBJ Model File
# Exported from SketchUp, (c) 2000-2012 Trimble Navigation Limited
# File units = millimeters

mtllib kk.mtl

g Mesh1 Model

usemtl FrontColor
v 3005.6 0 -697.948
vt -93.8353 0
vn -0.707107 0 -0.707107
v 2992.1 0 -680.344
vt -92.9617 0
vn -0.866025 0 -0.5
v 2992.1 225 -680.344
vt -92.9617 8.85827
v 3005.6 225 -697.948
vt -93.8353 8.85827
f 1/1/1 2/2/2 3/3/2 4/4/1 

v 3108.21 0 -711.456
vt -122.37 28.0101
vn 0 -1 -0
v 3125.81 0 -697.948
vt -123.063 27.4783
v 3139.32 0 -680.344
vt -123.595 26.7852
v 3147.81 0 -659.844
vt -123.93 25.9781
v 3150.71 0 -637.844
vt -124.044 25.112
v 3147.81 0 -615.845
vt -123.93 24.2459
v 3139.32 0 -595.344
vt -123.595 23.4388
v 3125.81 0 -577.74
vt -123.063 22.7457
v 3108.21 0 -564.232
vt -122.37 22.2139
v 3087.71 0 -555.741
vt -121.563 21.8796
v 3065.71 0 -552.844
vt -120.697 21.7655
v 3043.71 0 -555.741
vt -119.831 21.8796
v 3023.21 0 -564.232
vt -119.024 22.2139
v 3005.6 0 -577.74
vt -118.331 22.7457
v 2992.1 0 -595.344
vt -117.799 23.4388
v 2983.6 0 -615.845
vt -117.465 24.2459
v 2980.71 0 -637.844
vt -117.351 25.112
v 2983.6 0 -659.844
vt -117.465 25.9781
vt -117.799 26.7852
vt -118.331 27.4783
v 3023.21 0 -711.456
vt -119.024 28.0101
v 3043.71 0 -719.948
vt -119.831 28.3444
v 3065.71 0 -722.844
vt -120.697 28.4584
v 3087.71 0 -719.948
vt -121.563 28.3444
f 5/5/3 6/6/3 7/7/3 8/8/3 9/9/3 10/10/3 11/11/3 12/12/3 13/13/3 14/14/3 15/15/3 16/16/3 17/17/3 18/18/3 19/19/3 20/20/3 21/21/3 22/22/3 2/23/3 1/24/3 23/25/3 24/26/3 25/27/3 26/28/3 

vt -80.9051 0
vn 0.707107 0 -0.707107
vt -80.0315 0
vn 0.5 0 -0.866025
v 3108.21 225 -711.456
vt -80.0315 8.85827
v 3125.81 225 -697.948
vt -80.9051 8.85827
f 6/29/4 5/30/5 27/31/5 28/32/4 

vt -102.337 0
vt -101.463 0
vn 0.258819 0 -0.965926
v 3087.71 225 -719.948
vt -101.463 8.85827
vt -102.337 8.85827
f 5/33/5 26/34/6 29/35/6 27/36/5 

vt -116.824 0
vt -115.95 0
vn 0 0 -1
v 3065.71 225 -722.844
vt -115.95 8.85827
vt -116.824 8.85827
f 26/37/6 25/38/7 30/39/7 29/40/6 

vt -123.379 0
vt -122.506 0
vn -0.258819 0 -0.965926
v 3043.71 225 -719.948
vt -122.506 8.85827
vt -123.379 8.85827
f 25/41/7 24/42/8 31/43/8 30/44/7 

vt -121.556 0
vt -120.683 0
vn -0.5 0 -0.866025
v 3023.21 225 -711.456
vt -120.683 8.85827
vt -121.556 8.85827
f 24/45/8 23/46/9 32/47/9 31/48/8 

vt -111.48 0
vt -110.606 0
vt -110.606 8.85827
vt -111.48 8.85827
f 23/49/9 1/50/1 4/51/1 32/52/9 

vt 123.063 27.4783
vn 0 1 -0
vt 122.37 28.0101
vt 121.563 28.3444
vt 120.697 28.4584
vt 119.831 28.3444
vt 119.024 28.0101
vt 118.331 27.4783
vt 117.799 26.7852
v 2983.6 225 -659.844
vt 117.465 25.9781
v 2980.71 225 -637.844
vt 117.351 25.112
v 2983.6 225 -615.845
vt 117.465 24.2459
v 2992.1 225 -595.344
vt 117.799 23.4388
v 3005.6 225 -577.74
vt 118.331 22.7457
v 3023.21 225 -564.232
vt 119.024 22.2139
v 3043.71 225 -555.741
vt 119.831 21.8796
v 3065.71 225 -552.844
vt 120.697 21.7655
v 3087.71 225 -555.741
vt 121.563 21.8796
v 3108.21 225 -564.232
vt 122.37 22.2139
v 3125.81 225 -577.74
vt 123.063 22.7457
v 3139.32 225 -595.344
vt 123.595 23.4388
v 3147.81 225 -615.845
vt 123.93 24.2459
v 3150.71 225 -637.844
vt 124.044 25.112
v 3147.81 225 -659.844
vt 123.93 25.9781
v 3139.32 225 -680.344
vt 123.595 26.7852
f 28/53/10 27/54/10 29/55/10 30/56/10 31/57/10 32/58/10 4/59/10 3/60/10 33/61/10 34/62/10 35/63/10 36/64/10 37/65/10 38/66/10 39/67/10 40/68/10 41/69/10 42/70/10 43/71/10 44/72/10 45/73/10 46/74/10 47/75/10 48/76/10 

vt -69.8261 0
vt -68.9525 0
vn -0.965926 0 -0.258819
vt -68.9525 8.85827
vt -69.8261 8.85827
f 2/77/2 22/78/11 33/79/11 3/80/2 

vt -41.0881 0
vt -40.2145 0
vn -1 0 2.65953e-16
vt -40.2145 8.85827
vt -41.0881 8.85827
f 22/81/11 21/82/12 34/83/12 33/84/11 

vt -9.5798 0
vt -8.7062 0
vn -0.965926 0 0.258819
vt -8.7062 8.85827
vt -9.5798 8.85827
f 21/85/12 20/86/13 35/87/13 34/88/12 

vt 22.5516 0
vt 23.4252 0
vn -0.866025 0 0.5
vt 23.4252 8.85827
vt 22.5516 8.85827
f 20/89/13 19/90/14 36/91/14 35/92/13 

vt 53.1163 0
vt 53.9899 0
vn -0.707107 0 0.707107
vt 53.9899 8.85827
vt 53.1163 8.85827
f 19/93/14 18/94/15 37/95/15 36/96/14 

vt 80.0315 0
vt 80.9051 0
vn -0.5 0 0.866025
vt 80.9051 8.85827
vt 80.0315 8.85827
f 18/97/15 17/98/16 38/99/16 37/100/15 

vt 101.463 0
vt 102.337 0
vn -0.258819 0 0.965926
vt 102.337 8.85827
vt 101.463 8.85827
f 17/101/16 16/102/17 39/103/17 38/104/16 

vt 115.95 0
vt 116.824 0
vn 1.06381e-15 0 1
vt 116.824 8.85827
vt 115.95 8.85827
f 16/105/17 15/106/18 40/107/18 39/108/17 

vt 122.506 0
vt 123.379 0
vn 0.258819 0 0.965926
vt 123.379 8.85827
vt 122.506 8.85827
f 15/109/18 14/110/19 41/111/19 40/112/18 

vt 120.683 0
vt 121.556 0
vn 0.5 0 0.866025
vt 121.556 8.85827
vt 120.683 8.85827
f 14/113/19 13/114/20 42/115/20 41/116/19 

vt 110.606 0
vt 111.48 0
vn 0.707107 0 0.707107
vt 111.48 8.85827
vt 110.606 8.85827
f 13/117/20 12/118/21 43/119/21 42/120/20 

vt 92.9617 0
vt 93.8353 0
vn 0.866025 0 0.5
vt 93.8353 8.85827
vt 92.9617 8.85827
f 12/121/21 11/122/22 44/123/22 43/124/21 

vt 68.9525 0
vt 69.8261 0
vn 0.965926 0 0.258819
vt 69.8261 8.85827
vt 68.9525 8.85827
f 11/125/22 10/126/23 45/127/23 44/128/22 

vt 40.2145 0
vt 41.0881 0
vn 1 0 -2.65953e-16
vt 41.0881 8.85827
vt 40.2145 8.85827
f 10/129/23 9/130/24 46/131/24 45/132/23 

vt 8.7062 0
vt 9.5798 0
vn 0.965926 0 -0.258819
vt 9.5798 8.85827
vt 8.7062 8.85827
f 9/133/24 8/134/25 47/135/25 46/136/24 

vt -23.4252 0
vt -22.5516 0
vn 0.866025 0 -0.5
vt -22.5516 8.85827
vt -23.4252 8.85827
f 8/137/25 7/138/26 48/139/26 47/140/25 

vt -53.9899 0
vt -53.1163 0
vt -53.1163 8.85827
vt -53.9899 8.85827
f 7/141/26 6/142/4 28/143/4 48/144/26 

g Mesh2 Model

v 3234.6 0 -575.518
vt -123.299 0
v 3212.6 0 -578.414
vt -122.426 0
v 3212.6 225 -578.414
vt -122.426 8.85827
v 3234.6 225 -575.518
vt -123.299 8.85827
f 49/145/6 50/146/7 51/147/7 52/148/6 

v 3255.1 0 -567.027
vt -128.153 22.3239
v 3272.7 0 -553.519
vt -128.846 21.7921
v 3286.21 0 -535.914
vt -129.378 21.099
v 3294.7 0 -515.414
vt -129.713 20.2919
v 3297.6 0 -493.414
vt -129.827 19.4258
v 3294.7 0 -471.415
vt -129.713 18.5596
v 3286.21 0 -450.914
vt -129.378 17.7525
v 3272.7 0 -433.31
vt -128.846 17.0595
v 3255.1 0 -419.802
vt -128.153 16.5276
v 3234.6 0 -411.311
vt -127.346 16.1933
v 3212.6 0 -408.414
vt -126.48 16.0793
v 3190.6 0 -411.311
vt -125.614 16.1933
v 3170.1 0 -419.802
vt -124.807 16.5276
v 3152.49 0 -433.31
vt -124.114 17.0595
v 3138.98 0 -450.914
vt -123.582 17.7525
v 3130.49 0 -471.415
vt -123.248 18.5596
v 3127.6 0 -493.414
vt -123.134 19.4258
v 3130.49 0 -515.414
vt -123.248 20.2919
v 3138.98 0 -535.914
vt -123.582 21.099
v 3152.49 0 -553.519
vt -124.114 21.7921
v 3170.1 0 -567.027
vt -124.807 22.3239
v 3190.6 0 -575.518
vt -125.614 22.6582
vt -126.48 22.7722
vt -127.346 22.6582
f 53/149/3 54/150/3 55/151/3 56/152/3 57/153/3 58/154/3 59/155/3 60/156/3 61/157/3 62/158/3 63/159/3 64/160/3 65/161/3 66/162/3 67/163/3 68/164/3 69/165/3 70/166/3 71/167/3 72/168/3 73/169/3 74/170/3 50/171/3 49/172/3 

vt -88.9546 0
vt -88.081 0
v 3255.1 225 -567.027
vt -88.081 8.85827
v 3272.7 225 -553.519
vt -88.9546 8.85827
f 54/173/4 53/174/5 75/175/5 76/176/4 

vt -109.855 0
vt -108.982 0
vt -108.982 8.85827
vt -109.855 8.85827
f 53/177/5 49/178/6 52/179/6 75/180/5 

vt 128.846 21.7921
vt 128.153 22.3239
vt 127.346 22.6582
vt 126.48 22.7722
v 3190.6 225 -575.518
vt 125.614 22.6582
v 3170.1 225 -567.027
vt 124.807 22.3239
v 3152.49 225 -553.519
vt 124.114 21.7921
v 3138.98 225 -535.914
vt 123.582 21.099
v 3130.49 225 -515.414
vt 123.248 20.2919
v 3127.6 225 -493.414
vt 123.134 19.4258
v 3130.49 225 -471.415
vt 123.248 18.5596
v 3138.98 225 -450.914
vt 123.582 17.7525
v 3152.49 225 -433.31
vt 124.114 17.0595
v 3170.1 225 -419.802
vt 124.807 16.5276
v 3190.6 225 -411.311
vt 125.614 16.1933
v 3212.6 225 -408.414
vt 126.48 16.0793
v 3234.6 225 -411.311
vt 127.346 16.1933
v 3255.1 225 -419.802
vt 128.153 16.5276
v 3272.7 225 -433.31
vt 128.846 17.0595
v 3286.21 225 -450.914
vt 129.378 17.7525
v 3294.7 225 -471.415
vt 129.713 18.5596
v 3297.6 225 -493.414
vt 129.827 19.4258
v 3294.7 225 -515.414
vt 129.713 20.2919
v 3286.21 225 -535.914
vt 129.378 21.099
f 76/181/10 75/182/10 52/183/10 51/184/10 77/185/10 78/186/10 79/187/10 80/188/10 81/189/10 82/190/10 83/191/10 84/192/10 85/193/10 86/194/10 87/195/10 88/196/10 89/197/10 90/198/10 91/199/10 92/200/10 93/201/10 94/202/10 95/203/10 96/204/10 

vt -128.37 0
vt -127.497 0
vt -127.497 8.85827
vt -128.37 8.85827
f 50/205/7 74/206/8 77/207/8 51/208/7 

vt -124.723 0
vt -123.85 0
vt -123.85 8.85827
vt -124.723 8.85827
f 74/209/8 73/210/9 78/211/9 77/212/8 

vt -112.606 0
vt -111.732 0
vt -111.732 8.85827
vt -112.606 8.85827
f 73/213/9 72/214/1 79/215/1 78/216/9 

vt -92.8445 0
vt -91.9709 0
vt -91.9709 8.85827
vt -92.8445 8.85827
f 72/217/1 71/218/2 80/219/2 79/220/1 

vt -66.7857 0
vt -65.9121 0
vt -65.9121 8.85827
vt -66.7857 8.85827
f 71/221/2 70/222/11 81/223/11 80/224/2 

vt -36.2054 0
vt -35.3318 0
vt -35.3318 8.85827
vt -36.2054 8.85827
f 70/225/11 69/226/12 82/227/12 81/228/11 

vt -3.1874 0
vt -2.3138 0
vt -2.3138 8.85827
vt -3.1874 8.85827
f 69/229/12 68/230/13 83/231/13 82/232/12 

vt 30.018 0
vt 30.8916 0
vt 30.8916 8.85827
vt 30.018 8.85827
f 68/233/13 67/234/14 84/235/14 83/236/13 

vt 61.1479 0
vt 62.0216 0
vt 62.0216 8.85827
vt 61.1479 8.85827
f 67/237/14 66/238/15 85/239/15 84/240/14 

vt 88.081 0
vt 88.9546 0
vt 88.9546 8.85827
vt 88.081 8.85827
f 66/241/15 65/242/16 86/243/16 85/244/15 

vt 108.982 0
vt 109.855 0
vt 109.855 8.85827
vt 108.982 8.85827
f 65/245/16 64/246/17 87/247/17 86/248/16 

vt 122.426 0
vt 123.299 0
vt 123.299 8.85827
vt 122.426 8.85827
f 64/249/17 63/250/18 88/251/18 87/252/17 

vt 127.497 0
vt 128.37 0
vt 128.37 8.85827
vt 127.497 8.85827
f 63/253/18 62/254/19 89/255/19 88/256/18 

vt 123.85 0
vt 124.723 0
vt 124.723 8.85827
vt 123.85 8.85827
f 62/257/19 61/258/20 90/259/20 89/260/19 

vt 111.732 0
vt 112.606 0
vt 112.606 8.85827
vt 111.732 8.85827
f 61/261/20 60/262/21 91/263/21 90/264/20 

vt 91.9709 0
vt 92.8445 0
vt 92.8445 8.85827
vt 91.9709 8.85827
f 60/265/21 59/266/22 92/267/22 91/268/21 

vt 65.9121 0
vt 66.7857 0
vt 66.7857 8.85827
vt 65.9121 8.85827
f 59/269/22 58/270/23 93/271/23 92/272/22 

vt 35.3318 0
vt 36.2054 0
vt 36.2054 8.85827
vt 35.3318 8.85827
f 58/273/23 57/274/24 94/275/24 93/276/23 

vt 2.3138 0
vt 3.1874 0
vt 3.1874 8.85827
vt 2.3138 8.85827
f 57/277/24 56/278/25 95/279/25 94/280/24 

vt -30.8916 0
vt -30.018 0
vt -30.018 8.85827
vt -30.8916 8.85827
f 56/281/25 55/282/26 96/283/26 95/284/25 

vt -62.0216 0
vt -61.1479 0
vt -61.1479 8.85827
vt -62.0216 8.85827
f 55/285/26 54/286/4 76/287/4 96/288/26 

