# Alias OBJ Model File
# Exported from SketchUp, (c) 2000-2012 Trimble Navigation Limited
# File units = millimeters

mtllib l.mtl

g Mesh1 Component_3_1 Model

usemtl FrontColor
v 1869.64 60.89 -775.461
vt -1.47624 -3.0687
vn -0.885912 -0.414933 0.207341
v 1788.83 242.89 -756.547
vt -1.90276 4.79504
vn -4.37905e-16 -1 7.74754e-16
v 1862 60.89 -795.733
vt -2.32928 -3.0687
vn -0.802062 -0.414933 0.429567
f 1/1/1 2/2/2 3/3/3

v 1871.79 60.89 -753.9
vt -2.50071 -2.80673
vn -0.909389 -0.414933 -0.0290148
vt -2.92723 5.05701
vn -4.37905e-16 -1 8.25282e-16
vt -3.35376 -2.80673
f 4/4/4 2/5/5 1/6/1

v 1868.27 60.89 -732.519
vt -3.3257 -2.44444
vn -0.870893 -0.414933 -0.263393
vt -3.75222 5.4193
vn -3.48078e-16 -1 8.58967e-16
vt -4.17874 -2.44444
f 5/7/6 2/8/7 4/9/4

v 1859.35 60.89 -712.776
vt -3.89498 -2.00653
vn -0.773047 -0.414933 -0.479822
vt -4.3215 5.85721
vn -3.14393e-16 -1 6.90542e-16
vt -4.74803 -2.00653
f 6/10/8 2/11/9 5/12/6

v 1845.62 60.89 -696.015
vt -4.16976 -1.52283
vn -0.622519 -0.414933 -0.663552
vt -4.59628 6.3409
vn -4.26676e-16 -1 8.42124e-16
vt -5.0228 -1.52283
f 7/13/10 2/14/11 6/15/8

v 1828.02 60.89 -683.38
vt -4.13131 -1.02632
vn -0.429567 -0.414933 -0.802062
vt -4.55783 6.83742
vn -3.59306e-16 -1 7.74754e-16
vt -4.98435 -1.02632
f 8/16/12 2/17/13 7/18/10

v 1807.74 60.89 -675.731
vt -3.78225 -0.550828
vn -0.207341 -0.414933 -0.885912
vt -4.20877 7.31291
vn -3.98606e-16 -1 7.85983e-16
vt -4.63529 -0.550828
f 9/19/14 2/20/15 8/21/12

v 1786.18 60.89 -673.589
vt -3.14637 -0.128757
vn 0.0290148 -0.414933 -0.909389
vt -3.57289 7.73498
vn -4.21062e-16 -1 8.30896e-16
vt -3.99941 -0.128757
f 10/22/16 2/23/17 9/24/14

v 1764.8 60.89 -677.101
vt -2.267 0.211128
vn 0.263393 -0.414933 -0.870893
vt -2.69352 8.07486
vn -2.0211e-16 -1 8.75809e-16
vt -3.12004 0.211128
f 11/25/18 2/26/19 10/27/16

v 1745.06 60.89 -686.027
vt -1.20407 0.445664
vn 0.479822 -0.414933 -0.773047
vt -1.63059 8.3094
vn -3.14393e-16 -1 7.85983e-16
vt -2.05712 0.445664
f 12/28/20 2/29/21 11/30/18

v 1728.3 60.89 -699.758
vt -0.0300235 0.558869
vn 0.663552 -0.414933 -0.622519
vt -0.456546 8.42261
vn -2.6948e-16 -1 8.08439e-16
vt -0.883069 0.558869
f 13/31/22 2/32/23 12/33/20

v 1715.66 60.89 -717.36
vt 1.17514 0.543027
vn 0.802062 -0.414933 -0.429567
vt 0.748615 8.40676
vt 0.322093 0.543027
f 14/34/24 2/35/21 13/36/22

v 1708.01 60.89 -737.632
vt 2.32928 0.399219
vn 0.885912 -0.414933 -0.207341
vt 1.90276 8.26296
vn -3.03165e-16 -1 6.90542e-16
vt 1.47624 0.399219
f 15/37/25 2/38/26 14/39/24

v 1705.87 60.89 -759.194
vt 3.35376 0.137244
vn 0.909389 -0.414933 0.0290148
vt 2.92723 8.00098
vn -4.94046e-16 -1 7.2142e-16
vt 2.50071 0.137244
f 16/40/27 2/41/28 15/42/25

v 1709.38 60.89 -780.574
vt 4.17874 -0.225044
vn 0.870893 -0.414933 0.263393
vt 3.75222 7.63869
vn -4.94046e-16 -1 7.97211e-16
vt 3.3257 -0.225044
f 17/43/29 2/44/30 16/45/27

v 1718.31 60.89 -800.318
vt 4.74803 -0.662956
vn 0.773047 -0.414933 0.479822
vt 4.3215 7.20078
vn -4.15448e-16 -1 7.0177e-16
vt 3.89498 -0.662956
f 18/46/31 2/47/32 17/48/29

v 1732.04 60.89 -817.078
vt 5.0228 -1.14665
vn 0.622519 -0.414933 0.663552
vt 4.59628 6.71709
vn -5.05275e-16 -1 7.63526e-16
vt 4.16976 -1.14665
f 19/49/33 2/50/34 18/51/31

v 1749.64 60.89 -829.714
vt 4.98435 -1.64316
vn 0.429567 -0.414933 0.802062
vt 4.55783 6.22058
vn -4.60361e-16 -1 7.41069e-16
vt 4.13131 -1.64316
f 20/52/35 2/53/36 19/54/33

v 1769.91 60.89 -837.363
vt 4.63529 -2.11865
vn 0.207341 -0.414933 0.885912
vt 4.20877 5.74508
vn -4.7159e-16 -1 7.52298e-16
vt 3.78225 -2.11865
f 21/55/37 2/56/38 20/57/35

v 1791.48 60.89 -839.505
vt 3.99941 -2.54072
vn -0.0290148 -0.414933 0.909389
vt 3.57289 5.32301
vn -4.46326e-16 -1 7.18613e-16
vt 3.14637 -2.54072
f 22/58/39 2/59/40 21/60/37

v 1812.86 60.89 -835.993
vt 3.12004 -2.88061
vn -0.263393 -0.414933 0.870893
vt 2.69352 4.98313
vn -5.8668e-16 -1 8.08439e-16
vt 2.267 -2.88061
f 23/61/41 2/62/42 22/63/39

v 1832.6 60.89 -827.067
vt 2.05712 -3.11515
vn -0.479822 -0.414933 0.773047
vt 1.63059 4.74859
vn -4.88432e-16 -1 7.63526e-16
vt 1.20407 -3.11515
f 24/64/43 2/65/44 23/66/41

v 1849.36 60.89 -813.335
vt 0.883069 -3.22835
vn -0.663552 -0.414933 0.622519
vt 0.456546 4.63539
vn -5.16503e-16 -1 7.74754e-16
vt 0.0300235 -3.22835
f 25/67/45 2/68/46 24/69/43

vt -0.322093 -3.21251
vt -0.748615 4.65123
vt -1.17514 -3.21251
f 3/70/3 2/71/30 25/72/45

g Mesh2 Component_3_2 Model

v 1901.3 135.024 -603.718
vn -0.885912 0.207341 0.414933
v 1820.48 153.939 -785.718
vn -4.37905e-16 6.08221e-16 1
v 1893.65 114.752 -603.718
vn -0.802062 0.429567 0.414933
f 26/1/47 27/2/48 28/3/49

v 1903.44 156.586 -603.718
vn -0.909389 -0.0290148 0.414933
vn -4.37905e-16 6.58748e-16 1
f 29/4/50 27/5/51 26/6/47

v 1899.93 177.967 -603.718
vn -0.870893 -0.263393 0.414933
vn -3.48078e-16 6.92433e-16 1
f 30/7/52 27/8/53 29/9/50

v 1891 197.71 -603.718
vn -0.773047 -0.479822 0.414933
vn -3.14393e-16 5.24009e-16 1
f 31/10/54 27/11/55 30/12/52

v 1877.27 214.47 -603.718
vn -0.622519 -0.663552 0.414933
vn -4.26676e-16 6.75591e-16 1
f 32/13/56 27/14/57 31/15/54

v 1859.67 227.106 -603.718
vn -0.429567 -0.802062 0.414933
vn -3.59306e-16 6.08221e-16 1
f 33/16/58 27/17/59 32/18/56

v 1839.4 234.755 -603.718
vn -0.207341 -0.885912 0.414933
vn -3.98606e-16 6.19449e-16 1
f 34/19/60 27/20/61 33/21/58

v 1817.84 236.897 -603.718
vn 0.0290148 -0.909389 0.414933
vn -4.21062e-16 6.64363e-16 1
f 35/22/62 27/23/63 34/24/60

v 1796.45 233.385 -603.718
vn 0.263393 -0.870893 0.414933
vn -2.0211e-16 7.09276e-16 1
f 36/25/64 27/26/65 35/27/62

v 1776.71 224.459 -603.718
vn 0.479822 -0.773047 0.414933
vn -3.14393e-16 6.19449e-16 1
f 37/28/66 27/29/67 36/30/64

v 1759.95 210.727 -603.718
vn 0.663552 -0.622519 0.414933
vn -2.6948e-16 6.41906e-16 1
f 38/31/68 27/32/69 37/33/66

v 1747.32 193.125 -603.718
vn 0.802062 -0.429567 0.414933
f 39/34/70 27/35/67 38/36/68

v 1739.67 172.853 -603.718
vn 0.885912 -0.207341 0.414933
vn -3.03165e-16 5.24009e-16 1
f 40/37/71 27/38/72 39/39/70

v 1737.52 151.292 -603.718
vn 0.909389 0.0290148 0.414933
vn -4.94046e-16 5.54886e-16 1
f 41/40/73 27/41/74 40/42/71

v 1741.04 129.911 -603.718
vn 0.870893 0.263393 0.414933
vn -4.94046e-16 6.30678e-16 1
f 42/43/75 27/44/76 41/45/73

v 1749.96 110.168 -603.718
vn 0.773047 0.479822 0.414933
vn -4.15448e-16 5.35237e-16 1
f 43/46/77 27/47/78 42/48/75

v 1763.69 93.4072 -603.718
vn 0.622519 0.663552 0.414933
vn -5.05275e-16 5.96993e-16 1
f 44/49/79 27/50/80 43/51/77

v 1781.3 80.7719 -603.718
vn 0.429567 0.802062 0.414933
vn -4.60361e-16 5.74536e-16 1
f 45/52/81 27/53/82 44/54/79

v 1801.57 73.1227 -603.718
vn 0.207341 0.885912 0.414933
vn -4.7159e-16 5.85764e-16 1
f 46/55/83 27/56/84 45/57/81

v 1823.13 70.981 -603.718
vn -0.0290148 0.909389 0.414933
vn -4.46326e-16 5.52079e-16 1
f 47/58/85 27/59/86 46/60/83

v 1844.51 74.4928 -603.718
vn -0.263393 0.870893 0.414933
vn -5.8668e-16 6.41906e-16 1
f 48/61/87 27/62/88 47/63/85

v 1864.25 83.4187 -603.718
vn -0.479822 0.773047 0.414933
vn -4.88432e-16 5.96993e-16 1
f 49/64/89 27/65/90 48/66/87

v 1881.01 97.1504 -603.718
vn -0.663552 0.622519 0.414933
vn -5.16503e-16 6.08221e-16 1
f 50/67/91 27/68/92 49/69/89

f 28/70/49 27/71/76 50/72/91

