# Alias OBJ Model File
# Exported from SketchUp, (c) 2000-2012 Trimble Navigation Limited
# File units = millimeters

mtllib p.mtl

g Mesh1 Model

usemtl FrontColor
v 3064.21 0 -583.336
vt -120.638 22.966
vn -4.63674e-17 -1 5.45428e-20
v 3049.07 4.22995e-15 -574.181
vt -120.042 22.6056
v 3031.44 4.22995e-15 -583.893
vt -119.348 22.9879
v 3063.81 0 -603.464
vt -120.622 23.7584
v 3122.49 0 -571.143
vt -122.933 22.4859
v 3123.85 0 -504.156
vt -122.986 19.8487
v 3066.51 0 -469.491
vt -120.729 18.4839
v 3029.39 4.22995e-15 -489.935
vt -119.267 19.2888
v 3046.62 4.22995e-15 -500.351
vt -119.946 19.6989
v 3066.11 0 -489.619
vt -120.713 19.2763
v 3106.21 0 -513.868
vt -122.292 20.231
v 3105.27 0 -560.727
vt -122.255 22.0759
f 1/1/1 2/2/1 3/3/1 4/4/1 5/5/1 6/6/1 7/7/1 8/8/1 9/9/1 10/10/1 11/11/1 12/12/1 

vt 114.422 -7.31876e-16
vn 0.51739 2.10086e-17 0.85575
vt 115.119 -8.98409e-16
v 3064.21 21 -583.336
vt 115.119 0.826772
v 3049.07 21 -574.181
vt 114.422 0.826772
v 3031.84 21 -563.765
vt 113.629 0.826772
v 3024.1 21 -559.087
vt 113.273 0.826772
v 3024.1 0 -559.087
vt 113.273 -8.98409e-16
v 3031.84 4.22995e-15 -563.765
vt 113.629 -7.31876e-16
f 2/13/2 1/14/2 13/15/2 14/16/2 15/17/2 16/18/2 17/19/2 18/20/2 

vt 94.5939 0
vn -0.482406 0 0.875948
vt 96.4391 0
v 3105.27 21 -560.727
vt 96.4391 0.826772
vt 94.5939 0.826772
f 1/21/3 12/22/3 19/23/3 13/24/3 

vt -19.6021 0
vn -0.999796 0 0.020198
vt -17.7568 0
v 3106.21 21 -513.868
vt -17.7568 0.826772
vt -19.6021 0.826772
f 12/25/4 11/26/4 20/27/4 19/28/4 

vt -115.119 0
vn -0.51739 0 -0.85575
vt -113.273 0
v 3066.11 21 -489.619
vt -113.273 0.826772
vt -115.119 0.826772
f 11/29/5 10/30/5 21/31/5 20/32/5 

v 3028.98 4.22995e-15 -510.063
vt -94.7706 -4.38487e-16
vn 0.482406 8.05431e-18 -0.875948
v 3025.05 0 -512.228
vt -94.5939 -6.05021e-16
v 3025.05 21 -512.228
vt -94.5939 0.826772
v 3028.98 21 -510.063
vt -94.7706 0.826772
v 3046.62 21 -500.351
vt -95.5632 0.826772
vt -96.4391 0.826772
vt -96.4391 -6.05021e-16
vt -95.5632 -4.38487e-16
f 22/33/6 23/34/6 24/35/6 25/36/6 26/37/6 21/38/6 10/39/6 9/40/6 

vt -119.096 20.1665
vn 7.21056e-17 -1 -1.98553e-19
vt -119.251 20.0812
v 3011.76 4.22995e-15 -499.647
vt -118.573 19.6711
v 3007.82 0 -501.813
vt -118.418 19.7564
v 3006.47 0 -568.799
vt -118.365 22.3937
v 3014.21 4.22995e-15 -573.477
vt -118.67 22.5778
vt -119.364 22.1955
vt -119.059 22.0113
f 23/41/7 22/42/7 27/43/7 28/44/7 29/45/7 30/46/7 18/47/7 17/48/7 

vn -2.41009e-17 -1 -3.21956e-19
f 8/8/8 27/43/8 22/42/8

vt 94.1976 2.2445e-15
vn -0.482406 3.01553e-17 0.875948
vt 94.3743 2.41103e-15
vt 95.1669 2.41103e-15
vt 96.8354 2.2445e-15
v 3066.51 21 -469.491
vt 96.8354 0.826772
v 3029.39 21 -489.935
vt 95.1669 0.826772
v 3011.76 21 -499.647
vt 94.3743 0.826772
v 3007.82 21 -501.813
vt 94.1976 0.826772
f 28/49/9 27/50/9 8/51/9 7/52/9 31/53/9 32/54/9 33/55/9 34/56/9 

v 2997.02 8.4599e-15 -470.364
vt -117.993 18.5183
f 35/57/8 27/43/8 8/8/8

v 2996.61 8.4599e-15 -490.492
vt -117.977 19.3107
f 35/57/8 36/58/8 27/43/8

v 2955.56 8.4599e-15 -513.101
vt -116.361 20.2008
f 35/57/8 37/59/8 36/58/8

v 2938.33 8.4599e-15 -502.685
vt -115.682 19.7908
f 38/60/8 37/59/8 35/57/8

v 2954.61 8.4599e-15 -559.96
vt -116.323 22.0457
f 37/59/8 38/60/8 39/61/8

v 2936.98 8.4599e-15 -569.672
vt -115.629 22.428
f 40/62/8 39/61/8 38/60/8

v 2994.31 8.4599e-15 -604.337
vt -117.886 23.7928
f 39/61/8 40/62/8 41/63/8

vt -113.191 3.33067e-16
vt -110.554 3.33067e-16
v 2936.98 21 -569.672
vt -110.554 0.826772
v 2994.31 21 -604.337
vt -113.191 0.826772
f 41/64/5 40/65/5 42/66/5 43/67/5 

vt -20.088 3.33067e-16
vt -17.4502 3.33067e-16
v 2938.33 21 -502.685
vt -17.4502 0.826772
vt -20.088 0.826772
f 40/68/4 38/69/4 44/70/4 42/71/4 

vt 91.7845 3.33067e-16
vt 94.4223 3.33067e-16
v 2997.02 21 -470.364
vt 94.4223 0.826772
vt 91.7845 0.826772
f 38/72/3 35/73/3 45/74/3 44/75/3 

vt 110.554 -1.89476e-15
vn 0.51739 4.92867e-17 0.85575
vt 112.043 -2.06129e-15
vt 112.835 -2.06129e-15
v 3054.35 8.4599e-15 -505.029
vt 113.191 -1.89476e-15
v 3054.35 21 -505.029
vt 113.191 0.826772
vt 112.835 0.826772
vt 112.043 0.826772
vt 110.554 0.826772
f 35/76/10 8/77/10 9/78/10 46/79/10 47/80/10 26/81/10 32/82/10 45/83/10 

v 3036.72 8.4599e-15 -514.741
vt -119.556 20.2654
f 8/8/8 48/84/8 9/9/8

f 8/8/8 22/42/8 48/84/8

vt -111.647 -1.23626e-15
vn -0.51739 -3.15129e-17 -0.85575
vt -110.95 -1.06973e-15
v 2996.61 21 -490.492
vt -110.95 0.826772
vt -111.647 0.826772
vt -112.439 0.826772
v 3036.72 21 -514.741
vt -112.795 0.826772
vt -112.795 -1.06973e-15
vt -112.439 -1.23626e-15
f 27/85/11 36/86/11 49/87/11 33/88/11 25/89/11 50/90/11 48/91/11 22/92/11 

vt -94.026 3.33067e-16
vn 0.482406 0 -0.875948
vt -92.1808 3.33067e-16
v 2955.56 21 -513.101
vt -92.1808 0.826772
vt -94.026 0.826772
f 36/93/12 37/94/12 51/95/12 49/96/12 

vt 17.8465 3.33067e-16
vn 0.999796 0 -0.020198
vt 19.6917 3.33067e-16
v 2954.61 21 -559.96
vt 19.6917 0.826772
vt 17.8465 0.826772
f 37/97/13 39/98/13 52/99/13 51/100/13 

vt 110.95 3.33067e-16
vn 0.51739 0 0.85575
v 2994.72 8.4599e-15 -584.209
vt 112.795 3.33067e-16
v 2994.72 21 -584.209
vt 112.795 0.826772
vt 110.95 0.826772
f 39/101/14 53/102/14 54/103/14 52/104/14 

vt -117.902 23.0004
f 39/61/8 41/63/8 53/105/8

f 53/105/8 41/63/8 3/3/8

v 3053 8.4599e-15 -572.016
vt -94.4223 1.43466e-15
vn 0.482406 -1.41756e-17 -0.875948
vt -94.2455 1.26812e-15
vt -93.453 1.26812e-15
vt -91.7845 1.43466e-15
vt -91.7845 0.826772
v 3031.44 21 -583.893
vt -93.453 0.826772
vt -94.2455 0.826772
v 3053 21 -572.016
vt -94.4223 0.826772
f 55/106/15 2/107/15 3/108/15 41/109/15 43/110/15 56/111/15 14/112/15 57/113/15 

vt -120.25 19.883
vt -120.197 22.5203
f 46/114/8 2/2/8 55/115/8

f 9/9/8 2/2/8 46/114/8

f 48/84/8 2/2/8 9/9/8

v 3035.77 8.4599e-15 -561.6
vt -119.519 22.1102
f 58/116/8 2/2/8 48/84/8

f 18/47/8 2/2/8 58/116/8

f 18/47/8 3/3/8 2/2/8

f 30/46/8 3/3/8 18/47/8

vt -115.515 1.15621e-15
vn -0.51739 2.74782e-17 -0.85575
vt -114.026 1.32275e-15
vt -113.233 1.32275e-15
vt -112.877 1.15621e-15
v 3006.47 21 -568.799
vt -112.877 0.826772
v 3014.21 21 -573.477
vt -113.233 0.826772
vt -114.026 0.826772
v 3063.81 21 -603.464
vt -115.515 0.826772
f 4/117/16 3/118/16 30/119/16 29/120/16 59/121/16 60/122/16 56/123/16 61/124/16 

f 53/105/8 3/3/8 30/46/8

vn 0 -1 -0
f 2/2/17 18/47/17 30/46/17 3/3/17 

vt 93.8493 3.07485e-15
vn -0.482406 3.77586e-17 0.875948
vt 94.026 3.24138e-15
v 3035.77 21 -561.6
vt 94.026 0.826772
vt 93.8493 0.826772
vt 93.0567 0.826772
vt 92.1808 0.826772
vt 92.1808 3.24138e-15
vt 93.0567 3.07485e-15
f 18/125/18 58/126/18 62/127/18 15/128/18 60/129/18 54/130/18 53/131/18 30/132/18 

vt -19.6917 3.33067e-16
vt -17.8465 3.33067e-16
vt -17.8465 0.826772
vt -19.6917 0.826772
f 58/133/4 48/134/4 50/135/4 62/136/4 

vt 120.042 22.6056
vn 3.21345e-17 1 4.29275e-19
vt 119.519 22.1102
vt 119.556 20.2654
f 14/137/19 62/138/19 50/139/19

vt 119.364 22.1955
f 14/137/19 15/140/19 62/138/19

vt 119.348 22.9879
f 56/141/19 15/140/19 14/137/19

vt 118.67 22.5778
f 56/141/19 60/142/19 15/140/19

vt 117.902 23.0004
f 56/141/19 54/143/19 60/142/19

vt 117.886 23.7928
f 43/144/19 54/143/19 56/141/19

vt 116.323 22.0457
f 43/144/19 52/145/19 54/143/19

vt 115.629 22.428
f 42/146/19 52/145/19 43/144/19

vt 115.682 19.7908
f 52/145/19 42/146/19 44/147/19

vt 116.361 20.2008
f 44/147/19 51/148/19 52/145/19

vt 117.993 18.5183
f 51/148/19 44/147/19 45/149/19

vt 117.977 19.3107
f 51/148/19 45/149/19 49/150/19

vt 118.573 19.6711
f 49/150/19 45/149/19 33/151/19

vt 119.267 19.2888
f 33/151/19 45/149/19 32/152/19

vt 119.251 20.0812
f 33/151/19 32/152/19 25/153/19

vt 119.946 19.6989
vn 0 1 -0
f 26/154/20 25/153/20 33/151/20 32/152/20 

vt 118.418 19.7564
vn -4.80704e-17 1 1.32368e-19
vt 119.096 20.1665
vt 119.059 22.0113
vt 118.365 22.3937
f 34/155/21 33/151/21 25/153/21 24/156/21 16/157/21 15/140/21 60/142/21 59/158/21 

vt 17.7568 0
vt 19.6021 0
vt 19.6021 0.826772
vt 17.7568 0.826772
f 23/159/13 17/160/13 16/161/13 24/162/13 

f 56/141/20 60/142/20 15/140/20 14/137/20 

vt 120.713 19.2763
vn 3.09116e-17 1 -3.63619e-20
vt 120.729 18.4839
v 3123.85 21 -504.156
vt 122.986 19.8487
v 3122.49 21 -571.143
vt 122.933 22.4859
vt 120.622 23.7584
vt 120.638 22.966
vt 122.255 22.0759
vt 122.292 20.231
f 21/163/22 26/154/22 32/152/22 31/164/22 63/165/22 64/166/22 61/167/22 56/141/22 14/137/22 13/168/22 19/169/22 20/170/22 

f 50/139/19 32/152/19 26/154/19

f 25/153/19 32/152/19 50/139/19

f 14/137/19 50/139/19 26/154/19

vt 120.25 19.883
f 14/137/19 26/154/19 47/171/19

vt 120.197 22.5203
f 14/137/19 47/171/19 57/172/19

vt 17.4502 3.33067e-16
vt 20.088 3.33067e-16
vt 20.088 0.826772
vt 17.4502 0.826772
f 46/173/13 55/174/13 57/175/13 47/176/13 

vt 112.877 0
vt 115.515 0
vt 115.515 0.826772
vt 112.877 0.826772
f 7/177/14 6/178/14 63/179/14 31/180/14 

vt 17.3606 0
vt 19.9984 0
vt 19.9984 0.826772
vt 17.3606 0.826772
f 6/181/13 5/182/13 64/183/13 63/184/13 

vt -96.8354 0
vt -94.1976 0
vt -94.1976 0.826772
vt -96.8354 0.826772
f 5/185/12 4/186/12 61/187/12 64/188/12 

vt -19.9984 0
vt -17.3606 0
vt -17.3606 0.826772
vt -19.9984 0.826772
f 29/189/4 28/190/4 34/191/4 59/192/4 

f 8/8/17 27/43/17 22/42/17 9/9/17 

