# Alias OBJ Model File
# Exported from SketchUp, (c) 2000-2012 Trimble Navigation Limited
# File units = millimeters

mtllib uu.mtl

g Mesh1 Component_7_1 Model

usemtl FrontColor
v 3023.21 0 -564.232
vt 1.37429 0
vn -0.5 0 0.866025
v 3043.71 0 -555.741
vt 2.24789 0
vn -0.258819 0 0.965926
v 3043.71 225 -555.741
vt 2.24789 8.85827
v 3023.21 225 -564.232
vt 1.37429 8.85827
f 1/1/1 2/2/2 3/3/2 4/4/1 

v 3108.21 0 -711.456
vt -5.01969 6.24457
vn 0 -1 -0
v 3125.81 0 -697.948
vt -5.71276 5.71276
v 3139.32 0 -680.344
vt -6.24457 5.01969
v 3147.81 0 -659.844
vt -6.57889 4.21258
v 3150.71 0 -637.844
vt -6.69291 3.34646
v 3147.81 0 -615.845
vt -6.57889 2.48033
v 3139.32 0 -595.344
vt -6.24457 1.67323
v 3125.81 0 -577.74
vt -5.71276 0.980154
v 3108.21 0 -564.232
vt -5.01969 0.44834
v 3087.71 0 -555.741
vt -4.21258 0.114028
v 3065.71 0 -552.844
vt -3.34646 0
vt -2.48033 0.114028
vt -1.67323 0.44834
v 3005.6 0 -577.74
vt -0.980154 0.980154
v 2992.1 0 -595.344
vt -0.44834 1.67323
v 2983.6 0 -615.845
vt -0.114028 2.48033
v 2980.71 0 -637.844
vt 0 3.34646
v 2983.6 0 -659.844
vt -0.114028 4.21258
v 2992.1 0 -680.344
vt -0.44834 5.01969
v 3005.6 0 -697.948
vt -0.980154 5.71276
v 3023.21 0 -711.456
vt -1.67323 6.24457
v 3043.71 0 -719.948
vt -2.48033 6.57889
v 3065.71 0 -722.844
vt -3.34646 6.69291
v 3087.71 0 -719.948
vt -4.21258 6.57889
f 5/5/3 6/6/3 7/7/3 8/8/3 9/9/3 10/10/3 11/11/3 12/12/3 13/13/3 14/14/3 15/15/3 2/16/3 1/17/3 16/18/3 17/19/3 18/20/3 19/21/3 20/22/3 21/23/3 22/24/3 23/25/3 24/26/3 25/27/3 26/28/3 

vt -1.05453 0
vn 0.707107 0 -0.707107
vt -0.180929 0
vn 0.5 0 -0.866025
v 3108.21 225 -711.456
vt -0.180929 8.85827
v 3125.81 225 -697.948
vt -1.05453 8.85827
f 6/29/4 5/30/5 27/31/5 28/32/4 

vt -2.24789 0
vt -1.37429 0
vn 0.258819 0 -0.965926
v 3087.71 225 -719.948
vt -1.37429 8.85827
vt -2.24789 8.85827
f 5/33/5 26/34/6 29/35/6 27/36/5 

vt -3.31783 0
vt -2.44423 0
vn 0 0 -1
v 3065.71 225 -722.844
vt -2.44423 8.85827
vt -3.31783 8.85827
f 26/37/6 25/38/7 30/39/7 29/40/6 

vt -4.19143 0
vn -0.258819 0 -0.965926
v 3043.71 225 -719.948
vt -4.19143 8.85827
f 25/41/7 24/37/8 31/40/8 30/42/7 

vt -4.80916 0
vt -3.93556 0
vn -0.5 0 -0.866025
v 3023.21 225 -711.456
vt -3.93556 8.85827
vt -4.80916 8.85827
f 24/43/8 23/44/9 32/45/9 31/46/8 

vt -5.12892 0
vt -4.25532 0
vn -0.707107 0 -0.707107
v 3005.6 225 -697.948
vt -4.25532 8.85827
vt -5.12892 8.85827
f 23/47/9 22/48/10 33/49/10 32/50/9 

vn -0.866025 0 -0.5
v 2992.1 225 -680.344
f 22/47/10 21/48/11 34/49/11 33/50/10 

vn -0.965926 0 -0.258819
v 2983.6 225 -659.844
f 21/43/11 20/44/12 35/45/12 34/46/11 

vn -1 0 2.65953e-16
v 2980.71 225 -637.844
f 20/41/12 19/37/13 36/40/13 35/42/12 

vn -0.965926 0 0.258819
v 2983.6 225 -615.845
f 19/37/13 18/38/14 37/39/14 36/40/13 

vn -0.866025 0 0.5
v 2992.1 225 -595.344
f 18/33/14 17/34/15 38/35/15 37/36/14 

vn -0.707107 0 0.707107
v 3005.6 225 -577.74
f 17/29/15 16/30/16 39/31/16 38/32/15 

vt 0.180929 0
vt 1.05453 0
vt 1.05453 8.85827
vt 0.180929 8.85827
f 16/51/16 1/52/1 4/53/1 39/54/16 

vt 5.71276 5.71276
vn 0 1 -0
vt 5.01969 6.24457
vt 4.21258 6.57889
vt 3.34646 6.69291
vt 2.48033 6.57889
vt 1.67323 6.24457
vt 0.980154 5.71276
vt 0.44834 5.01969
vt 0.114028 4.21258
vt 0.114028 2.48033
vt 0.44834 1.67323
vt 0.980154 0.980154
vt 1.67323 0.44834
vt 2.48033 0.114028
v 3065.71 225 -552.844
vt 3.34646 0
v 3087.71 225 -555.741
vt 4.21258 0.114028
v 3108.21 225 -564.232
vt 5.01969 0.44834
v 3125.81 225 -577.74
vt 5.71276 0.980154
v 3139.32 225 -595.344
vt 6.24457 1.67323
v 3147.81 225 -615.845
vt 6.57889 2.48033
v 3150.71 225 -637.844
vt 6.69291 3.34646
v 3147.81 225 -659.844
vt 6.57889 4.21258
v 3139.32 225 -680.344
vt 6.24457 5.01969
f 28/55/17 27/56/17 29/57/17 30/58/17 31/59/17 32/60/17 33/61/17 34/62/17 35/63/17 36/21/17 37/64/17 38/65/17 39/66/17 4/67/17 3/68/17 40/69/17 41/70/17 42/71/17 43/72/17 44/73/17 45/74/17 46/75/17 47/76/17 48/77/17 

vt 2.44423 0
vt 3.31783 0
vn 1.06381e-15 0 1
vt 3.31783 8.85827
vt 2.44423 8.85827
f 2/78/2 15/79/18 40/80/18 3/81/2 

vt 4.19143 0
vn 0.258819 0 0.965926
vt 4.19143 8.85827
f 15/79/18 14/82/19 41/83/19 40/80/18 

vt 3.93556 0
vt 4.80916 0
vn 0.5 0 0.866025
vt 4.80916 8.85827
vt 3.93556 8.85827
f 14/84/19 13/85/20 42/86/20 41/87/19 

vt 4.25532 0
vt 5.12892 0
vn 0.707107 0 0.707107
vt 5.12892 8.85827
vt 4.25532 8.85827
f 13/88/20 12/89/21 43/90/21 42/91/20 

vn 0.866025 0 0.5
f 12/88/21 11/89/22 44/90/22 43/91/21 

vn 0.965926 0 0.258819
f 11/84/22 10/85/23 45/86/23 44/87/22 

vn 1 0 -2.65953e-16
f 10/79/23 9/82/24 46/83/24 45/80/23 

vn 0.965926 0 -0.258819
f 9/78/24 8/79/25 47/80/25 46/81/24 

vn 0.866025 0 -0.5
f 8/1/25 7/2/26 48/3/26 47/4/25 

f 7/51/26 6/52/4 28/53/4 48/54/26 

g Mesh2 Model

v 3164.7 181.275 -616.513
vt -124.595 24.2722
v 3307.97 181.275 -738.247
vt -130.235 29.0648
v 3317.83 181.275 -731.898
vt -130.623 28.8149
v 3326.85 181.275 -724.399
vt -130.978 28.5196
v 3334.89 181.275 -715.862
vt -131.295 28.1836
v 3341.84 181.275 -706.413
vt -131.569 27.8115
v 3347.6 181.275 -696.19
vt -131.795 27.4091
v 3352.07 181.275 -685.346
vt -131.971 26.9821
v 3355.19 181.275 -674.039
vt -132.094 26.537
v 3356.92 181.275 -662.437
vt -132.162 26.0802
v 3357.23 181.275 -650.711
vt -132.174 25.6185
v 3356.12 181.275 -639.034
vt -132.131 25.1588
v 3353.59 181.275 -627.578
vt -132.031 24.7078
v 3349.7 181.275 -616.513
vt -131.878 24.2722
f 49/92/3 50/93/3 51/94/3 52/95/3 53/96/3 54/97/3 55/98/3 56/99/3 57/100/3 58/101/3 59/102/3 60/103/3 61/104/3 62/105/3 

vt -118.065 7.13682
vn -0.647521 0 -0.762048
vt -110.664 7.13682
v 3164.7 260.275 -616.513
vt -110.664 10.2471
v 3307.97 260.275 -738.247
vt -118.065 10.2471
f 50/106/27 49/107/27 63/108/27 64/109/27 

vt 124.595 7.13682
vn 0 0 1
vt 131.878 7.13682
v 3349.7 260.275 -616.513
vt 131.878 10.2471
vt 124.595 10.2471
f 49/110/28 62/111/28 65/112/28 63/113/28 

vt 66.662 7.13682
vn 0.943328 0 0.331862
vt 67.1238 7.13682
vn 0.961744 0 0.273951
v 3353.59 260.275 -627.578
vt 67.1238 10.2471
vt 66.662 10.2471
f 62/114/29 61/115/30 66/116/30 65/117/29 

vt 52.5204 7.13682
vt 52.9822 7.13682
vn 0.987865 0 0.155312
v 3356.12 260.275 -639.034
vt 52.9822 10.2471
vt 52.5204 10.2471
f 61/118/30 60/119/31 67/120/31 66/121/30 

vt 37.6003 7.13682
vt 38.0621 7.13682
vn 0.999409 0 0.0343808
v 3357.23 260.275 -650.711
vt 38.0621 10.2471
vt 37.6003 10.2471
f 60/122/31 59/123/32 68/124/32 67/125/31 

vt 22.1219 7.13682
vt 22.5837 7.13682
vn 0.996203 0 -0.087058
v 3356.92 260.275 -662.437
vt 22.5837 10.2471
vt 22.1219 10.2471
f 59/126/32 58/127/33 69/128/33 68/129/32 

vt 6.31364 7.13682
vt 6.77546 7.13682
vn 0.978296 0 -0.207212
v 3355.19 260.275 -674.039
vt 6.77546 10.2471
vt 6.31364 10.2471
f 58/130/33 57/131/34 70/132/34 69/133/33 

vt -9.5912 7.13682
vt -9.12938 7.13682
vn 0.945952 0 -0.324308
v 3352.07 260.275 -685.346
vt -9.12938 10.2471
vt -9.5912 10.2471
f 57/134/34 56/135/35 71/136/35 70/137/34 

vt -25.3579 7.13682
vt -24.8961 7.13682
vn 0.899647 0 -0.436618
v 3347.6 260.275 -696.19
vt -24.8961 10.2471
vt -25.3579 10.2471
f 56/138/35 55/139/36 72/140/36 71/141/35 

vt -40.7538 7.13682
vt -40.292 7.13682
vn 0.840066 0 -0.542485
v 3341.84 260.275 -706.413
vt -40.292 10.2471
vt -40.7538 10.2471
f 55/142/36 54/143/37 73/144/37 72/145/36 

vt -55.5516 7.13682
vt -55.0898 7.13682
vn 0.768087 0 -0.640345
v 3334.89 260.275 -715.862
vt -55.0898 10.2471
vt -55.5516 10.2471
f 54/146/37 53/147/38 74/148/38 73/149/37 

vt -69.5331 7.13682
vt -69.0713 7.13682
vn 0.684773 0 -0.728756
v 3326.85 260.275 -724.399
vt -69.0713 10.2471
vt -69.5331 10.2471
f 53/150/38 52/151/39 75/152/39 74/153/38 

vt -82.4918 7.13682
vt -82.03 7.13682
vn 0.591354 0 -0.806412
v 3317.83 260.275 -731.898
vt -82.03 10.2471
vt -82.4918 10.2471
f 52/154/39 51/155/40 76/156/40 75/157/39 

vt -94.2366 7.13682
vt -93.7748 7.13682
vn 0.54128 0 -0.840842
vt -93.7748 10.2471
vt -94.2366 10.2471
f 51/158/40 50/159/41 64/160/41 76/161/40 

vt 130.235 29.0648
vt 124.595 24.2722
vt 131.878 24.2722
vt 132.031 24.7078
vt 132.131 25.1588
vt 132.174 25.6185
vt 132.162 26.0802
vt 132.094 26.537
vt 131.971 26.9821
vt 131.795 27.4091
vt 131.569 27.8115
vt 131.295 28.1836
vt 130.978 28.5196
vt 130.623 28.8149
f 64/162/17 63/163/17 65/164/17 66/165/17 67/166/17 68/167/17 69/168/17 70/169/17 71/170/17 72/171/17 73/172/17 74/173/17 75/174/17 76/175/17 

