# Alias OBJ Model File
# Exported from SketchUp, (c) 2000-2012 Trimble Navigation Limited
# File units = millimeters

mtllib vv.mtl

g Mesh1 Component_7_1 Model

usemtl FrontColor
v 3023.21 0 -564.232
vt 1.37429 0
vn -0.5 0 0.866025
v 3043.71 0 -555.741
vt 2.24789 0
vn -0.258819 0 0.965926
v 3043.71 225 -555.741
vt 2.24789 8.85827
v 3023.21 225 -564.232
vt 1.37429 8.85827
f 1/1/1 2/2/2 3/3/2 4/4/1 

v 3108.21 0 -711.456
vt -5.01969 6.24457
vn 0 -1 -0
v 3125.81 0 -697.948
vt -5.71276 5.71276
v 3139.32 0 -680.344
vt -6.24457 5.01969
v 3147.81 0 -659.844
vt -6.57889 4.21258
v 3150.71 0 -637.844
vt -6.69291 3.34646
v 3147.81 0 -615.845
vt -6.57889 2.48033
v 3139.32 0 -595.344
vt -6.24457 1.67323
v 3125.81 0 -577.74
vt -5.71276 0.980154
v 3108.21 0 -564.232
vt -5.01969 0.44834
v 3087.71 0 -555.741
vt -4.21258 0.114028
v 3065.71 0 -552.844
vt -3.34646 0
vt -2.48033 0.114028
vt -1.67323 0.44834
v 3005.6 0 -577.74
vt -0.980154 0.980154
v 2992.1 0 -595.344
vt -0.44834 1.67323
v 2983.6 0 -615.845
vt -0.114028 2.48033
v 2980.71 0 -637.844
vt 0 3.34646
v 2983.6 0 -659.844
vt -0.114028 4.21258
v 2992.1 0 -680.344
vt -0.44834 5.01969
v 3005.6 0 -697.948
vt -0.980154 5.71276
v 3023.21 0 -711.456
vt -1.67323 6.24457
v 3043.71 0 -719.948
vt -2.48033 6.57889
v 3065.71 0 -722.844
vt -3.34646 6.69291
v 3087.71 0 -719.948
vt -4.21258 6.57889
f 5/5/3 6/6/3 7/7/3 8/8/3 9/9/3 10/10/3 11/11/3 12/12/3 13/13/3 14/14/3 15/15/3 2/16/3 1/17/3 16/18/3 17/19/3 18/20/3 19/21/3 20/22/3 21/23/3 22/24/3 23/25/3 24/26/3 25/27/3 26/28/3 

vt -1.05453 0
vn 0.707107 0 -0.707107
vt -0.180929 0
vn 0.5 0 -0.866025
v 3108.21 225 -711.456
vt -0.180929 8.85827
v 3125.81 225 -697.948
vt -1.05453 8.85827
f 6/29/4 5/30/5 27/31/5 28/32/4 

vt -2.24789 0
vt -1.37429 0
vn 0.258819 0 -0.965926
v 3087.71 225 -719.948
vt -1.37429 8.85827
vt -2.24789 8.85827
f 5/33/5 26/34/6 29/35/6 27/36/5 

vt -3.31783 0
vt -2.44423 0
vn 0 0 -1
v 3065.71 225 -722.844
vt -2.44423 8.85827
vt -3.31783 8.85827
f 26/37/6 25/38/7 30/39/7 29/40/6 

vt -4.19143 0
vn -0.258819 0 -0.965926
v 3043.71 225 -719.948
vt -4.19143 8.85827
f 25/41/7 24/37/8 31/40/8 30/42/7 

vt -4.80916 0
vt -3.93556 0
vn -0.5 0 -0.866025
v 3023.21 225 -711.456
vt -3.93556 8.85827
vt -4.80916 8.85827
f 24/43/8 23/44/9 32/45/9 31/46/8 

vt -5.12892 0
vt -4.25532 0
vn -0.707107 0 -0.707107
v 3005.6 225 -697.948
vt -4.25532 8.85827
vt -5.12892 8.85827
f 23/47/9 22/48/10 33/49/10 32/50/9 

vn -0.866025 0 -0.5
v 2992.1 225 -680.344
f 22/47/10 21/48/11 34/49/11 33/50/10 

vn -0.965926 0 -0.258819
v 2983.6 225 -659.844
f 21/43/11 20/44/12 35/45/12 34/46/11 

vn -1 0 2.65953e-16
v 2980.71 225 -637.844
f 20/41/12 19/37/13 36/40/13 35/42/12 

vn -0.965926 0 0.258819
v 2983.6 225 -615.845
f 19/37/13 18/38/14 37/39/14 36/40/13 

vn -0.866025 0 0.5
v 2992.1 225 -595.344
f 18/33/14 17/34/15 38/35/15 37/36/14 

vn -0.707107 0 0.707107
v 3005.6 225 -577.74
f 17/29/15 16/30/16 39/31/16 38/32/15 

vt 0.180929 0
vt 1.05453 0
vt 1.05453 8.85827
vt 0.180929 8.85827
f 16/51/16 1/52/1 4/53/1 39/54/16 

vt 5.71276 5.71276
vn 0 1 -0
vt 5.01969 6.24457
vt 4.21258 6.57889
vt 3.34646 6.69291
vt 2.48033 6.57889
vt 1.67323 6.24457
vt 0.980154 5.71276
vt 0.44834 5.01969
vt 0.114028 4.21258
vt 0.114028 2.48033
vt 0.44834 1.67323
vt 0.980154 0.980154
vt 1.67323 0.44834
vt 2.48033 0.114028
v 3065.71 225 -552.844
vt 3.34646 0
v 3087.71 225 -555.741
vt 4.21258 0.114028
v 3108.21 225 -564.232
vt 5.01969 0.44834
v 3125.81 225 -577.74
vt 5.71276 0.980154
v 3139.32 225 -595.344
vt 6.24457 1.67323
v 3147.81 225 -615.845
vt 6.57889 2.48033
v 3150.71 225 -637.844
vt 6.69291 3.34646
v 3147.81 225 -659.844
vt 6.57889 4.21258
v 3139.32 225 -680.344
vt 6.24457 5.01969
f 28/55/17 27/56/17 29/57/17 30/58/17 31/59/17 32/60/17 33/61/17 34/62/17 35/63/17 36/21/17 37/64/17 38/65/17 39/66/17 4/67/17 3/68/17 40/69/17 41/70/17 42/71/17 43/72/17 44/73/17 45/74/17 46/75/17 47/76/17 48/77/17 

vt 2.44423 0
vt 3.31783 0
vn 1.06381e-15 0 1
vt 3.31783 8.85827
vt 2.44423 8.85827
f 2/78/2 15/79/18 40/80/18 3/81/2 

vt 4.19143 0
vn 0.258819 0 0.965926
vt 4.19143 8.85827
f 15/79/18 14/82/19 41/83/19 40/80/18 

vt 3.93556 0
vt 4.80916 0
vn 0.5 0 0.866025
vt 4.80916 8.85827
vt 3.93556 8.85827
f 14/84/19 13/85/20 42/86/20 41/87/19 

vt 4.25532 0
vt 5.12892 0
vn 0.707107 0 0.707107
vt 5.12892 8.85827
vt 4.25532 8.85827
f 13/88/20 12/89/21 43/90/21 42/91/20 

vn 0.866025 0 0.5
f 12/88/21 11/89/22 44/90/22 43/91/21 

vn 0.965926 0 0.258819
f 11/84/22 10/85/23 45/86/23 44/87/22 

vn 1 0 -2.65953e-16
f 10/79/23 9/82/24 46/83/24 45/80/23 

vn 0.965926 0 -0.258819
f 9/78/24 8/79/25 47/80/25 46/81/24 

vn 0.866025 0 -0.5
f 8/1/25 7/2/26 48/3/26 47/4/25 

f 7/51/26 6/52/4 28/53/4 48/54/26 

g Mesh2 Model

v 3229.6 0 -619.395
vt -99.6125 0
vn 0.482406 0 -0.875948
v 3188.54 0 -642.005
vt -97.7673 0
v 3188.54 21 -642.005
vt -97.7673 0.826772
v 3229.6 21 -619.395
vt -99.6125 0.826772
f 49/92/27 50/93/27 51/94/27 52/95/27 

v 3230 0 -599.268
vt -127.165 23.5932
vt -125.533 25.2758
vt -127.149 24.3856
f 53/96/3 50/97/3 49/98/3

v 3171.31 0 -631.589
vt -124.855 24.8657
f 54/99/3 50/97/3 53/96/3

v 3187.6 0 -688.864
vt -125.496 27.1206
f 50/97/3 54/99/3 55/100/3

v 3169.96 0 -698.575
vt -124.802 27.503
f 56/101/3 55/100/3 54/99/3

v 3227.3 0 -733.24
vt -127.059 28.8677
f 55/100/3 56/101/3 57/102/3

vt -123.667 0
vn -0.51739 0 -0.85575
vt -121.029 0
v 3169.96 21 -698.575
vt -121.029 0.826772
v 3227.3 21 -733.24
vt -123.667 0.826772
f 57/103/28 56/104/28 58/105/28 59/106/28 

vt -24.9766 0
vn -0.999796 0 0.020198
vt -22.3388 0
v 3171.31 21 -631.589
vt -22.3388 0.826772
vt -24.9766 0.826772
f 56/107/29 54/108/29 60/109/29 58/110/29 

vt 97.371 0
vn -0.482406 0 0.875948
vt 100.009 0
v 3230 21 -599.268
vt 100.009 0.826772
vt 97.371 0.826772
f 54/111/30 53/112/30 61/113/30 60/114/30 

vt 121.029 0
vn 0.51739 0 0.85575
v 3287.34 0 -633.933
vt 123.667 0
v 3287.34 21 -633.933
vt 123.667 0.826772
vt 121.029 0.826772
f 53/115/31 62/116/31 63/117/31 61/118/31 

v 3269.7 0 -643.645
vt -128.729 25.3403
vt -129.423 24.958
f 53/96/3 64/119/3 62/120/3

f 53/96/3 49/98/3 64/119/3

vt -123.27 0
vt -121.425 0
vt -121.425 0.826772
v 3269.7 21 -643.645
vt -123.27 0.826772
f 64/121/28 49/122/28 52/123/28 65/124/28 

vt 127.149 24.3856
vt 127.165 23.5932
vt 128.729 25.3403
f 52/125/17 61/126/17 65/127/17

vt 125.533 25.2758
f 51/128/17 61/126/17 52/125/17

vt 124.855 24.8657
f 51/128/17 60/129/17 61/126/17

v 3187.6 21 -688.864
vt 125.496 27.1206
f 60/129/17 51/128/17 66/130/17

vt 22.7351 0
vn 0.999796 0 -0.020198
vt 24.5803 0
vt 24.5803 0.826772
vt 22.7351 0.826772
f 50/131/32 55/132/32 66/133/32 51/134/32 

vt 121.425 0
v 3227.7 0 -713.113
vt 123.27 0
v 3227.7 21 -713.113
vt 123.27 0.826772
vt 121.425 0.826772
f 55/135/31 67/136/31 68/137/31 66/138/31 

vt -127.075 28.0753
f 55/100/3 57/102/3 67/139/3

v 3285.99 0 -700.919
vt -129.369 27.5952
f 67/139/3 57/102/3 69/140/3

vt -100.009 0
vt -97.371 0
vt -97.371 0.826772
v 3285.99 21 -700.919
vt -100.009 0.826772
f 69/141/27 57/142/27 59/143/27 70/144/27 

vt 127.059 28.8677
vt 127.075 28.0753
vt 129.369 27.5952
f 59/145/17 68/146/17 70/147/17

f 59/145/17 66/130/17 68/146/17

vt 124.802 27.503
f 58/148/17 66/130/17 59/145/17

f 66/130/17 58/148/17 60/129/17

v 3268.76 21 -690.503
vt 128.691 27.1852
f 70/147/17 68/146/17 71/149/17

vt 97.7673 0
v 3268.76 0 -690.503
vt 99.6125 0
vt 99.6125 0.826772
vt 97.7673 0.826772
f 67/150/30 72/151/30 71/152/30 68/153/30 

vt -128.691 27.1852
f 67/139/3 69/140/3 72/154/3

f 72/154/3 69/140/3 64/119/3

f 62/120/3 64/119/3 69/140/3

vt 22.3388 0
vt 24.9766 0
vt 24.9766 0.826772
vt 22.3388 0.826772
f 62/155/32 69/156/32 70/157/32 63/158/32 

vt 129.423 24.958
f 65/127/17 63/159/17 70/147/17

f 65/127/17 61/126/17 63/159/17

f 70/147/17 71/149/17 65/127/17

vt -24.5803 0
vt -22.7351 0
vt -22.7351 0.826772
vt -24.5803 0.826772
f 72/160/29 64/161/29 65/162/29 71/163/29 

