# Alias OBJ Model File
# Exported from SketchUp, (c) 2000-2012 Trimble Navigation Limited
# File units = millimeters

mtllib z.mtl

g Mesh1 Component_7_1 Model

usemtl FrontColor
v 3050.02 67.5792 -612.656
vt 0.672751 0
vn 0.996203 0 -0.087058
v 3048.29 67.5792 -624.258
vt 1.13457 0
vn 0.978296 0 -0.207212
v 3048.29 146.579 -624.258
vt 1.13457 3.11024
v 3050.02 146.579 -612.656
vt 0.672751 3.11024
f 1/1/1 2/2/2 3/3/2 4/4/1 

v 2857.8 67.5792 -566.732
vt 0 0
vn 0 -1 -0
v 3001.06 67.5792 -688.466
vt -5.64036 4.79267
v 3010.92 67.5792 -682.117
vt -6.02867 4.5427
v 3019.95 67.5792 -674.618
vt -6.38381 4.24749
v 3027.99 67.5792 -666.081
vt -6.70053 3.91139
v 3034.94 67.5792 -656.632
vt -6.97416 3.53937
v 3040.69 67.5792 -646.409
vt -7.20066 3.13691
v 3045.16 67.5792 -635.565
vt -7.37669 2.70996
vt -7.49965 2.26481
vt -7.56772 1.80804
v 3050.33 67.5792 -600.93
vt -7.57991 1.34638
v 3049.21 67.5792 -589.253
vt -7.53603 0.886657
v 3046.69 67.5792 -577.797
vt -7.43672 0.435644
v 3042.8 67.5792 -566.732
vt -7.28346 0
f 5/5/3 6/6/3 7/7/3 8/8/3 9/9/3 10/10/3 11/11/3 12/12/3 2/13/3 1/14/3 13/15/3 14/16/3 15/17/3 16/18/3 

vt -7.40157 0
vn -0.647521 0 -0.762048
v 2857.8 146.579 -566.732
vt 0 3.11024
v 3001.06 146.579 -688.466
vt -7.40157 3.11024
f 6/19/4 5/5/4 17/20/4 18/21/4 

vn 0 0 1
vt 7.28346 0
v 3042.8 146.579 -566.732
vt 7.28346 3.11024
f 5/5/5 16/22/5 19/23/5 17/20/5 

vt 2.41711 0
vn 0.943328 0 0.331862
vt 2.87892 0
vn 0.961744 0 0.273951
v 3046.69 146.579 -577.797
vt 2.87892 3.11024
vt 2.41711 3.11024
f 16/24/6 15/25/7 20/26/7 19/27/6 

vt 2.02456 0
vt 2.48638 0
vn 0.987865 0 0.155312
v 3049.21 146.579 -589.253
vt 2.48638 3.11024
vt 2.02456 3.11024
f 15/28/7 14/29/8 21/30/8 20/31/7 

vt 1.59873 0
vt 2.06055 0
vn 0.999409 0 0.0343808
v 3050.33 146.579 -600.93
vt 2.06055 3.11024
vt 1.59873 3.11024
f 14/32/8 13/33/9 22/34/9 21/35/8 

vt 1.1459 0
vt 1.60772 0
vt 1.60772 3.11024
vt 1.1459 3.11024
f 13/36/9 1/37/1 4/38/1 22/39/9 

vt 5.64036 4.79267
vn 0 1 -0
vt 7.43672 0.435644
vt 7.53603 0.886657
vt 7.57991 1.34638
vt 7.56772 1.80804
vt 7.49965 2.26481
v 3045.16 146.579 -635.565
vt 7.37669 2.70996
v 3040.69 146.579 -646.409
vt 7.20066 3.13691
v 3034.94 146.579 -656.632
vt 6.97416 3.53937
v 3027.99 146.579 -666.081
vt 6.70053 3.91139
v 3019.95 146.579 -674.618
vt 6.38381 4.24749
v 3010.92 146.579 -682.117
vt 6.02867 4.5427
f 18/40/10 17/5/10 19/22/10 20/41/10 21/42/10 22/43/10 4/44/10 3/45/10 23/46/10 24/47/10 25/48/10 26/49/10 27/50/10 28/51/10 

vt 0.186266 0
vt 0.648082 0
vn 0.945952 0 -0.324308
vt 0.648082 3.11024
vt 0.186266 3.11024
f 2/52/2 12/53/11 23/54/11 3/55/2 

vt -0.306377 0
vt 0.155439 0
vn 0.899647 0 -0.436618
vt 0.155439 3.11024
vt -0.306377 3.11024
f 12/56/11 11/57/12 24/58/12 23/59/11 

vt -0.797906 0
vt -0.336089 0
vn 0.840066 0 -0.542485
vt -0.336089 3.11024
vt -0.797906 3.11024
f 11/60/12 10/61/13 25/62/13 24/63/12 

vt -1.28107 0
vt -0.81925 0
vn 0.768087 0 -0.640345
vt -0.81925 3.11024
vt -1.28107 3.11024
f 10/64/13 9/65/14 26/66/14 25/67/13 

vt -1.74873 0
vt -1.28691 0
vn 0.684773 0 -0.728756
vt -1.28691 3.11024
vt -1.74873 3.11024
f 9/68/14 8/69/15 27/70/15 26/71/14 

vt -2.19399 0
vt -1.73218 0
vn 0.591354 0 -0.806412
vt -1.73218 3.11024
vt -2.19399 3.11024
f 8/72/15 7/73/16 28/74/16 27/75/15 

vt -2.61029 0
vt -2.14847 0
vn 0.54128 0 -0.840842
vt -2.14847 3.11024
vt -2.61029 3.11024
f 7/76/16 6/77/17 18/78/17 28/79/16 

g Mesh2 Model

v 2933.97 49.6792 -577.375
vt -22.702 106.774
vn 0.367926 -0.91759 -0.150533
v 2962.61 51.2271 -516.822
vt -25.3353 106.928
v 2945.26 42.8931 -508.408
vt -25.3834 106.102
v 2916.63 41.3452 -568.961
vt -22.75 105.949
f 29/80/18 30/81/18 31/82/18 32/83/18 

v 2951.89 66.9922 -523.295
vt -32.194 -42.6432
vn 0.825815 0.396857 -0.400666
vt -32.6075 -43.3194
vt -29.9705 -43.3858
f 33/84/19 30/85/19 29/86/19

v 2946.97 104.778 -496.006
vt -33.0761 -41.0225
f 34/87/19 30/85/19 33/84/19

v 2955.58 105.243 -477.811
vt -33.8685 -41.0026
f 30/85/19 34/87/19 35/88/19

v 2919.91 157.711 -499.353
vt -32.4925 -38.7521
f 34/87/19 36/89/19 35/88/19

v 2922.02 141.481 -511.075
vt -32.1136 -39.4483
f 36/89/19 34/87/19 37/90/19

vt -116.691 2.62489
vn -0.186165 -0.478803 -0.857957
vt -117.525 0.978966
v 2929.63 96.4439 -487.592
vt -116.787 0.605232
v 2904.68 133.147 -502.661
vt -115.953 2.25116
f 37/91/20 34/92/20 38/93/20 39/94/20 

vt -103.381 28.3528
vn -0.554091 0.438787 -0.707425
vt -104.196 26.6973
v 2934.55 58.6582 -514.881
vt -103.454 26.3322
vt -102.639 27.9877
f 34/95/21 33/96/21 40/97/21 38/98/21 

vt 24.9397 106.904
vn -0.367926 0.91759 0.150533
v 2931.86 65.9094 -565.653
vt 23.0976 106.797
v 2914.52 57.5754 -557.239
vt 23.1457 105.972
vt 24.9878 106.079
f 33/99/22 41/100/22 42/101/22 40/102/22 

vt -30.3494 -42.6897
f 33/84/19 29/86/19 41/103/19

v 2906.91 102.612 -580.722
vt -29.3869 -41.1154
f 41/103/19 29/86/19 43/104/19

v 2898.31 102.147 -598.917
vt -28.5945 -41.1354
f 43/104/19 29/86/19 44/105/19

vt -116.512 2.97838
vt -117.704 0.625475
vt -116.967 0.25174
v 2880.96 93.8132 -590.503
vt -115.774 2.60465
f 44/106/20 29/107/20 32/108/20 45/109/20 

vt 29.9705 -43.3858
vn -0.825815 -0.396857 0.400666
v 2889.57 94.2783 -572.309
vt 29.3869 -41.1154
vt 28.5945 -41.1354
f 32/110/23 46/111/23 45/112/23

vt 30.3494 -42.6897
f 32/110/23 42/113/23 46/111/23

vt 32.194 -42.6432
f 32/110/23 40/114/23 42/113/23

vt 32.6075 -43.3194
f 31/115/23 40/114/23 32/110/23

vt 33.0761 -41.0225
f 31/115/23 38/116/23 40/114/23

v 2938.23 96.909 -469.397
vt 33.8685 -41.0026
f 38/116/23 31/115/23 47/117/23

vt 104.371 26.3418
vn 0.554091 -0.438787 0.707425
vt 103.206 28.7084
vt 102.464 28.3432
vt 103.629 25.9766
f 30/118/24 35/119/24 47/120/24 31/121/24 

vt 117.704 0.625475
vn 0.186165 0.478803 0.857957
vt 116.512 2.97838
v 2902.57 149.377 -490.939
vt 115.774 2.60465
vt 116.967 0.25174
f 35/122/25 36/123/25 48/124/25 47/125/25 

vt 25.3353 106.928
v 2891.27 156.163 -559.906
vt 22.702 106.774
v 2873.93 147.829 -551.492
vt 22.75 105.949
vt 25.3834 106.102
f 36/126/22 49/127/22 50/128/22 48/129/22 

vt -29.8555 -38.8185
f 36/89/19 37/90/19 49/130/19

v 2901.99 140.398 -553.433
vt -30.269 -39.4947
f 49/130/19 37/90/19 51/131/19

vt -23.0976 106.797
vt -24.9397 106.904
vt -24.9878 106.079
v 2884.65 132.064 -545.019
vt -23.1457 105.972
f 51/132/18 37/133/18 39/134/18 52/135/18 

vt 32.1136 -39.4483
vt 29.8555 -38.8185
vt 30.269 -39.4947
f 39/136/23 50/137/23 52/138/23

vt 32.4925 -38.7521
f 39/136/23 48/139/23 50/137/23

f 38/116/23 48/139/23 39/136/23

f 48/139/23 38/116/23 47/117/23

f 52/138/23 50/137/23 46/111/23

f 46/111/23 50/137/23 45/112/23

vt -103.206 28.7084
vt -104.371 26.3418
vt -103.629 25.9766
vt -102.464 28.3432
f 49/140/21 44/141/21 45/142/21 50/143/21 

f 49/130/19 43/104/19 44/105/19

f 49/130/19 51/131/19 43/104/19

vt 104.196 26.6973
vt 103.381 28.3528
vt 102.639 27.9877
vt 103.454 26.3322
f 43/144/24 51/145/24 52/146/24 46/147/24 

vt 117.525 0.978966
vt 116.691 2.62489
vt 115.953 2.25116
vt 116.787 0.605232
f 41/148/25 43/149/25 46/150/25 42/151/25 

