# Alias OBJ Model File
# Exported from SketchUp, (c) 2000-2012 Trimble Navigation Limited
# File units = millimeters

mtllib zz.mtl

g Mesh1 Component_7_1 Model

usemtl FrontColor
v 3091.02 67.5792 -625.656
vt 0.672751 0
vn 0.996203 0 -0.087058
v 3089.29 67.5792 -637.258
vt 1.13457 0
vn 0.978296 0 -0.207212
v 3089.29 146.579 -637.258
vt 1.13457 3.11024
v 3091.02 146.579 -625.656
vt 0.672751 3.11024
f 1/1/1 2/2/2 3/3/2 4/4/1 

v 2898.8 67.5792 -579.732
vt 0 0
vn 0 -1 -0
v 3042.06 67.5792 -701.466
vt -5.64036 4.79267
v 3051.92 67.5792 -695.117
vt -6.02867 4.5427
v 3060.95 67.5792 -687.618
vt -6.38381 4.24749
v 3068.99 67.5792 -679.081
vt -6.70053 3.91139
v 3075.94 67.5792 -669.632
vt -6.97416 3.53937
v 3081.69 67.5792 -659.409
vt -7.20066 3.13691
v 3086.16 67.5792 -648.565
vt -7.37669 2.70996
vt -7.49965 2.26481
vt -7.56772 1.80804
v 3091.33 67.5792 -613.93
vt -7.57991 1.34638
v 3090.21 67.5792 -602.253
vt -7.53603 0.886657
v 3087.69 67.5792 -590.797
vt -7.43672 0.435644
v 3083.8 67.5792 -579.732
vt -7.28346 0
f 5/5/3 6/6/3 7/7/3 8/8/3 9/9/3 10/10/3 11/11/3 12/12/3 2/13/3 1/14/3 13/15/3 14/16/3 15/17/3 16/18/3 

vt -7.40157 0
vn -0.647521 0 -0.762048
v 2898.8 146.579 -579.732
vt 0 3.11024
v 3042.06 146.579 -701.466
vt -7.40157 3.11024
f 6/19/4 5/5/4 17/20/4 18/21/4 

vn 0 0 1
vt 7.28346 0
v 3083.8 146.579 -579.732
vt 7.28346 3.11024
f 5/5/5 16/22/5 19/23/5 17/20/5 

vt 2.41711 0
vn 0.943328 0 0.331862
vt 2.87892 0
vn 0.961744 0 0.273951
v 3087.69 146.579 -590.797
vt 2.87892 3.11024
vt 2.41711 3.11024
f 16/24/6 15/25/7 20/26/7 19/27/6 

vt 2.02456 0
vt 2.48638 0
vn 0.987865 0 0.155312
v 3090.21 146.579 -602.253
vt 2.48638 3.11024
vt 2.02456 3.11024
f 15/28/7 14/29/8 21/30/8 20/31/7 

vt 1.59873 0
vt 2.06055 0
vn 0.999409 0 0.0343808
v 3091.33 146.579 -613.93
vt 2.06055 3.11024
vt 1.59873 3.11024
f 14/32/8 13/33/9 22/34/9 21/35/8 

vt 1.1459 0
vt 1.60772 0
vt 1.60772 3.11024
vt 1.1459 3.11024
f 13/36/9 1/37/1 4/38/1 22/39/9 

vt 5.64036 4.79267
vn 0 1 -0
vt 7.43672 0.435644
vt 7.53603 0.886657
vt 7.57991 1.34638
vt 7.56772 1.80804
vt 7.49965 2.26481
v 3086.16 146.579 -648.565
vt 7.37669 2.70996
v 3081.69 146.579 -659.409
vt 7.20066 3.13691
v 3075.94 146.579 -669.632
vt 6.97416 3.53937
v 3068.99 146.579 -679.081
vt 6.70053 3.91139
v 3060.95 146.579 -687.618
vt 6.38381 4.24749
v 3051.92 146.579 -695.117
vt 6.02867 4.5427
f 18/40/10 17/5/10 19/22/10 20/41/10 21/42/10 22/43/10 4/44/10 3/45/10 23/46/10 24/47/10 25/48/10 26/49/10 27/50/10 28/51/10 

vt 0.186266 0
vt 0.648082 0
vn 0.945952 0 -0.324308
vt 0.648082 3.11024
vt 0.186266 3.11024
f 2/52/2 12/53/11 23/54/11 3/55/2 

vt -0.306377 0
vt 0.155439 0
vn 0.899647 0 -0.436618
vt 0.155439 3.11024
vt -0.306377 3.11024
f 12/56/11 11/57/12 24/58/12 23/59/11 

vt -0.797906 0
vt -0.336089 0
vn 0.840066 0 -0.542485
vt -0.336089 3.11024
vt -0.797906 3.11024
f 11/60/12 10/61/13 25/62/13 24/63/12 

vt -1.28107 0
vt -0.81925 0
vn 0.768087 0 -0.640345
vt -0.81925 3.11024
vt -1.28107 3.11024
f 10/64/13 9/65/14 26/66/14 25/67/13 

vt -1.74873 0
vt -1.28691 0
vn 0.684773 0 -0.728756
vt -1.28691 3.11024
vt -1.74873 3.11024
f 9/68/14 8/69/15 27/70/15 26/71/14 

vt -2.19399 0
vt -1.73218 0
vn 0.591354 0 -0.806412
vt -1.73218 3.11024
vt -2.19399 3.11024
f 8/72/15 7/73/16 28/74/16 27/75/15 

vt -2.61029 0
vt -2.14847 0
vn 0.54128 0 -0.840842
vt -2.14847 3.11024
vt -2.61029 3.11024
f 7/76/16 6/77/17 18/78/17 28/79/16 

g Mesh2 Model

v 2877.49 9.02389e-14 -634.858
vt 87.176 3.55271e-15
vn -0.482406 0 0.875948
v 2936.18 9.02389e-14 -602.537
vt 89.8138 3.55271e-15
v 2936.18 21 -602.537
vt 89.8138 0.826772
v 2877.49 21 -634.858
vt 87.176 0.826772
f 29/80/18 30/81/18 31/82/18 32/83/18 

vt -113.287 24.9944
v 2894.72 9.02389e-14 -645.274
vt -113.965 25.4045
vt -115.598 23.7219
f 29/84/3 33/85/3 30/86/3

v 2893.77 9.02389e-14 -692.133
vt -113.928 27.2493
f 33/85/3 29/84/3 34/87/3

v 2876.13 9.02389e-14 -701.844
vt -113.234 27.6317
f 35/88/3 34/87/3 29/84/3

v 2933.47 9.02389e-14 -736.509
vt -115.491 28.9964
f 34/87/3 35/88/3 36/89/3

vt -113.834 3.55271e-15
vn -0.51739 0 -0.85575
vt -111.196 3.55271e-15
v 2876.13 21 -701.844
vt -111.196 0.826772
v 2933.47 21 -736.509
vt -113.834 0.826772
f 36/90/19 35/91/19 37/92/19 38/93/19 

vt -25.3389 3.55271e-15
vn -0.999796 0 0.020198
vt -22.7011 3.55271e-15
vt -22.7011 0.826772
vt -25.3389 0.826772
f 35/94/20 29/95/20 32/96/20 37/97/20 

v 2893.77 21 -692.133
vt 113.928 27.2493
vt 113.234 27.6317
vt 113.287 24.9944
f 39/98/10 37/99/10 32/100/10

vt 115.491 28.9964
f 37/99/10 39/98/10 38/101/10

v 2933.88 21 -716.382
vt 115.507 28.204
f 38/101/10 39/98/10 40/102/10

vt 111.592 3.55271e-15
vn 0.51739 0 0.85575
v 2933.88 9.02389e-14 -716.382
vt 113.438 3.55271e-15
vt 113.438 0.826772
vt 111.592 0.826772
f 34/103/21 41/104/21 40/105/21 39/106/21 

vt -115.507 28.204
f 34/87/3 36/89/3 41/107/3

v 2992.16 9.02389e-14 -704.188
vt -117.802 27.7239
f 41/107/3 36/89/3 42/108/3

vt -89.8138 3.55271e-15
vn 0.482406 0 -0.875948
vt -87.176 3.55271e-15
vt -87.176 0.826772
v 2992.16 21 -704.188
vt -89.8138 0.826772
f 42/109/22 36/110/22 38/111/22 43/112/22 

vt 117.802 27.7239
f 38/101/10 40/102/10 43/113/10

v 2974.93 21 -693.772
vt 117.123 27.3139
f 43/113/10 40/102/10 44/114/10

vt 87.5723 3.55271e-15
v 2974.93 9.02389e-14 -693.772
vt 89.4175 3.55271e-15
vt 89.4175 0.826772
vt 87.5723 0.826772
f 41/115/18 45/116/18 44/117/18 40/118/18 

vt -117.123 27.3139
f 41/107/3 42/108/3 45/119/3

v 2975.88 9.02389e-14 -646.913
vt -117.161 25.469
f 45/119/3 42/108/3 46/120/3

v 2993.51 9.02389e-14 -637.202
vt -117.855 25.0867
f 47/121/3 46/120/3 42/108/3

f 30/86/3 46/120/3 47/121/3

v 2935.77 9.02389e-14 -622.664
vt -115.582 24.5143
f 30/86/3 48/122/3 46/120/3

f 30/86/3 33/85/3 48/122/3

vt -89.4175 3.55271e-15
vt -87.5723 3.55271e-15
v 2894.72 21 -645.274
vt -87.5723 0.826772
v 2935.77 21 -622.664
vt -89.4175 0.826772
f 48/123/22 33/124/22 49/125/22 50/126/22 

vt 23.0974 3.55271e-15
vn 0.999796 0 -0.020198
vt 24.9426 3.55271e-15
vt 24.9426 0.826772
vt 23.0974 0.826772
f 33/127/23 34/128/23 39/129/23 49/130/23 

vt 113.965 25.4045
f 32/100/10 49/131/10 39/98/10

vt 115.598 23.7219
f 49/131/10 32/100/10 31/132/10

vt 115.582 24.5143
f 49/131/10 31/132/10 50/133/10

v 2975.88 21 -646.913
vt 117.161 25.469
f 50/133/10 31/132/10 51/134/10

v 2993.51 21 -637.202
vt 117.855 25.0867
f 51/134/10 31/132/10 52/135/10

vt 111.196 3.55271e-15
vt 113.834 3.55271e-15
vt 113.834 0.826772
vt 111.196 0.826772
f 30/136/21 47/137/21 52/138/21 31/139/21 

vt 22.7011 3.55271e-15
vt 25.3389 3.55271e-15
vt 25.3389 0.826772
vt 22.7011 0.826772
f 47/140/23 42/141/23 43/142/23 52/143/23 

f 51/134/10 52/135/10 43/113/10

f 43/113/10 44/114/10 51/134/10

vt -24.9426 3.55271e-15
vt -23.0974 3.55271e-15
vt -23.0974 0.826772
vt -24.9426 0.826772
f 45/144/20 46/145/20 51/146/20 44/147/20 

vt -113.438 3.55271e-15
vt -111.592 3.55271e-15
vt -111.592 0.826772
vt -113.438 0.826772
f 46/148/19 48/149/19 50/150/19 51/151/19 

